<svg width="32" height="32" xmlns="http://www.w3.org/2000/svg" viewBox="0 0 32 32"><g fill="none" fill-rule="evenodd"><g fill-rule="nonzero"><path d="M14.654.668.669 14.642a1.917 1.917 0 0 0 0 2.716l13.985 13.974a1.92 1.92 0 0 0 2.718 0l5.864-5.859c.673-.673.673-1.764 0-2.436s-1.765-.673-2.438 0l-4.445 4.442a.456.456 0 0 1-.658 0L4.527 16.32a.456.456 0 0 1 0-.658L15.695 4.503a.456.456 0 0 1 .658 0l4.445 4.442a1.724 1.724 0 0 0 2.438-2.436L17.373.649a1.94 1.94 0 0 0-2.719.019" fill="url(#a)"/><path d="M14.654.668.669 14.642a1.917 1.917 0 0 0 0 2.716l13.985 13.974a1.92 1.92 0 0 0 2.718 0l5.864-5.859c.673-.673.673-1.764 0-2.436s-1.765-.673-2.438 0l-4.445 4.442a.456.456 0 0 1-.658 0L4.527 16.32a.456.456 0 0 1 0-.658L15.695 4.503c.466-.402 1.226-1.215 2.343-1.406q1.244-.212 2.721.934L17.373.649a1.94 1.94 0 0 0-2.719.019" fill="url(#b)"/><path d="M24.59 21.737a1.724 1.724 0 0 0 2.438 0l4.325-4.322a1.917 1.917 0 0 0 0-2.716l-4.363-4.344a1.73 1.73 0 0 0-2.441.002 1.72 1.72 0 0 0 0 2.436l2.947 2.944a.456.456 0 0 1 0 .658L24.589 19.3a1.72 1.72 0 0 0 0 2.436" fill="url(#c)"/></g><path fill="url(#d)" d="M19.859 16.07a3.776 3.773 0 0 1-3.776 3.773 3.776 3.773 0 0 1-3.776-3.773 3.776 3.773 0 0 1 7.552 0"/></g></svg>