<svg xmlns="http://www.w3.org/2000/svg" width="37.618" height="32" style="shape-rendering:geometricPrecision;text-rendering:geometricPrecision;image-rendering:optimizeQuality;fill-rule:evenodd;clip-rule:evenodd" viewBox="0 0 37.618px 32px"><path style="opacity:1" fill="#fdfefe" d="M-.05-.05h37.618v32H-.05z"/><path style="opacity:1" fill="#cceefb" d="M33.756 3.16v-.1q1.108-.05 2.207.1-.656 1.113-1.304 2.207v-.602h-.401q-.197.752-.451-.1-.058.084-.15.1l.401-1.605z"/><path style="opacity:1" fill="#165799" d="M16.903 3.461a6 6 0 0 0-.702.301q-.132-.02-.201.1l.502.201a8 8 0 0 1-1.103.05q-.764.34-1.304.953-.258.229-.602.301a3.7 3.7 0 0 0-.401-.702q1.681-1.296 3.812-1.204"/><path style="opacity:1" fill="#137dc3" d="M13.091 4.665a3.7 3.7 0 0 1 .401.702v.1a2 2 0 0 1-.351.401l-.401-1.003a24 24 0 0 0-1.354 1.204 1 1 0 0 0-.15-.602q-.157.169-.201.401-.181-.146-.15-.301-.291.06-.451.301-.409-.077-.853 0a1.9 1.9 0 0 0-.05-.602q-.371.234-.15.602a8 8 0 0 1-1.605.351l-.152.151q-.267-.156-.552 0l1.103-1.605q1.136-1.094 2.708-1.304.537-.013 1.003.251a5.5 5.5 0 0 1 1.204.953"/><path style="opacity:1" fill="#0e9adc" d="M30.546 3.461a3.1 3.1 0 0 1-.552.903 1.1 1.1 0 0 1-.351-.201 2 2 0 0 1-.602.301 1.7 1.7 0 0 0 .803.1 10.7 10.7 0 0 1-.953 2.207l-1.856 3.11a15 15 0 0 1-1.003 1.304 25 25 0 0 0 .502-1.705q.337-.71.502-1.505a11 11 0 0 0 .502-1.605q.526-1.307 1.605-2.257a4.5 4.5 0 0 1 1.404-.652"/><path style="opacity:1" fill="#2b8ed0" d="M16.903 3.461h.401q1.329.526 2.006 1.806a3.3 3.3 0 0 1 .301.702q-.446.822-.351-.1-.498.175-.953.201a94 94 0 0 0-.502-.803Q17.289 4.2 16.2 3.762a6 6 0 0 1 .702-.301"/><path style="opacity:1" fill="#89d8f6" d="M17.304 3.361q2.498-.132 3.511 2.107-.204-.076-.301-.301a.94.94 0 0 0-.301.301l-.201-.401-.401.401q-.115-.167-.301-.201-.677-1.28-2.006-1.806z"/><path style="opacity:1" fill="#38aee7" d="M33.756 3.06v.1q0 .1-.1.1-1.481-.199-3.009 0-.055.103-.1.201a4.5 4.5 0 0 0-1.404.652q-1.079.95-1.605 2.257a10 10 0 0 0-.351-.702q-.616 1.055-.652-.201 1.285-2.249 3.912-2.357 1.654-.075 3.31-.05"/><path style="opacity:1" fill="#1369a7" d="M16.201 3.762q1.09.437 1.605 1.505a.9.9 0 0 1-.1.502q.388.208-.1.251-1.204.1-2.408 0a2 2 0 0 0-.351-.251q-.063.189-.251.201a6 6 0 0 1-.502-.903q.54-.613 1.304-.953a8 8 0 0 0 1.103-.05l-.502-.201q.069-.12.201-.1"/><path style="opacity:1" fill="#1074bb" d="M11.386 6.069A13.5 13.5 0 0 0 9.58 8.176L8.577 9.38a6.3 6.3 0 0 1 .401-1.154l-.15-.151q-.514.21-1.154.351-.705.066-1.404.15.033-.177-.1-.301-.316.235-.251.602.16-.285.251-.05a7 7 0 0 0-.15.552q-.137-.292-.451-.301A18 18 0 0 1 7.074 6.37q.285-.156.552 0l.15-.15a8 8 0 0 0 1.605-.351q-.22-.368.15-.602.075.297.05.602.444-.077.853 0 .16-.241.451-.301-.031.155.15.301.044-.232.201-.401a1 1 0 0 1 .15.602"/><path style="opacity:1" fill="#52bbec" d="M26.533 5.467q.036 1.255.652.201a10 10 0 0 1 .351.702 11 11 0 0 1-.502 1.605q-.264-.158-.201-.502h-.502a.5.5 0 0 0-.05-.301l-.301.401-.05-.251a5 5 0 0 0 .201-.953q.082-.513.401-.903"/><path style="opacity:1" fill="#62caf3" d="M20.815 5.467q1.006 1.662 1.304 3.611a29 29 0 0 1-.301-.602.45.45 0 0 0-.15.201q-.391-.653-.602-1.404a4.5 4.5 0 0 1-.05 1.103q-.157-.375-.251 0-.111-.274-.351-.401-.259-1.08-.803-2.006a3.3 3.3 0 0 0-.301-.702q.186.033.301.201l.401-.401.201.401a.94.94 0 0 1 .301-.301q.097.225.301.301"/><path style="opacity:1" fill="#b2e5f9" d="M34.659 5.367a64 64 0 0 1-2.107 3.712q.034-.333-.251-.502-.1-.201 0-.401.722-1.691 1.354-3.411.093-.017.15-.1.254.853.451.1h.401z"/><path style="opacity:1" fill="#1377b8" d="M17.806 5.267a94 94 0 0 1 .502.803 9 9 0 0 1 .502 1.404q-.067.455-.251.1l-.1.1q-.216-.183-.502-.201-1.061.012-2.107 0-.114.235-.351.301a16 16 0 0 0-.903-1.806q.188-.012.251-.201a2 2 0 0 1 .351.251q1.204.1 2.408 0 .488-.043.1-.251a.9.9 0 0 0 .1-.502"/><path style="opacity:1" fill="#68c3ec" d="M17.304 3.361v.1h-.401q-2.131-.092-3.812 1.204a5.5 5.5 0 0 0-1.204-.953q-.466-.264-1.003-.251-1.573.21-2.708 1.304-.84.664-1.555 1.505a30 30 0 0 0-1.756 2.708 9.5 9.5 0 0 0 .301-1.404q1.69-2.92 4.815-4.163 3.661-.075 7.323-.05"/><path style="opacity:1" fill="#1a88cd" d="M33.656 3.26a97 97 0 0 0-1.906 3.712 67 67 0 0 0-1.505 3.11h-.1q-.246.188-.351.502l-.1-.201q-1.158.091-2.458.1-.2-.316-.201-.602l1.856-3.11a10.7 10.7 0 0 0 .953-2.207 1.7 1.7 0 0 1-.803-.1 2 2 0 0 0 .602-.301 1.1 1.1 0 0 0 .351.201 3.1 3.1 0 0 0 .552-.903q.046-.098.1-.201 1.529-.199 3.009 0"/><path style="opacity:1" fill="#3b9cdc" d="M8.176 4.765 7.073 6.37a18 18 0 0 0-1.505 2.708 14 14 0 0 0-1.003 2.006q-.616.88-1.003 1.906l-.401.602a32 32 0 0 1 1.705-4.614A30 30 0 0 1 6.622 6.27q.715-.841 1.555-1.505"/><path style="opacity:1" fill="#1482c5" d="M18.809 7.473q.517 1.099.803 2.307a11 11 0 0 0-.201.502.7.7 0 0 1-.15-.301q-.384.191-.853.201a4 4 0 0 1-.853-.1l-.301.702q-.021-.383-.201-.702a.73.73 0 0 0-.201.301 3 3 0 0 0-.251-.451q-.141-.104-.201.05a22 22 0 0 1-.903-2.207q.237-.066.351-.301 1.045.012 2.107 0 .285.017.502.201l.1-.1q.184.355.251-.1"/><path style="opacity:1" fill="#116bb2" d="M8.577 9.379v.201l-.903 1.204q-.059-.699-.502-.251.139.307.1.652H6.77v-.301a2 2 0 0 1-.502-.1 1.9 1.9 0 0 1-.803.401 1.8 1.8 0 0 1-.502-.1q.059.209-.251.301-.156-.112-.15-.301a14 14 0 0 1 1.003-2.006q.315.009.451.301a7 7 0 0 1 .15-.552q-.091-.235-.251.05-.066-.367.251-.602.133.124.1.301.7-.085 1.404-.15.64-.141 1.154-.351l.15.15a6.3 6.3 0 0 0-.401 1.154"/><path style="opacity:1" fill="#6ec5ef" d="M26.132 6.37a5 5 0 0 1-.201.953l.05.251.301-.401q.073.143.05.301h.502q-.064.343.201.502-.165.795-.502 1.505.082-.57-.502-.602-.218-.581-.451 0l-.1.702-.1-.1a7 7 0 0 1 .251-1.505q.134-.853.502-1.605"/><path style="opacity:1" fill="#3dbbf0" d="M22.119 9.078q.206.571.301 1.204-.387.353-.301.903a3 3 0 0 0-.702-.201.5.5 0 0 1-.05.301 59 59 0 0 0-.953-3.31q.24.128.351.401.094-.375.251 0 .094-.546.05-1.103.211.751.602 1.404a.45.45 0 0 1 .15-.201 29 29 0 0 0 .301.602"/><path style="opacity:1" fill="#30aae5" d="M14.094 5.066a6 6 0 0 0 .502.903 16 16 0 0 1 .903 1.806 22 22 0 0 0 .903 2.207q.236.96.702 1.806.258.977.803 1.806.667 1.719 2.207 2.708-.09.211-.301.301-.241-.04-.401.1-.732.048-1.404-.1a6 6 0 0 0 1.103-.05q-1.259-.557-1.956-1.756a13.5 13.5 0 0 1-.903-2.006 28 28 0 0 0-.552 1.705q-.706-1.265-1.003-2.708.109-.063.15-.201l.1.201a3.3 3.3 0 0 0 .351-.602 5 5 0 0 0 .1.803q.14-.179.1-.401h.301q-.039.222.1.401-.65-2.678-1.655-5.317-.271-.697-.752-1.204v-.1q.344-.072.602-.301"/><path style="opacity:1" fill="#92cfee" d="M33.756 3.16h.301l-.401 1.605a71 71 0 0 1-1.354 3.411q-.1.201 0 .401.285.168.251.502-.491 1.035-1.204 1.906-.107-.136-.301-.1a.84.84 0 0 1 .05-.401 7.8 7.8 0 0 0 1.053-2.107 17 17 0 0 0-.401-1.404 97 97 0 0 1 1.906-3.712q.1 0 .1-.1"/><path style="opacity:1" fill="#93d2f2" d="M25.63 7.975a7 7 0 0 0-.251 1.505l.1.1.1-.702q.233-.581.451 0 .584.032.502.602a25 25 0 0 1-.502 1.705.6.6 0 0 1-.1.301l-1.003 1.103q-.108-.246-.05-.502.122.22.251.1l-.301-.351.1-.15a1.1 1.1 0 0 1 .201.251q.125.104.201-.05-.211-.384-.602-.502-.085.648-.201.1a36 36 0 0 1 1.103-3.511"/><path style="opacity:1" fill="#59bfec" d="M13.492 5.467q.482.506.752 1.204 1.006 2.638 1.655 5.317-.14-.179-.1-.401h-.301q.039.222-.1.401a5 5 0 0 1-.1-.803 3.3 3.3 0 0 1-.351.602l-.1-.201q-.042.138-.15.201a190 190 0 0 0-1.605-5.818q-1.631 1.672-2.809 3.611a1.7 1.7 0 0 0-.1-.803.45.45 0 0 0-.15.201q-.304-.419-.451.1a.4.4 0 0 1-.15-.1q.054-.393.15-.803a13.5 13.5 0 0 1 1.806-2.107 24 24 0 0 1 1.354-1.204l.401 1.003a2 2 0 0 0 .351-.401"/><path style="opacity:1" fill="#70bbe7" d="M31.75 6.972a17 17 0 0 1 .401 1.404 7.8 7.8 0 0 1-1.053 2.107.84.84 0 0 0-.05.401q.194-.036.301.1a12.5 12.5 0 0 1-1.103 1.806q-.253-.488.301-.602-.287-.555.201-.953-.147-.268.1-.502-.301-.576-.552-.05a1.9 1.9 0 0 1-.05-.602 67 67 0 0 1 1.505-3.11"/><path style="opacity:1" fill="#1575b9" d="m19.612 9.781.702 2.006q-.15-.013-.251.1a.73.73 0 0 0-.201-.301q-.144.21-.401.201a10 10 0 0 0-1.856-.1.5.5 0 0 0-.05-.301 2 2 0 0 1-.15.602l-.201-.301q-.091.019-.1.1-.466-.846-.702-1.806.06-.154.201-.05a3 3 0 0 1 .251.451.73.73 0 0 1 .201-.301q.18.32.201.702l.301-.702q.413.097.853.1.468-.009.853-.201a.7.7 0 0 0 .15.301q.101-.27.201-.502"/><path style="opacity:1" fill="#1a7abe" d="M27.035 9.881q.001.286.201.602 1.299-.009 2.458-.1l.1.201q.105-.314.351-.502a20 20 0 0 1-1.204 2.408q-.925-.149-1.906-.1.05.451-.401.401-.036-.372-.401-.502-.203.153-.301.401-.115-.167-.301-.201a4.3 4.3 0 0 0 .301-1.003.6.6 0 0 0 .1-.301 15 15 0 0 0 1.003-1.304"/><path style="opacity:1" fill="#139fe0" d="M8.577 9.58q-.025.401-.301.702.204.382.451 0 .282.168.251.502a.5.5 0 0 1 .301.05 9.4 9.4 0 0 1-.903 1.354.75.75 0 0 0-.201-.301q-.139.172-.251 0a.66.66 0 0 0-.301.301.4.4 0 0 0-.15-.1q-.256.196-.351.502-.213-.087-.251-.301a16 16 0 0 1 .803-1.505z"/><path style="opacity:1" fill="#b1e0f5" d="M24.928 12.589a5.6 5.6 0 0 1-1.204 1.304 11 11 0 0 1 .803-2.408q.115.548.201-.1.391.117.602.502-.076.154-.201.05a1.1 1.1 0 0 0-.201-.251l-.1.15.301.351q-.129.119-.251-.1-.058.255.05.502"/><path style="opacity:1" fill="#2ca3e1" d="M19.612 5.969q.544.927.803 2.006a59 59 0 0 1 .953 3.31.5.5 0 0 0 .05-.301 3 3 0 0 1 .702.201q-.086-.55.301-.903a22 22 0 0 1 .702 2.809q-.224-.243-.301-.602a3 3 0 0 0-.201.351q-.1.1-.201 0l.201-.401a1.1 1.1 0 0 1-.351-.15l-.1.602-.251-.301-.1.15q.304 1.181.803 2.257a1.9 1.9 0 0 1-.602.401 15 15 0 0 1-1.204-2.006l-.502-1.605-.702-2.006q-.286-1.208-.803-2.307a9 9 0 0 0-.502-1.404q.455-.026.953-.201-.095.922.351.1"/><path style="opacity:1" fill="#35afe7" d="M9.58 8.176a9 9 0 0 0-.15.803q.062.069.15.1.147-.52.451-.1a.45.45 0 0 1 .15-.201 1.7 1.7 0 0 1 .1.803 41 41 0 0 1-1.605 4.815 14 14 0 0 1 .502-1.756q-.108-.398-.502-.451a3.7 3.7 0 0 1-.301 1.103q.154.312-.1.602-.394-.556.1-1.053-.113-.101-.1-.251l.1-.401a9.4 9.4 0 0 0 .903-1.354.5.5 0 0 0-.301-.05q.032-.333-.251-.502-.248.382-.451 0 .276-.301.301-.702V9.38z"/><path style="opacity:1" fill="#4ca3db" d="M30.145 10.082h.1a1.9 1.9 0 0 0 .05.602q.251-.525.552.05-.248.234-.1.502-.488.398-.201.953-.554.114-.301.602a34 34 0 0 1-1.354 1.806 5.5 5.5 0 0 1-.652.602q.169-.336.15-.702a11.5 11.5 0 0 1-1.756 1.404q.67-.619 1.103-1.404.753-.902 1.204-2.006a20 20 0 0 0 1.204-2.408"/><path style="opacity:1" fill="#8ed4f4" d="M5.166 7.574a9.5 9.5 0 0 1-.301 1.404 32 32 0 0 0-1.705 4.614.6.6 0 0 1-.1.301h-.1a40 40 0 0 1-.301-1.505q.129-.119.251.1a3 3 0 0 1 .05-.803l.201.201.1-.15a1.3 1.3 0 0 1-.1-.552q.148-.618.451-1.204a20 20 0 0 1 1.555-2.408"/><path style="opacity:1" fill="#1362a8" d="M7.674 10.784a16 16 0 0 0-.803 1.505 19 19 0 0 0-1.204 2.006q-.061-.189-.201-.351.282-.297.1-.652a.94.94 0 0 0-.301.301q-.145-.389-.401-.15a2 2 0 0 1 .301.451 4 4 0 0 0-.351.502 5 5 0 0 0 0-.702q-.597-.524-.05-1.053-.08-.304-.401-.251.008.311-.201.552.124.393.1.752-.192.172-.401 0-.056-.359-.15-.803-.058.084-.15.1.387-1.026 1.003-1.906-.006.189.15.301.31-.092.251-.301.242.087.502.1a1.9 1.9 0 0 0 .803-.401q.246.082.502.1v.301h.502q.039-.345-.1-.652.443-.448.502.251"/><path style="opacity:1" fill="#1569ae" d="m20.314 11.787.502 1.605a9 9 0 0 0-.401.201q-.578-.039-1.204 0a1.3 1.3 0 0 0-.05-.502l-.502.702q-.071-.608-.451-.201-.173-.048-.251-.201a.24.24 0 0 0-.05.201q-.545-.828-.803-1.806.009-.082.1-.1l.201.301a2 2 0 0 0 .15-.602q.073.143.05.301.933-.034 1.856.1.257.009.401-.201a.73.73 0 0 1 .201.301q.101-.113.251-.1"/><path style="opacity:1" fill="#1969ad" d="M28.941 12.489q-.451 1.104-1.204 2.006-.218-.183-.401.1l-.1-.401-1.605-.201q-.285-.597-.301.1h-.301a23 23 0 0 0 .602-1.605q.186.033.301.201.098-.248.301-.401.366.129.401.502.451.05.401-.401.981-.049 1.906.1"/><path style="opacity:1" fill="#1186ce" d="m8.376 12.188-.1.401a28 28 0 0 1-1.204 1.906.5.5 0 0 0-.05-.301q-.134.182-.251 0 .14-.191.05-.401-.263.239-.351.602-.105-.773-.401-.05a2 2 0 0 1-.502.251.6.6 0 0 0 .1-.301 19 19 0 0 1 1.204-2.006q.038.214.251.301.095-.306.351-.502a.4.4 0 0 1 .15.1.66.66 0 0 1 .301-.301q.112.172.251 0a.75.75 0 0 1 .201.301"/><path style="opacity:1" fill="#15589e" d="M5.668 14.295a.6.6 0 0 1-.1.301l-1.204 2.408q-.954.025-1.906-.05a82 82 0 0 1 .602-3.06.6.6 0 0 0 .1-.301l.401-.602q.093-.017.15-.1.094.444.15.803.209.172.401 0 .024-.36-.1-.752.208-.24.201-.552.321-.053.401.251-.547.529.05 1.053a5 5 0 0 1 0 .702 4 4 0 0 1 .351-.502 2 2 0 0 0-.301-.451q.256-.238.401.15a.94.94 0 0 1 .301-.301q.181.355-.1.652.14.162.201.351"/><path style="opacity:1" fill="#1899dd" d="M25.931 11.486a4.3 4.3 0 0 1-.301 1.003 23 23 0 0 1-.602 1.605 9.4 9.4 0 0 1-.903 1.605 10 10 0 0 1-.702-1.404q-.174-.417-.201-.903a5 5 0 0 1 .301.702q.154-.053.201-.201a5.6 5.6 0 0 0 1.204-1.304z"/><path style="opacity:1" fill="#2584cc" d="M23.123 13.091q.136.107.1.301.026.486.201.903a99 99 0 0 1-.803.702q-.498-1.076-.803-2.257l.1-.15.251.301.1-.602a1.1 1.1 0 0 0 .351.15l-.201.401q.1.1.201 0a3 3 0 0 1 .201-.351q.077.359.301.602"/><path style="opacity:1" fill="#22a6e6" d="M8.677 14.395q-1.261 2.508-4.113 2.608 1.896-.592 2.508-2.508a28 28 0 0 0 1.204-1.906q-.013.15.1.251-.494.497-.1 1.053.254-.29.1-.602a3.7 3.7 0 0 0 .301-1.103q.393.053.502.451a14 14 0 0 0-.502 1.756"/><path style="opacity:1" fill="#165a9f" d="M20.815 13.392a15 15 0 0 0 1.204 2.006q-.853.652-1.906.903-1.54-.989-2.207-2.708a.24.24 0 0 1 .05-.201q.078.153.251.201.381-.408.451.201l.502-.702a1.3 1.3 0 0 1 .05.502q.626-.039 1.204 0a9 9 0 0 1 .401-.201"/><path style="opacity:1" fill="#a9dff6" d="M3.16 11.185a1.3 1.3 0 0 0 .1.552l-.1.15-.201-.201a3 3 0 0 0-.05.803q-.122-.22-.251-.1.137.759.301 1.505a68 68 0 0 1-1.605 3.11h-.301a9.8 9.8 0 0 1 .552-2.307 86 86 0 0 1 1.204-3.11q.143-.24.351-.401"/><path style="opacity:1" fill="#175a9d" d="M27.737 14.495q-.433.786-1.103 1.404a10 10 0 0 1-1.404.702l-.401-.1-.702-.803a9.4 9.4 0 0 0 .903-1.605h.301q.016-.698.301-.1l1.605.201.1.401q.183-.283.401-.1"/><path style="opacity:1" fill="#3aa2df" d="M2.959 13.894h.1a82 82 0 0 0-.602 3.06q.952.075 1.906.05-1.505.201-3.009 0a68 68 0 0 0 1.605-3.11"/><path style="opacity:1" fill="#176cb6" d="M7.072 14.495q-.612 1.916-2.508 2.508h-.201l1.204-2.408a2 2 0 0 0 .502-.251q.296-.723.401.05.088-.363.351-.602.089.21-.05.401.116.182.251 0 .073.143.05.301"/><path style="opacity:1" fill="#2571b6" d="M28.239 15.198q-.872.963-2.107 1.404h-.903a10 10 0 0 0 1.404-.702 11.5 11.5 0 0 0 1.756-1.404q.019.367-.15.702"/><path style="opacity:1" fill="#0f0f0f" d="M29.342 15.699q.676-.187.401 0-.05 2.006-.1 0z"/><path style="opacity:1" fill="#141515" d="M30.546 16.101q-.109-.063-.15-.201l-.1.803q-.124-.558.05-1.103.218.203.201.502"/><path style="opacity:1" fill="#2d90d4" d="M18.006 16.602q-1.676-.472-2.307-2.107a28 28 0 0 1 .552-1.705 13.5 13.5 0 0 0 .903 2.006q.697 1.199 1.956 1.756a6 6 0 0 1-1.103.05"/><path style="opacity:1" fill="#2068b5" d="M23.423 14.295a10 10 0 0 0 .702 1.404l.702.803a63 63 0 0 1-5.016.1q.211-.09.301-.301 1.053-.25 1.906-.903a1.9 1.9 0 0 0 .602-.401 99 99 0 0 0 .803-.702"/><path style="opacity:1" fill="#333" d="M30.546 16.101a8 8 0 0 1 .251.301q.708-1.561.502.301l-.1-.803-.401.803q-.25-.249-.251-.602"/><path style="opacity:1" fill="#5179aa" d="m24.828 16.502.401.1h.903q-3.334.15-6.721.1.161-.141.401-.1 2.534.05 5.016-.1"/><path style="opacity:1" fill="#080808" d="M10.583 19.612q.954-.025 1.906.05.291.038.552.15.124.608-.05 1.204-.903-.438-1.906-.251-.676.371-.201 1.003a26 26 0 0 1 1.906 1.003q1.062 1.115.251 2.458-1.004.796-2.307.702-.771.051-1.455-.301a3.3 3.3 0 0 1-.05-1.404q1.223.991 2.608.301.195-.614-.351-.953-1.186-.379-2.056-1.254-.826-1.958 1.154-2.708"/><path style="opacity:1" fill="#040404" d="M4.865 19.712a7.3 7.3 0 0 1 1.705.1 161 161 0 0 1 2.107 6.019H7.172a8 8 0 0 0-.401-1.354 8.2 8.2 0 0 0-2.207.05 7.3 7.3 0 0 0-.401 1.304 5.7 5.7 0 0 1-1.505-.1 326 326 0 0 0 2.207-6.019m12.239 0q2.12.29 1.756 2.408-.404 1.307-1.756 1.555a8.5 8.5 0 0 1-1.304.05v2.107h-1.304v-6.119zm5.718 0a186 186 0 0 0 3.11 4.915l.15.301q.075-2.608.05-5.216h.602v6.119q-.528.076-.953-.201a183 183 0 0 1-3.06-4.815q-.043-.119-.15-.201a136 136 0 0 0-.05 5.216h-.602v-6.119z"/><path style="opacity:1" fill="#838383" d="M26.132 19.712q.025 2.609-.05 5.216l-.15-.301z"/><path style="opacity:1" fill="#565656" d="M26.132 19.712q.317-.146.702-.1a96 96 0 0 1-.1 6.22v-6.119z"/><path style="opacity:1" d="M28.439 19.712h3.11v.602h-2.408v2.107h2.207v.602h-2.207v2.207h2.508v.602h-3.21z"/><path style="opacity:1" fill="#080808" d="M32.251 19.712h4.213v.602h-1.705v5.517h-.702v-5.517h-1.806z"/><path style="opacity:1" fill="#4e4e4e" d="M17.104 19.712h-2.608v6.119a96 96 0 0 1-.1-6.22q1.382-.049 2.708.1"/><path style="opacity:1" fill="#424242" d="M22.822 19.712h-.903v6.119a96 96 0 0 1-.1-6.22q.533-.047 1.003.1"/><path style="opacity:1" fill="#f9f9f9" d="M15.8 20.715q1.882-.332 1.555 1.505l-.251.251q-.632.206-1.304.15z"/><path style="opacity:1" fill="#e8e8e8" d="M5.567 20.815a53 53 0 0 1 .903 2.508q-.803.201-1.605 0a18 18 0 0 0 .702-2.508"/><path style="opacity:1" fill="#999" d="m22.721 20.815-.201 5.016q-.025-2.609.05-5.216.108.082.15.201"/><path style="opacity:1" fill="#131313" d="M19.912 24.928q.942.147.401.953-.777.125-.652-.652a1 1 0 0 0 .251-.301"/></svg>