<svg xmlns="http://www.w3.org/2000/svg" width="32" height="31.969" viewBox="0 0 32"><g fill-rule="evenodd" stroke-width=".08"><path d="M24.22 10.819q-.019.022-.002.033c.009.006.021-.001.026-.015.013-.034-.001-.045-.024-.018m-.029.08a.1.1 0 0 0-.02.054c0 .018-.006.032-.014.032-.013 0-.03.06-.037.128q-.003.023-.013.02c-.005-.003-.01.013-.011.036s-.009.088-.018.144c-.027.164-.02.357.023.608.034.203.194.532.337.694.035.04.062.073.058.073s.685.691 1.53 1.535c1.676 1.675 1.633 1.628 1.635 1.806.002.22.131.074-1.589 1.799-1.389 1.393-1.666 1.677-1.666 1.71a2 2 0 0 0-.185.341c-.212.476-.141 1.148.172 1.621.102.154.395.454.444.454.007 0 .027.013.045.03.03.028.181.109.306.165.058.026.183.062.336.096s.536.029.688-.01l.183-.047c.073-.018.179-.065.329-.145.159-.085.37-.288 2.527-2.447a323 323 0 0 0 2.328-2.342l.07-.094a1.7 1.7 0 0 0 .293-.65c.048-.178.074-.614.04-.659q-.012-.018.001-.027c.018-.011.005-.072-.015-.072a.014.014 0 0 0-.014.014c0 .008-.01.013-.021.011-.031-.005-.073-.051-.06-.066q.007-.01-.012.005c-.018.013-.031.012-.053-.004-.016-.012-.036-.018-.043-.014s-.009-.004-.003-.019q.013-.03-.012-.013-.027.018-.003-.01c.024-.03-.021-.035-.057-.007q-.02.014-.013.002c.012-.021-.028-.076-.047-.064-.008.005-.024-.003-.036-.017s-.014-.022-.004-.016q.015.007.017-.012 0-.021-.017-.009c-.034.026-.067.014-.063-.024.002-.02-.001-.033-.008-.029s-.025-.002-.042-.014c-.021-.016-.035-.017-.05-.005-.011.009-.024.012-.03.007s-.002-.01.008-.01q.017-.002.018-.017c.001-.015-.009-.014-.02-.01s-.031-.003-.046-.015a.1.1 0 0 0-.052-.026.07.07 0 0 1-.038-.023.06.06 0 0 0-.034-.023c-.032-.005-.088-.04-.065-.041q.018-.002.02-.016c0-.009-.018-.013-.04-.009q-.045.01-.024-.013c.02-.023-.026-.03-.054-.008q-.016.012-.017-.009.002-.02.017-.012.014.008-.004-.015c-.011-.014-.031-.022-.043-.017s-.022.001-.022-.009.008-.017.018-.017.014-.004.008-.01-.019-.003-.03.006c-.014.012-.028.01-.05-.005-.016-.012-.037-.017-.047-.011s-.007-.003.006-.019q.028-.034.001-.016-.025.016-.012-.013.008-.024-.003-.018c-.008.005-.031-.005-.052-.022s-.043-.026-.049-.02c-.014.014-.056-.046-.045-.064q.007-.014-.013 0c-.028.018-.109.021-.098.003a.016.016 0 0 1 .021-.005c.007.005.018.002.023-.007s-.008-.012-.03-.008c-.037.007-.057-.016-.024-.027.009-.003.002-.014-.015-.024-.023-.014-.034-.014-.042-.001q-.011.017.01.005.021-.014.008.008c-.013.022-.007.017.008.008q.021-.013.009.006c-.009.014-.019.012-.041-.008-.034-.031-.039-.045-.01-.028q.015.007-.01-.023c-.025-.03-.033-.031-.037-.027s-.029-.008-.056-.027-.04-.023-.029-.01c.015.019.015.024-.002.024q-.02-.002-.018-.035.004-.035-.017-.027c-.012.004-.021.016-.021.026s-.011.001-.025-.018-.034-.032-.045-.028q-.02.008-.016-.029c.003-.03-.002-.035-.032-.03-.02.004-.041-.002-.047-.012q-.012-.018.011-.005.028.018.001-.013c-.019-.023-.049-.024-.049-.001q.001.006.018-.003t.007.007c-.006.01-.018.014-.026.009q-.012-.01-.007-.022.006-.017-.015-.032c-.013-.011-.019-.025-.015-.032.009-.015-.045-.007-.075.011q-.02.012.001-.014c.018-.023.017-.025-.013-.019q-.035.008-.026-.015t-.017-.012q-.024.009-.015-.008c.006-.009.004-.021-.004-.026s-.02-.001-.026.009q-.011.018.009.006.02-.013.009.005c-.014.024-.017.023-.042-.008q-.028-.033.002-.013.022.012-.006-.02c-.036-.041-.042-.042-.031-.007q.014.039-.009 0c-.01-.016-.026-.023-.036-.017q-.015.007.005-.018.02-.026.004-.018c-.049.029-.079.024-.075-.013q.005-.037-.017-.028c-.012.004-.021.016-.021.026s-.011.001-.025-.018c-.014-.02-.034-.032-.045-.028q-.02.008-.016-.029c.002-.021-.004-.036-.013-.034q-.015.001-.013-.018c.002-.019-.003-.016-.012-.01s-.027.002-.039-.009-.023-.013-.023-.007-.014 0-.031-.016c-.017-.015-.027-.034-.023-.041.009-.015-.046-.006-.075.011q-.018.01.003-.019.02-.027.009-.019c-.011.008-.023-.001-.035-.016-.02-.025-.02-.025-.011.002s.009.028-.023 0c-.036-.031-.045-.046-.016-.028q.017.01.006-.008-.01-.02-.032-.002t-.032-.002q-.012-.02.01-.006.017.009-.007-.02c-.017-.019-.042-.03-.06-.027-.027.005-.029.003-.011-.021q.017-.024.007-.016c-.007.006-.028.003-.046-.006-.029-.015-.03-.014-.014.006.015.019.015.023-.002.023q-.02-.002-.018-.035c.003-.028-.003-.034-.033-.031-.02.002-.045-.007-.056-.021q-.026-.033.006-.005c.02.016.029.016.038.002q.01-.018-.005-.008a.02.02 0 0 1-.027-.006.02.02 0 0 0-.026-.006c-.019.012-.061-.042-.049-.062q.007-.012-.009-.003c-.01.006-.014.019-.008.027q.01.016-.021-.001c-.017-.009-.037-.012-.043-.005s-.007.002-.001-.009.019-.015.028-.009q.016.008.006-.006c-.006-.009-.028-.014-.049-.01-.04.007-.054-.016-.019-.03q.023-.008-.001-.009-.017-.003-.011-.016t-.023-.009c-.019.004-.045-.008-.064-.028-.028-.03-.031-.031-.02-.004.011.03.011.03-.02 0-.017-.017-.029-.035-.026-.041.01-.019-.024-.029-.035-.011q-.011.018.009.006t.009.005q-.01.02-.047-.005c-.02-.013-.041-.018-.047-.012s-.006-.002 0-.018q.014-.033-.011-.016-.027.018.001-.017.02-.027.01-.019-.017.01-.044-.006-.031-.016-.021 0a.02.02 0 0 1-.008.027q-.015.009-.01-.003c.012-.02-.03-.074-.048-.063-.008.005-.024-.003-.036-.018q-.032-.037.01-.004c.028.021.029.021.012-.002-.011-.014-.036-.023-.056-.021-.03.003-.036-.003-.033-.031q.002-.033-.018-.035-.026-.002-.002.023.027.03-.014.006c-.018-.01-.039-.013-.046-.006q-.01.008.007-.015c.018-.024.016-.026-.024-.02q-.038.004-.025-.002c.028-.012.024-.042-.003-.032-.013.005-.028.001-.034-.009q-.01-.017.01-.005.021.013.009-.006c-.009-.014-.017-.014-.037.002q-.022.017-.017.005c.005-.009-.006-.029-.023-.046-.031-.03-.031-.03-.02 0 .01.026.008.026-.02-.004-.019-.02-.045-.032-.064-.028q-.028.004-.024-.007c.005-.007 0-.017-.011-.021q-.024-.008 0-.009.018-.002.02-.017c0-.009-.018-.013-.039-.009s-.044-.001-.049-.01q-.008-.015.006-.006c.009.006.022.002.028-.009s.006-.015-.001-.009-.026.004-.044-.005q-.031-.017-.021-.001c.006.009.002.021-.008.027q-.016.009-.009-.003c.012-.02-.03-.074-.049-.062a.02.02 0 0 1-.026-.006q-.01-.014-.022-.009t-.012-.015c0-.018.006-.018.031.005.031.027.031.027.002-.013-.025-.034-.033-.037-.051-.02-.028.028-.031.027-.026-.017.004-.039-.026-.044-.075-.015q-.017.009.004-.018.02-.025.005-.018c-.01.006-.026-.001-.036-.017q-.023-.038-.008.003c.009.03.009.03-.022.002-.036-.032-.042-.048-.012-.03q.022.014-.001-.013c-.011-.014-.037-.023-.057-.021q-.037.005-.029-.016.008-.02-.026-.014c-.03.006-.032.003-.013-.019q.022-.027.001-.014c-.03.018-.084.026-.075.011.004-.007-.002-.022-.015-.032s-.02-.025-.015-.032.001-.017-.007-.022-.02-.001-.026.009q-.011.018.009.006.02-.013.009.005c-.014.023-.017.023-.043-.008-.018-.023-.018-.024.001-.013q.022.013.011-.005c-.006-.01-.027-.015-.047-.012-.03.005-.035 0-.032-.03q.004-.037-.016-.029c-.011.004-.032-.008-.045-.028s-.025-.028-.025-.018-.01.021-.021.026q-.022.01-.017-.028c.004-.037-.026-.043-.075-.013q-.017.009.004-.018.02-.025.005-.018c-.01.006-.026-.001-.036-.017q-.023-.038-.008.003c.009.03.009.03-.022.002-.036-.032-.042-.048-.012-.03q.023.014-.001-.013c-.011-.014-.037-.023-.057-.021q-.037.005-.029-.016.008-.02-.026-.014c-.03.006-.032.003-.013-.019q.022-.026.001-.014c-.03.018-.084.026-.075.011.004-.007-.002-.022-.015-.032s-.02-.025-.015-.032q.006-.012-.007-.022c-.013-.01-.02-.001-.026.009q-.011.018.009.006.021-.013.009.006c-.009.014-.017.015-.034.001-.024-.02-.03-.037-.009-.024q.012.005.013-.014-.001-.019-.013-.014c-.036.022-.073.019-.064-.005q.012-.026-.013-.012c-.019.011-.019.01 0-.013s.019-.026-.002-.018c-.015.006-.034-.005-.049-.027q-.023-.031-.025-.018-.004.019-.021.026-.022.01-.017-.029.002-.035-.014-.034t-.013-.019q.005-.024-.016-.006c-.028.022-.074.02-.065-.003q.005-.017-.013-.02c-.054-.004-.152-.049-.11-.05q.018-.002.02-.016c.002-.014-.018-.013-.039-.009q-.036.006-.03-.008.01-.012.023-.007.017.007.023-.007.006-.013-.022-.009c-.028.004-.047-.007-.067-.022s-.045-.025-.055-.021q-.018.005-.02-.01.002-.015.018-.017.016-.001.008-.01c-.008-.009-.019-.003-.03.007-.014.012-.028.01-.05-.005-.016-.012-.035-.018-.042-.014s-.01-.009-.008-.029c.004-.038-.029-.051-.063-.024q-.016.012-.017-.009.002-.02.017-.012.013.007-.004-.016c-.012-.014-.028-.022-.036-.017-.018.011-.06-.043-.048-.063q.006-.012-.01-.003c-.014.009-.014.017.002.036.017.021.014.021-.02-.001-.022-.014-.047-.021-.054-.014s-.004-.002.009-.019q.028-.036.001-.017-.025.017-.011-.016.009-.026.001-.019c-.006.006-.026.002-.044-.008a.2.2 0 0 0-.055-.022.06.06 0 0 1-.034-.023q-.016-.029-.103-.034c-.019-.001-.031-.008-.026-.015a.02.02 0 0 1 .021-.004c.007.005.018.002.023-.007s-.008-.012-.03-.008-.039 0-.039-.009q.001-.015.018-.016.016 0 .008-.01c-.008-.01-.019-.003-.03.006q-.019.018-.05-.005c-.016-.012-.035-.018-.042-.014s-.01-.009-.008-.029c.004-.038-.029-.051-.063-.024q-.016.012-.017-.009.002-.02.017-.012c.009.006.007-.002-.004-.016-.012-.014-.028-.022-.036-.017-.019.012-.06-.043-.047-.064q.006-.013-.013.002c-.036.028-.081.022-.057-.007q.024-.028-.003-.01-.025.016-.012-.013.008-.024-.003-.019-.017.006-.043-.014-.03-.02-.048-.007-.018.015-.03-.004-.012-.02.01-.006.018.009-.008-.021c-.036-.041-.042-.042-.031-.007q.014.039-.009 0c-.01-.015-.026-.023-.036-.016q-.015.008.005-.018t.004-.018c-.049.029-.079.024-.075-.013q.006-.039-.02-.027-.023.009-.013-.008.009-.017-.004-.026c-.013-.009-.02-.001-.026.009q-.011.018.009.006.021-.013.009.006c-.009.014-.017.014-.033.001-.012-.01-.028-.014-.036-.009s-.013-.008-.011-.029-.003-.037-.013-.035q-.015.002-.013-.018.002-.018-.012-.01c-.014.008-.026.004-.036-.003q-.015-.01.01.014c.025.024.022.027.013.027a.04.04 0 0 1-.026-.016c-.005-.009-.016-.012-.023-.008q-.011.004-.009-.031c.005-.045.003-.047-.027-.017-.019.019-.025.017-.043-.012s-.018-.031.002-.014c.019.016.023.015.023-.002 0-.021-.04-.022-.072-.002-.008.005-.012-.008-.01-.028.002-.021-.004-.037-.015-.037q-.017.002-.011.023.01.024-.025-.006c-.037-.032-.044-.046-.014-.028q.02.013-.002-.015c-.019-.023-.049-.024-.049-.001q.002.006.018-.003.017-.01.007.007c-.006.01-.018.014-.026.009s-.011-.015-.007-.022-.003-.022-.016-.032c-.02-.017-.022-.015-.014.01q.015.042-.008.002c-.01-.015-.026-.023-.036-.016q-.015.007.005-.018.02-.026.004-.018c-.049.029-.079.024-.075-.013q.005-.037-.017-.028-.021.009-.012-.017.018-.046-.021-.002m.918.59c0 .023-.024.012-.043-.02-.018-.029-.017-.03.012-.012.017.011.032.025.032.032m.266.158c0 .004.016.017.036.03.031.02.036.02.036.002q0-.02-.007-.015-.011.006-.036-.008c-.016-.009-.029-.013-.029-.009m.336.209c.017.01.026.023.019.03q-.013.01-.025-.008t-.019-.016q-.011.002-.037-.014l-.031-.018.031.004a.2.2 0 0 1 .062.022m.289.182c0 .004.016.017.036.03.031.02.036.02.036.002q0-.02-.007-.015-.011.006-.036-.008c-.016-.009-.029-.013-.029-.009m.29.181q-.01.015-.005.018c.029.007.08.014.074.01l-.033-.025q-.026-.02-.036-.003m.936.608c-.003.003-.016-.002-.027-.012s-.025-.014-.029-.01q-.007.005-.008-.014c0-.018.007-.017.035.004.019.014.032.029.029.032m-14.215.957c-.033.035-.051.058-.039.051s.005.008-.014.033a2 2 0 0 0-.2.308c-.005.015-.016.027-.024.027s-.014.011-.014.024-.018.05-.039.082-.039.066-.039.076-.014.045-.03.078a4 4 0 0 0-.29.887l-.033.228c-.075.504-.009 1.17.167 1.687.056.165.15.391.171.412a.06.06 0 0 1 .016.036c0 .011.018.048.039.082s.039.069.039.077.016.039.035.069l.062.098.047.075q.11.168.134.197l.092.116c.183.233.565.604.706.686.016.009.071.047.123.083s.101.066.109.066.024.011.035.024.045.037.076.053l.165.085a3.86 3.86 0 0 0 2.87.266c.066-.021.128-.038.137-.038a.5.5 0 0 0 .097-.039c.044-.022.091-.039.103-.039s.055-.017.095-.037l.19-.096a2.4 2.4 0 0 0 .331-.187 4 4 0 0 0 .368-.266c.036-.026.431-.417.522-.516.016-.017.029-.04.029-.05s.009-.024.021-.031a2 2 0 0 0 .236-.332 5 5 0 0 0 .244-.454c.115-.239.272-.787.29-1.016l.022-.219c.028-.244.011-.699-.031-.856q-.012-.048.001-.042c.023.014.017-.014-.011-.053q-.025-.037-.042-.02-.016.017-.063-.017c-.026-.018-.043-.027-.038-.018.005.008-.006.016-.024.017q-.03 0-.015-.006c.042-.016.016-.033-.044-.03-.035.002-.067-.003-.073-.012q-.009-.014.011-.003.02.012.01-.004c-.01-.017-.057-.014-.087.004-.008.005-.019.002-.024-.007s-.024-.024-.042-.033q-.03-.015-.022-.002c.012.02-.027.015-.055-.008a.1.1 0 0 0-.055-.011c-.019.003-.039-.002-.045-.012q-.011-.018.009-.005.02.011.01-.004c-.01-.017-.057-.014-.087.004-.008.005-.019.002-.024-.007a.1.1 0 0 0-.042-.033q-.03-.015-.022-.001c.012.019-.031.015-.049-.004q-.01-.011.01-.001.022.013.011-.005c-.006-.01-.028-.015-.048-.011s-.045-.002-.054-.013-.041-.018-.071-.016-.059-.004-.065-.013q-.008-.014.007-.006c.015.008.02.005.025-.002s-.012-.012-.037-.012-.041.005-.038.011c.009.015-.037.006-.052-.01q-.01-.011.01-.001.022.013.011-.005c-.006-.01-.026-.015-.045-.012a.1.1 0 0 1-.056-.011c-.028-.022-.068-.028-.055-.007q.008.015-.022-.002c-.018-.009-.037-.024-.042-.033s-.016-.012-.024-.007c-.03.018-.077.02-.087.004q-.01-.017.01-.004.02.012.009-.005c-.006-.01-.026-.015-.045-.012a.1.1 0 0 1-.056-.011c-.028-.022-.068-.028-.055-.008q.008.014-.022-.001a.1.1 0 0 1-.042-.033c-.005-.009-.016-.012-.024-.007-.03.018-.077.02-.087.004q-.01-.017.01-.004.019.011.011-.003c-.005-.009-.038-.014-.073-.012-.06.004-.085-.013-.044-.03q.015-.007-.015-.006c-.03.001-.03.009-.024.017s-.012 0-.038-.018c-.035-.025-.052-.029-.065-.016s-.025.012-.045-.006a.14.14 0 0 0-.086-.02c-.057.003-.079-.014-.039-.029q.015-.007-.015-.006c-.03.001-.03.009-.024.017s-.012 0-.039-.019c-.029-.021-.052-.028-.058-.019-.011.018-.064.013-.082-.007q-.01-.011.01-.001.02.012.012-.003c-.005-.009-.038-.014-.073-.012-.06.004-.085-.013-.044-.03q.015-.007-.015-.006c-.019.001-.03.009-.025.017s-.012 0-.038-.018c-.035-.025-.052-.029-.065-.016s-.025.012-.045-.006a.14.14 0 0 0-.086-.02c-.057.003-.079-.014-.039-.029q.015-.007-.014-.006c-.019.001-.03.009-.025.017s-.012 0-.038-.018-.052-.029-.058-.024c-.015.015-.103.017-.094.001.004-.007.016-.008.025-.003q.015.008.007-.005c-.008-.013-.038-.014-.073-.012-.06.004-.085-.013-.044-.03q.015-.007-.015-.006c-.019.001-.03.009-.025.018s0 .008-.011-.002-.029-.015-.04-.011a.03.03 0 0 1-.032-.011q-.012-.019.009-.006.02.011.01-.004c-.006-.009-.024-.014-.042-.01l-.063.014q-.029.005-.022-.008c.005-.008.017-.01.026-.005s.012.003.007-.006c-.006-.009-.035-.015-.066-.013q-.056.005-.049-.015.008-.019-.054-.015c-.034.002-.066-.004-.071-.013q-.01-.016.01-.004.02.011.01-.004c-.006-.009-.024-.014-.042-.01l-.063.014q-.029.005-.022-.008c.005-.008.017-.01.026-.005s.012.003.007-.006c-.006-.009-.035-.015-.066-.013q-.056.004-.049-.015.008-.019-.054-.015c-.034.002-.066-.004-.071-.013q-.01-.016.01-.004t.01-.004c-.006-.009-.024-.014-.041-.01l-.063.014q-.029.005-.022-.008c.005-.008.017-.01.026-.005q.016.008.007-.006c-.006-.009-.035-.015-.066-.013q-.056.005-.048-.015.008-.019-.054-.015c-.033.002-.066-.004-.071-.013q-.01-.016.01-.004.02.011.01-.004c-.006-.009-.024-.014-.041-.01l-.063.014q-.029.005-.022-.008c.005-.008.017-.01.026-.005q.016.008.007-.006c-.006-.009-.035-.015-.066-.013q-.056.004-.048-.015t-.054-.015c-.034.002-.066-.004-.071-.013q-.01-.016.01-.004t.01-.004c-.006-.009-.024-.014-.042-.01l-.063.014q-.029.005-.022-.008c.005-.008.017-.01.026-.005s.013.003.007-.005-.035-.014-.066-.012q-.058.005-.049-.016.008-.02-.042-.017c-.027.002-.064-.004-.081-.013s-.038-.014-.047-.012q-.081.026-.056-.004c.014-.016.006-.02-.039-.017q-.057.005-.048-.016.008-.02-.042-.016a.16.16 0 0 1-.084-.018c-.02-.012-.038-.015-.043-.006s-.022.013-.039.012q-.031-.003-.015-.02.018-.019-.041-.014-.057.005-.048-.016.008-.02-.042-.016c-.027.002-.064-.006-.083-.017s-.038-.016-.043-.01c-.019.019-.072.016-.056-.004.011-.014.001-.017-.04-.015q-.057.005-.048-.016.008-.02-.042-.016c-.027.002-.064-.006-.083-.017s-.038-.016-.043-.01c-.019.019-.072.016-.056-.004.011-.014.001-.017-.04-.015q-.056.004-.048-.015.008-.02-.061-.016c-.051.002-.065-.002-.053-.016q.018-.019-.02-.014c-.019.002-.035.005-.035.006s-.016.004-.035.006q-.037.005-.02-.015c.011-.014.001-.018-.04-.016q-.055.002-.048-.015t-.062-.015c-.051.002-.065-.002-.053-.016q.018-.019-.02-.014c-.019.002-.035.005-.035.006s-.016.004-.035.006q-.037.005-.02-.015c.011-.014.001-.018-.04-.016q-.055.002-.049-.015.007-.018-.062-.015c-.049.002-.064-.003-.054-.015q.015-.018-.015-.018c-.016 0-.027.004-.023.01q.003.009-.016.01c-.019.001-.018-.006-.014-.013.024-.04-.042-.003-.093.052m16.647.548.039.031c.026.022.033.023.033.004q0-.02-.012-.015t-.022-.008a.04.04 0 0 0-.027-.016q-.015 0-.011.004m.625.391.039.031c.027.022.033.023.033.004q0-.021-.012-.015c-.012.006-.016 0-.022-.008a.04.04 0 0 0-.027-.016q-.015 0-.011.004m.592.39q0 .01-.015.012-.015-.002-.016-.017-.001-.014-.016-.007c-.015.007-.014.001-.012-.011q.003-.02-.027-.016-.035.006-.009-.01c.022-.015.093.022.094.049m.321.183q-.01.015-.005.018c.029.007.08.014.074.01l-.033-.025q-.026-.02-.036-.003m.32.214c0 .004-.013 0-.029-.009s-.032-.012-.036-.008-.007-.003-.007-.015c0-.019.006-.018.036.002.02.013.036.027.036.03m.266.158c0 .007.013.02.029.03q.031.021.029-.003-.001-.02-.013-.013-.012.006-.013-.008c-.001-.014-.007-.017-.016-.017s-.016.005-.016.012" fill="#f54453"/><path d="M25.602 9.798a2.3 2.3 0 0 0-.441.118c-.045.02-.082.033-.082.029s-.028.011-.062.032a.4.4 0 0 1-.07.039c-.108 0-.618.509-.618.616q-.001.027-.01.02c-.016-.016-.056.05-.043.07q.009.015-.003.01c-.02-.012-.069.095-.049.108q.014.008.006-.007a.02.02 0 0 1 .007-.028q.017-.01.011.018c-.003.016-.017.027-.031.025-.033-.006-.049.054-.018.066.013.005.028.006.035.001.007-.004.01.009.008.03-.004.038.026.044.075.014q.017-.009-.004.018-.02.025-.005.018c.01-.006.026.001.036.016q.023.04.008-.002c-.008-.025-.006-.026.014-.01.013.011.02.025.016.032s-.001.017.007.022.02.001.026-.009q.011-.018-.009-.006-.021.013-.009-.006c.009-.014.017-.014.034 0 .025.021.03.037.006.022-.027-.017-.017 0 .018.03q.035.03.025.006-.006-.021.011-.023c.011 0 .018.016.015.037s.002.033.01.028c.032-.02.072-.019.072.002q.002.027-.023.002c-.02-.017-.021-.015-.002.014.018.029.024.03.043.012.029-.029.032-.028.027.017-.002.022.002.035.009.031s.018-.001.023.008a.04.04 0 0 0 .026.016c.009 0 .003-.012-.013-.027s-.021-.021-.01-.014.027.008.036.003q.015-.008.012.01c-.003.018.004.019.013.018.01-.002.015.014.013.035s.002.034.011.029.025-.001.036.009c.016.013.024.013.033-.001q.012-.019-.009-.006t-.009-.006c.006-.01.018-.014.026-.009s.01.017.004.026q-.01.017.013.008.026-.012.02.027c-.004.037.026.042.075.013q.017-.009-.004.018-.02.025-.005.018c.01-.006.026.001.036.016q.023.04.008-.002-.014-.036.014-.01c.013.011.02.025.016.032s-.001.017.007.022.019.002.024-.007q.01-.015.045.008c.02.013.041.018.047.012q.009-.008 0 .018-.014.033.011.016.027-.018.003.01c-.024.03.021.035.057.007q.02-.014.013-.002c-.012.021.028.076.047.064.008-.005.024.003.036.017q.018.023.004.016-.015-.008-.017.012 0 .021.017.009c.034-.026.067-.014.063.024-.002.02.001.033.008.029s.025.002.042.014c.021.015.035.017.05.005.011-.009.024-.012.03-.006s.002.01-.008.01q-.017.001-.018.016c-.001.015.018.013.039.009q.036-.006.03.008a.02.02 0 0 1-.023.007.02.02 0 0 0-.021.004c-.004.007.008.014.026.015q.087.004.103.034a.06.06 0 0 0 .034.023.2.2 0 0 1 .055.022c.018.01.038.013.044.008s.006.003-.001.019q-.014.033.011.016.027-.018-.001.017-.02.027-.009.019c.011-.008.032 0 .054.014.034.022.037.023.02.001-.016-.019-.016-.027-.002-.036q.016-.009.01.003c-.012.02.03.074.048.063.008-.005.024.003.036.017s.014.022.004.016q-.015-.008-.017.012 0 .021.017.009c.034-.026.067-.014.063.024-.002.02.001.033.008.029s.025.002.042.014q.03.024.05.005c.011-.009.024-.012.03-.007s.002.01-.008.01q-.017.002-.018.017.002.015.02.01c.018-.005.036.006.055.021s.05.025.067.022.027.001.022.009a.02.02 0 0 1-.023.007c-.007-.005-.018-.002-.023.007s.008.012.03.008.039 0 .039.009q-.002.015-.02.016c-.042.001.056.045.11.05q.018.003.013.02c-.009.023.038.025.065.003q.022-.018.016.006c-.003.012.003.021.013.019s.016.012.014.034q-.005.038.017.029c.012-.004.021-.016.021-.026s.011-.001.025.018q.024.034.049.027c.021-.008.021-.006.002.018q-.028.033 0 .013.024-.016.013.012c-.009.024.029.027.064.005q.012-.005.013.014-.002.02-.017.012c-.015-.008-.007.002.004.016.019.023.049.024.049.001q-.002-.006-.018.003-.017.01-.007-.007c.006-.01.018-.014.026-.009s.011.015.007.022.002.021.015.032.019.025.015.032c-.009.015.045.007.075-.011q.02-.012-.001.014c-.018.023-.017.025.013.019q.036-.007.026.015-.01.023.017.012.024-.009.015.008c-.006.009-.004.021.004.026s.02.001.026-.009q.011-.018-.009-.006-.021.013-.009-.006c.009-.014.017-.014.034 0 .027.023.029.036.003.02q-.015-.007.01.023c.036.041.042.042.031.007q-.013-.039.009 0c.01.016.026.023.036.017q.015-.008-.005.018t-.004.018c.049-.029.079-.024.075.013q-.005.037.017.028c.012-.004.021-.016.021-.026s.011-.001.025.018.034.032.045.028q.02-.008.016.029c-.003.03.002.035.032.03.02-.004.041.002.047.012q.01.017-.007.007c-.025-.016-.022-.001.004.021.017.014.025.014.034 0q.012-.019-.009-.006t-.009-.006c.006-.01.018-.014.026-.009s.011.015.007.022.002.021.015.032.019.025.015.032c-.009.015.045.007.075-.011q.02-.012-.001.014c-.018.023-.017.025.013.019q.036-.007.026.015-.01.023.017.012.024-.009.015.008c-.006.009-.004.021.004.026s.02.001.026-.009q.011-.018-.009-.006-.021.013-.009-.006c.009-.014.017-.014.034 0 .027.023.029.036.002.02q-.015-.007.01.023c.036.041.042.042.031.007q-.014-.039.009 0c.01.016.026.023.036.017q.015-.008-.005.018t-.004.018c.049-.03.079-.024.075.015-.005.044-.002.045.026.017.018-.018.026-.014.051.02.03.04.03.041-.002.013-.026-.022-.031-.023-.031-.005q0 .02.012.015t.022.009a.02.02 0 0 0 .026.006c.019-.012.061.042.049.062q-.007.012.009.003c.016-.009.014-.019.008-.027q-.01-.016.021.001c.017.009.037.012.044.005s.007-.002.001.009-.019.015-.028.009q-.015-.008-.006.006c.006.009.028.014.049.01.04-.007.054.016.019.03q-.023.008.001.009.018.003.011.016t.023.009c.019-.004.045.008.064.028.028.03.031.031.02.004-.011-.03-.011-.03.02 0 .017.017.028.037.023.046q-.006.012.017-.005c.019-.016.028-.016.037-.002q.012.019-.009.006t-.01.005c.006.01.021.013.034.009.028-.011.031.02.003.032q-.014.008.025.002c.039-.006.042-.003.024.02q-.017.024-.007.015c.007-.006.028-.003.046.006.029.015.03.014.014-.006-.016-.019-.015-.023.002-.023q.02.002.018.035c-.003.028.003.034.033.031.02-.002.045.007.056.021.018.023.017.023-.012.002q-.042-.033-.01.004c.012.015.028.023.036.018.018-.011.06.043.048.063q-.007.012.01.003c.01-.006.014-.018.008-.027q-.01-.016.021 0c.017.009.037.012.044.006s.003.002-.01.019c-.019.025-.019.028-.001.017q.025-.017.011.016-.009.025 0 .018c.006-.006.027-.001.047.012q.037.025.047.005.011-.018-.009-.005t-.009-.006c.012-.019.045-.009.035.011-.003.006.009.024.026.041.031.03.031.03.02 0-.01-.026-.008-.026.02.004.019.02.045.032.064.028q.029-.004.024.007c-.005.007 0 .017.011.021q.024.008 0 .009-.018.002-.02.017c-.002.015.017.013.039.009s.044.001.049.01q.008.015-.006.006c-.009-.006-.022-.002-.028.009s-.006.015.001.009.026-.004.043.005q.031.017.021.001a.02.02 0 0 1 .008-.027q.016-.009.009.003c-.012.02.03.074.049.062a.02.02 0 0 1 .026.006c.005.009.018.011.027.006q.015-.009.005.008c-.009.014-.018.014-.038-.002q-.034-.028-.006.005c.011.014.036.023.056.021.03-.003.036.003.033.031q-.002.033.018.035.026.002.002-.023c-.017-.02-.015-.021.014-.006.018.01.039.013.046.006q.01-.008-.007.016c-.018.023-.016.026.012.02.029-.006.052.011.058.043l.004.021c.001.005.012.002.024-.009.017-.014.025-.014.034 0q.01.018-.006.008c-.029-.018-.021-.003.016.028.033.028.033.028.023 0q-.017-.04.011-.002c.012.015.027.022.035.016s.003.002-.009.019q-.022.029-.003.019c.029-.018.084-.026.075-.011-.004.007.006.025.023.041.017.015.031.022.031.016s.01-.004.023.007.03.014.039.009q.015-.008.012.01t.013.018c.016 0 .016.014.013.034q-.005.038.016.029c.011-.004.032.008.045.028q.023.031.025.018.004-.019.021-.026.022-.01.017.028c-.004.037.026.043.075.013q.017-.009-.004.018-.02.025-.005.018c.01-.006.026.001.036.017.017.026.017.026.008-.002-.008-.025-.006-.026.014-.01.013.011.02.025.016.032-.012.019.028.043.065.04q.033-.003.026.017t.026.014c.03-.006.032-.003.013.019q-.022.027-.001.014c.03-.018.084-.026.075-.011-.004.007.002.022.015.032s.02.025.015.032-.001.017.007.022.02.001.026-.009q.011-.018-.009-.006-.021.013-.009-.006c.009-.014.017-.015.034 0 .026.022.029.036.004.021q-.017-.01-.007.007c.006.01.027.015.047.012.03-.005.035 0 .032.03q-.004.037.016.029c.011-.004.032.008.045.028s.025.028.025.018.01-.021.021-.026q.021-.009.017.027-.002.033.018.035c.017 0 .018-.005.002-.024-.011-.013.003-.009.029.01s.052.031.056.027.021.008.037.027q.029.032.006.021-.023-.012.006.02c.025.029.056.034.056.009q-.002-.006-.018.003-.018.011-.005-.009.014-.021-.008-.008-.02.012-.01-.005c.008-.013.019-.013.042.001.017.011.024.022.015.024-.034.011-.014.034.024.027.023-.004.036-.001.03.008a.02.02 0 0 1-.023.007.016.016 0 0 0-.021.005c-.011.017.07.015.098-.003q.02-.012.013 0c-.011.018.031.078.045.064.006-.006.028.004.049.02.021.017.045.027.052.022s.009.004.003.018q-.013.03.012.013.027-.018-.001.016c-.013.016-.016.025-.006.019.009-.006.03-.001.047.011.021.016.035.017.05.005.011-.009.024-.012.03-.006s.002.01-.008.01a.02.02 0 0 0-.018.017c0 .01.01.013.022.009.012-.005.032.003.043.017q.017.022.004.015-.015-.008-.017.012 0 .021.017.009c.028-.022.074-.016.054.008-.013.016-.008.018.024.013.022-.004.04 0 .04.009q-.002.015-.02.016c-.023.001.033.036.065.041a.06.06 0 0 1 .034.023.06.06 0 0 0 .038.023.1.1 0 0 1 .052.026c.014.012.035.019.046.015q.018-.005.02.01-.002.015-.018.017-.016.001-.008.01c.008.009.019.003.03-.007.014-.012.028-.01.05.005.016.012.035.018.042.014s.01.009.008.029c-.004.038.029.051.063.024q.016-.012.017.009-.002.02-.017.012c-.009-.006-.007.002.004.016.012.014.028.022.036.017.019-.012.06.043.047.064q-.006.013.013-.002c.036-.028.081-.022.057.007q-.024.028.003.01.025-.016.012.013-.008.024.003.019c.007-.004.026.002.043.014.022.016.035.017.053.004q.02-.015.012-.005c-.029.035.059.078.093.046q.04-.038-.008-.037-.031.001-.006-.014c.018-.011.018-.015 0-.022q-.025-.01-.001-.01.019-.002.009-.02a.2.2 0 0 1-.016-.051l-.015-.099c-.008-.052-.015-.065-.034-.058q-.027.011-.007-.011c.012-.014.008-.037-.013-.081-.016-.034-.03-.074-.03-.088s-.005-.03-.012-.032a.3.3 0 0 1-.066-.131q-.001-.02-.016-.022c-.015-.002-.016-.006-.016-.014 0-.1.034-.064-3.001-3.087-1.938-1.93-2.007-1.994-2.199-2.031a.4.4 0 0 1-.093-.038c-.166-.085-.608-.143-.84-.111m-.536 1.671c.011.017.025.032.032.032.023 0 .012-.024-.02-.043-.029-.018-.03-.017-.012.012m.375.195q.006-.005.007.015c0 .019-.006.018-.036-.002-.044-.029-.049-.044-.007-.021.016.009.032.012.036.008m.208.183c.017.01.034.016.037.014q.007-.002.019.016c.012.018.018.015.025.008.014-.014-.035-.046-.081-.052l-.031-.004zm.417.207q.006-.004.007.015c0 .019-.006.018-.036-.002-.044-.029-.049-.044-.007-.021.016.009.032.012.036.008m.293.192a.3.3 0 0 1-.074-.01q-.003-.002.005-.018.01-.017.036.003zm-10.616.014-.258.038a3.4 3.4 0 0 0-.615.146c-.033.014-.07.025-.082.025s-.058.018-.103.039a.5.5 0 0 1-.099.039 5 5 0 0 0-.455.228 3 3 0 0 0-.357.239c-.167.126-.23.181-.404.355-.209.209-.278.291-.256.305.018.011.007.019-.021.016-.005-.001-.023.014-.039.033s-.019.026-.007.015c.025-.022.069-.027.057-.007q-.005.012.014.013c.019.001.019-.004.016-.01q-.003-.009.023-.01.03 0 .015.018-.018.019.054.015.069-.002.062.015-.006.017.049.015c.041-.002.051.002.04.016q-.018.02.02.015c.019-.002.035-.005.035-.006s.016-.004.035-.006q.037-.005.02.014c-.011.014.002.018.053.016q.068-.002.062.015-.005.017.048.015c.041-.002.051.002.04.016q-.018.019.02.015c.019-.002.035-.005.035-.006s.016-.004.035-.006q.037-.005.02.014c-.011.014.002.018.053.016q.07-.003.061.016-.008.02.048.015.06-.005.04.015c-.016.02.037.023.056.004.005-.005.025-.001.043.01s.056.019.083.017q.05-.003.042.016-.009.02.048.016.06-.005.04.015c-.016.02.037.023.056.004.005-.005.025-.001.043.01s.056.019.083.017q.05-.003.042.016-.009.02.048.016.059-.005.041.014-.015.018.015.02c.017.001.034-.004.039-.012s.024-.006.043.006.057.02.084.018q.05-.003.042.016-.009.02.048.016c.044-.003.052 0 .039.017q-.025.03.056.004c.009-.003.03.003.047.012s.054.015.081.013q.05-.004.042.017-.01.02.049.016c.031-.002.061.003.066.012s.002.011-.007.005-.02-.005-.025.002c-.004.007.012.012.036.012s.041-.005.038-.011c-.009-.015.037-.006.052.01q.01.011-.01.001-.021-.012-.012.004c.006.009.038.015.071.013q.062-.005.054.015-.008.018.048.015c.031-.002.06.004.066.013q.009.014-.007.006c-.009-.006-.02-.005-.025.002-.004.007.012.012.036.012s.041-.005.038-.011c-.009-.015.037-.006.052.01q.01.011-.01.001-.021-.012-.012.004c.006.009.038.015.071.013q.062-.005.054.015-.008.018.048.015c.031-.002.06.004.066.013q.009.014-.007.006-.015-.009-.025.002c-.01.011.012.012.037.012s.041-.005.038-.011c-.009-.015.037-.006.052.01q.01.011-.01.001-.021-.012-.012.004c.006.009.038.015.071.013q.062-.004.054.015-.008.018.049.015c.031-.002.06.004.066.013q.008.014-.007.006c-.009-.006-.02-.005-.025.002-.004.007.012.012.037.012s.041-.005.038-.011c-.009-.015.037-.006.052.01q.01.011-.01.001-.021-.012-.012.004c.006.009.038.015.071.013q.062-.005.054.015-.008.018.049.015c.031-.002.06.004.066.013q.009.014-.007.006-.015-.009-.025.002c-.004.007.012.012.036.012s.041-.005.038-.011c-.009-.015.037-.006.052.01q.01.011-.01.001-.022-.014-.01.006a.026.026 0 0 0 .032.011c.011-.004.029.001.04.011q.017.015.011.002c-.006-.013.006-.017.025-.018q.03 0 .015.006c-.042.016-.016.033.044.03.035-.002.067.003.073.012s.002.011-.007.005-.021-.005-.025.003c-.009.015.078.014.094-.001.006-.006.032.005.058.024s.043.027.038.018.006-.016.025-.017.025.002.014.006c-.04.015-.018.032.039.029a.14.14 0 0 1 .086.02c.021.017.032.019.045.006s.03-.009.065.016c.026.019.043.027.038.018q-.005-.015.025-.017.03 0 .015.006c-.042.016-.016.033.044.03.035-.002.067.003.073.012q.008.015-.012.003-.018-.01-.01.001c.018.02.071.025.082.007.006-.009.029-.002.058.019.027.019.044.028.039.019s.006-.016.024-.017.025.002.015.006c-.042.016-.016.033.044.03.035-.002.067.003.073.012q.008.015-.012.003-.018-.01-.01.001c.018.02.071.025.082.007.006-.009.029-.002.058.019.027.019.044.028.039.019s.006-.016.024-.017q.03 0 .015.006c-.042.016-.016.033.044.03.035-.002.067.003.073.012q.009.014-.011.003t-.01.004c.01.016.057.014.087-.004.008-.005.019-.002.024.007a.1.1 0 0 0 .042.033q.03.015.022.001c-.012-.02.027-.015.055.008.012.009.037.014.056.011s.039.002.045.012q.011.018-.009.005t-.01.004c.01.017.057.014.087-.004.008-.005.019-.002.024.007s.024.024.042.033q.03.015.022.002c-.012-.02.027-.015.055.007.012.009.037.014.056.011s.039.002.045.012q.011.018-.009.005t-.01.004c.006.009.024.014.042.01l.063-.014q.029-.005.022.008c-.005.008-.017.01-.026.005s-.012-.003-.007.006c.006.009.035.015.065.013s.062.005.071.016.033.017.054.013.042.001.048.011q.011.018-.011.005-.018-.01-.01.001c.018.019.06.023.049.004q-.008-.014.022.001a.1.1 0 0 1 .042.033c.005.009.016.012.024.007.03-.018.077-.02.087-.004q.01.017-.01.004-.02-.012-.009.005c.006.01.026.015.045.012s.044.002.055.011c.028.022.068.028.055.008q-.008-.015.022.002c.018.009.037.024.042.033s.016.012.024.007c.03-.018.077-.02.087-.004q.01.017-.01.004-.019-.011-.011.003c.005.009.038.014.073.012.06-.004.085.013.044.03q-.015.007.015.006c.019-.001.03-.009.024-.017s.012 0 .039.019q.048.034.059.018.01-.018.033.002c.023.019.021-.019-.005-.096l-.015-.062a4 4 0 0 0-.175-.594 4 4 0 0 0-.564-.977c0-.005-.009-.019-.02-.03l-.145-.16c-.119-.132-.439-.428-.503-.464-.016-.01-.068-.046-.115-.081s-.106-.076-.132-.091l-.133-.079c-.376-.229-.863-.4-1.375-.486a6 6 0 0 0-.883-.029m11.419.53q0 .02.008.014c.004-.004.017 0 .029.01s.024.015.027.012-.01-.018-.029-.032c-.028-.021-.035-.022-.035-.004m2.534 1.554c.005.009.015.013.022.008q.011-.005.012.015c0 .019-.006.018-.033-.004l-.039-.031q-.005-.004.011-.004a.04.04 0 0 1 .027.016m.625.391c.005.009.015.013.022.008s.012.003.012.015c0 .019-.006.018-.033-.004l-.039-.031q-.005-.004.011-.004c.016 0 .022.007.027.016m.46.33q-.026.017.009.01.03-.004.027.016-.002.017.012.011.015-.008.016.007t.016.017c.026 0 .017-.022-.021-.05q-.036-.027-.058-.011m.485.26a.3.3 0 0 1-.074-.01q-.003-.003.005-.018.01-.016.036.003zm.178.154q0 .02.007.015.011-.006.036.008c.041.022.036.007-.007-.021-.031-.02-.036-.02-.036-.002m.37.195q.001.014.013.008.012-.005.013.013c0 .017-.006.017-.029.003-.031-.019-.038-.042-.013-.042q.015.001.016.017" fill="#fb676c"/><path d="M15.586.032c-.06.017-.139.038-.175.046s-.099.031-.141.049a4 4 0 0 0-.344.18c-.034.019-.071.045-.082.059s-.025.025-.031.025c-.022 0-1.075 1.036-1.497 1.473l-.039.038-.038.039c-.01.011-.975.976-2.145 2.144S8.968 6.214 8.968 6.222s-.007.013-.015.013c-.02 0-2.266 2.248-2.266 2.268q-.001.013-.013.007c-.015-.009-.065.045-.065.07q-.001.015-.013.008c-.015-.009-.065.045-.065.071q0 .016-.009.009c-.013-.013-.069.038-.059.054q.005.012-.009.013c-.009 0-.033.015-.052.034s-.024.028-.011.022q.019-.008-.007.013c-.033.027-.049.086-.024.089a.1.1 0 0 1 .059.019.04.04 0 0 0 .039-.003q.02-.016.046.004a.15.15 0 0 0 .081.016q.053-.004.047.015-.007.018.052.02c.11.003.17.028.067.028-.033 0-.058-.004-.054-.009s-.022-.008-.056-.006c-.044.003-.066-.003-.077-.022-.013-.022-.014-.021-.012.007.002.027.011.033.054.03a.14.14 0 0 1 .079.016q.027.02.047.004t.039 0c.014.012.03.008.058-.012.032-.024.043-.025.07-.009a.2.2 0 0 0 .095.017c.052-.002.063.003.063.027 0 .026-.002.027-.019.004-.014-.019-.02-.021-.027-.005q-.008.024-.024-.003-.018-.03-.014.008c.002.026.013.032.066.031.047 0 .062.005.059.022q-.007.025.016.005a.04.04 0 0 1 .043-.004q.022.013.06-.017t.057-.015c.01.009.024.01.032.004q.01-.009.002.007c-.008.016-.029.015-.05.011-.034-.006-.037-.004-.019.015q.021.024.032.004.012-.018.012.006-.001.03.014.002c.023-.036.151-.034.151.003 0 .026-.002.027-.018.004-.014-.02-.02-.021-.027-.005q-.008.024-.024-.003-.018-.03-.014.008c.002.027.013.031.074.03.039-.001.085.007.102.017s.045.017.062.014a.1.1 0 0 1 .047.005c.024.015.102.017.111.002.004-.007-.012-.009-.036-.005q-.045.008-.021-.007.022-.014-.058-.011c-.044.002-.076-.002-.072-.009s-.005-.009-.02-.004q-.035.012-.005-.008c.019-.014.016-.016-.017-.011-.022.004-.05.001-.06-.006-.012-.007.003-.011.036-.01a.14.14 0 0 1 .075.021c.014.014.027.014.052.001.036-.019.035-.019.08.009a.2.2 0 0 0 .083.018c.058-.003.07.007.049.04-.012.02-.014.02-.015-.001s-.002-.021-.016 0q-.015.023-.015.004a.02.02 0 0 0-.019-.02q-.021-.001.001.019c.011.011.045.02.077.02q.058.001.054.02-.006.022.025.004c.018-.009.035-.01.043-.001q.015.013.038 0c.025-.016.024-.017-.061-.021-.021-.001-.041-.012-.044-.025q-.01-.032.01 0c.015.021.018.021.032 0 .013-.019.015-.02.016-.001q.001.02.01.012c.009-.008.023-.003.038.005q.028.015.038-.001t.044.005a.16.16 0 0 0 .085.019c.058-.003.07.007.049.04-.012.02-.014.02-.015-.001s-.002-.021-.016 0q-.015.023-.015.004-.002-.018-.018-.02-.02 0 0 .021c.023.028.157.023.176-.006.012-.018.014-.018.014.002q-.001.028.014.003c.011-.017.015-.016.022.003q.011.025-.021.018c-.016-.003-.035.002-.041.011q-.008.015.006.007a.02.02 0 0 1 .027.006q.01.015.053-.015c.032-.023.048-.026.061-.013s.024.012.042-.003c.021-.017.024-.017.02.001-.004.016.012.021.06.02.06-.001.063 0 .039.025q-.026.025-.036.01c-.006-.009-.031-.018-.055-.019l-.08-.011c-.029-.007-.033-.004-.02.012.01.012.043.019.081.016q.067-.005.056.016c-.005.014.012.019.062.017.038-.001.082.006.096.017.021.015.034.014.067-.01.03-.021.045-.024.058-.012s.024.012.042-.003c.021-.017.024-.017.02.001-.004.016.015.021.074.021.069 0 .079.004.081.032q.005.037-.012.009-.015-.023-.097-.026a1 1 0 0 1-.119-.011q-.04-.011-.02.011c.01.012.048.019.096.017.057-.002.078.003.072.017q-.009.02.046.016a.15.15 0 0 1 .081.016q.027.02.046.004a.04.04 0 0 1 .039-.003c.028.018.058.024.126.025q.059.002.052.02-.008.02.047.015a.15.15 0 0 1 .081.016q.027.02.047.004.02-.017.042.002.022.018.032.002.014-.025-.028-.018-.01 0-.002-.015.01-.018.032.002c.016.014.027.014.043.001s.026-.012.04.004q.019.022.093.019c.065-.003.075.001.077.029q.004.034-.011.011c-.011-.018-.014-.018-.022 0q-.009.023-.01.002c-.002-.026-.027-.025-.037.001-.006.014.01.02.057.02.038 0 .063.006.062.016s.026.016.074.013c.042-.002.074.002.07.008-.008.013.11.013.123 0 .005-.005-.015-.008-.045-.006s-.051-.002-.047-.008c.004-.007-.017-.01-.046-.008s-.051-.001-.047-.007-.01-.009-.031-.007q-.04.005-.029-.019c.007-.019.011-.019.022-.002s.016.017.027 0 .015-.017.022.001q.01.021.064.019c.031-.002.052.002.048.009s.027.01.068.008c.066-.003.075.001.077.029q.004.034-.011.011c-.011-.018-.014-.018-.022 0q-.009.023-.01.002c-.002-.026-.027-.025-.037.001-.006.014.01.02.057.02.05 0 .063.005.06.023q-.003.022.039-.018c.024-.023.053-.038.065-.034q.02.004.029-.024.009-.032.034-.023.023.007.015-.002c-.012-.013.041-.072.065-.072.008 0 .011-.012.005-.026q-.01-.026.008-.015c.01.006.022.001.028-.013.005-.013.02-.024.032-.024s.019-.006.015-.013c-.009-.014.045-.065.069-.065a.02.02 0 0 0 .015-.015c0-.024.051-.078.065-.069q.012.005.013-.009c0-.022.058-.079.069-.067q.008.007.009-.009c0-.026.05-.081.065-.071q.012.006.013-.008c0-.028.051-.078.069-.068q.014.008.005-.003c-.015-.016.205-.242.236-.242q.02-.001.013-.01c-.015-.015.036-.068.065-.068q.02-.001.013-.01c-.014-.014.036-.068.063-.068q.019-.001.014-.013c-.012-.019.06-.083.076-.069q.011.01.003-.005c-.012-.022.057-.089.075-.073q.011.009.003-.005c-.012-.022.057-.089.075-.073q.011.01.004-.004c-.01-.018.177-.21.205-.21q.016-.002.018-.021.004-.027.031-.049c.017-.016.031-.022.031-.014s.014-.009.032-.037.038-.047.047-.042q.014.007.015-.012.004-.028.031-.05c.017-.016.031-.022.031-.014s.014-.01.032-.038c.018-.029.036-.048.042-.043.005.005.023-.012.038-.038s.036-.043.044-.038q.013.007.015-.009c0-.025.383-.405.408-.405q.017-.001.009-.01c-.015-.015.036-.068.065-.068q.02-.001.013-.01c-.014-.014.036-.068.063-.068q.02-.001.012-.016c-.008-.015.012-.028.038-.043s.048-.035.048-.044.018-.026.039-.038.039-.028.039-.037c0-.019.437-.455.438-.437 0 .007.011-.006.024-.03s.032-.043.044-.043.03-.018.041-.039.029-.039.039-.039.028-.018.039-.039c.012-.021.029-.039.038-.039.01 0 .03-.021.045-.047s.034-.043.042-.038.023-.009.033-.031.031-.044.046-.049.032-.022.038-.039a.07.07 0 0 1 .039-.039c.016-.005.034-.022.039-.038s.026-.036.048-.046c.021-.01.039-.027.039-.039s.018-.029.039-.039.039-.027.039-.039.018-.029.039-.039.039-.027.039-.039.018-.029.039-.039.039-.027.039-.039.018-.031.039-.042.039-.026.039-.032c0-.032 1.587-1.586 1.812-1.775 1.499-1.253 2.795-1.295 4.378-.141.091.066.171.121.179.121.022 0-3.398-3.416-3.518-3.514a1.9 1.9 0 0 0-.763-.378c-.225-.058-.709-.066-.893-.014m6.267 5.051c.012.03-.017.037-.03.007q-.008-.015-.005.012c.002.017-.004.03-.014.028q-.015-.001-.02.02l-.005.047c-.001.014-.012.02-.024.016q-.02-.006-.013.005c.005.007-.005.031-.022.052s-.026.043-.02.049c.014.014-.047.056-.066.044q-.012-.006.005.016c.021.026.011.066-.013.05-.008-.005-.011.006-.007.023l.014.062q.008.033-.018.021-.026-.011-.012.011t-.006.009q-.019-.013-.011.028.006.039-.011.036-.017-.001-.016.023.001.025-.02.018c-.027-.01-.028-.036-.002-.036q.02 0-.004-.017-.03-.02.005-.008.025.007.019-.006c-.005-.008.007-.032.027-.052.028-.028.032-.041.018-.054q-.029-.026-.046.058a.06.06 0 0 1-.024.034.06.06 0 0 0-.023.038.1.1 0 0 1-.026.052c-.012.014-.019.035-.016.046q.005.018-.008.02c-.009 0-.02-.009-.024-.02q-.008-.016-.005.012.002.031-.019.026-.027-.008-.003.019c.022.027.008.062-.018.046q-.016-.01-.004.01.016.022-.017.009c-.016-.006-.025-.006-.019-.001.006.006.002.026-.008.044a.2.2 0 0 0-.022.054c-.002.012-.016.031-.032.042s-.023.022-.016.022.005.015-.005.032-.023.028-.03.023c-.017-.011-.011.034.007.05q.011.01.001-.01-.014-.023.008-.009t.008-.008.008-.008q.02.011.01-.004c-.006-.009 0-.027.013-.04s.018-.026.012-.03-.002-.004.009-.001q.017.003.011-.01c-.005-.008.008-.033.029-.054.023-.023.031-.041.02-.045q-.016-.007-.006-.019.023-.024.035.036.008.035-.019.023-.026-.011-.012.011.012.02-.004.011c-.024-.015-.036.029-.015.053q.018.019.001.01c-.01-.005-.03.004-.045.021s-.023.031-.017.031-.003.018-.021.041-.028.047-.024.055q.006.011-.013.005c-.019-.006-.022.001-.023.012-.006.075-.034.124-.058.102-.017-.016-.017-.021.001-.031.012-.007.017-.024.012-.039q-.012-.034.01-.004t.01-.005q-.009-.028.009-.017t.007-.007c-.006-.01 0-.022.013-.028.03-.012.032-.031.003-.042q-.02-.007-.02.018c.001.014-.007.024-.019.022q-.018-.003-.012.011c.005.008.002.02-.008.025-.009.006-.013.021-.008.034q.009.024-.013.015-.024-.01-.016.022l.014.062c.004.017.001.028-.007.023-.024-.015-.035.024-.013.05.012.014.014.022.005.016-.019-.011-.08.03-.066.044.006.006-.004.028-.02.049-.017.021-.027.045-.022.052q.006.011-.013.005c-.012-.005-.023.002-.024.016l-.005.047q-.003.02-.02.02c-.009-.002-.015.011-.014.028q.003.026-.005.012c-.016-.035-.038-.02-.031.02.004.022.001.036-.007.031s-.022.007-.033.027-.017.036-.013.036-.002.014-.012.031-.023.026-.03.019-.002-.019.011-.027q.023-.015.003-.015-.017-.002.012-.032c.017-.018.027-.04.021-.049q-.01-.017.01-.005.021.014.008-.008c-.013-.022-.007-.017.008-.008q.021.014.008-.008-.012-.02.014-.04c.023-.017.023-.02.003-.028q-.022-.007-.02.01t-.017.015q-.017-.002-.011.012a.04.04 0 0 1-.002.036.1.1 0 0 0-.016.041c-.004.025-.038.05-.054.039-.006-.004-.008.011-.004.034q.008.042-.011.029-.017-.01-.008.006c.006.009-.002.024-.017.033q-.024.014-.008.017c.016.003.02.008.02.017s-.012.014-.027.012-.027.004-.027.014-.013.033-.028.051q-.027.032-.008.032.02 0-.003.015c-.012.008-.028.011-.035.007q-.01-.005-.004.015c.005.013-.006.033-.025.046q-.036.024-.013.032c.017.007.016.011-.002.024-.012.009-.029.012-.038.007q-.012-.007-.004.008a.02.02 0 0 1-.006.027c-.009.006-.013.02-.009.032s-.004.028-.018.037q-.023.015-.007.016.018.002.02.018c.002.016-.01.013-.023.008-.024-.009-.044.012-.05.051a.05.05 0 0 1-.021.033q-.02.011.004.02.02.006.025-.013l.005-.045c.001-.012.01-.018.018-.013s.011.002.004-.008q-.01-.018.014-.008c.022.008.022.012-.002.029-.023.017-.024.024-.006.046s.018.025-.001.021q-.02-.003-.017.017.005.024-.016.006c-.031-.025-.074-.019-.063.008q.01.024-.012.011t-.01.005c.006.01 0 .022-.014.028q-.031.01-.005.023c.025.016-.014.049-.039.034q-.012-.007-.004.008c.006.009.004.021-.005.026-.008.005-.011.019-.007.031.009.024-.045.061-.065.043q-.01-.008-.001.008c.008.014.019.015.041.004.035-.019.065-.069.05-.084q-.008-.009.018 0 .03.01.009.023c-.01.006-.014.02-.008.029q.008.016-.009.013-.018-.002-.021.019t-.028.019c-.015-.003-.027.003-.027.012s.009.016.02.017.007.008-.008.017-.023.024-.017.033q.009.016-.008.006-.019-.013-.011.029c.004.022.002.037-.004.034s-.022 0-.034.009c-.018.013-.019.017-.002.024q.023.008-.013.032c-.018.013-.03.032-.026.043.009.023-.037.026-.065.004q-.021-.018-.016.006.003.02-.017.017c-.019-.004-.019-.001-.001.021.019.023.018.029-.008.048-.016.012-.021.022-.011.022s.017.005.015.012.017.035.043.064.051.067.056.086.017.032.027.03q.016-.001.009.02t.015.023c.013 0 .028.011.033.024s.017.02.028.013q.017-.01.007.007-.008.017.013.028c.013.005.024.017.024.027s.022.03.049.046.045.032.04.037c-.01.01.026.052.044.052.019 0 .053.043.043.053q-.007.01.022.019c.029.009.04.026.05.046s.027.038.038.038.029.018.039.039.025.039.035.039c.023 0 .063.041.051.052q-.006.009.02.021c.038.014.07.046.058.058q-.006.01.02.02.038.017.072.051a.6.6 0 0 0 .114.095c.004 0 .029.019.055.042a.2.2 0 0 0 .072.046.1.1 0 0 1 .05.026 1.4 1.4 0 0 0 .347.153c.149.08.659.101.897.038.077-.021.161-.041.185-.046s.074-.024.109-.042a1 1 0 0 1 .082-.037.5.5 0 0 0 .082-.044l.074-.041c.045 0 .329-.251.437-.386.129-.162.148-.188.172-.242l.038-.075c.167-.27.232-.811.142-1.179-.05-.208-.18-.512-.236-.555a.3.3 0 0 1-.035-.055c-.033-.064-.164-.204-.565-.601l-.512-.511c-.095-.096-.179-.172-.186-.167s-.013 0-.013-.01-.032-.05-.07-.089-.07-.062-.07-.052c0 .018-.058-.03-.166-.139q-.038-.038-.028-.012m.017.048q-.002.019-.021.014-.021-.008-.012.016c.005.013.001.028-.008.034s-.013.017-.008.025q.006.013-.011.011c-.011-.002-.02.007-.019.022q.001.025-.019.018-.021-.01-.014.025.006.033-.011.022c-.017-.011-.014-.002-.008.015.005.014.004.024-.004.022s-.012.001-.011.006c.001.006-.011.025-.027.043s-.024.033-.018.033.003.01-.007.023-.026.019-.034.014-.004-.022.011-.038.022-.036.016-.045.005-.024.023-.033.03-.027.025-.038.011-.04.033-.064.043-.055.045-.069.019-.037.037-.052c.041-.033.041-.033.041-.005m-.355.565c-.01.012-.013.029-.007.038s.004.015-.005.012a.014.014 0 0 0-.018.011.2.2 0 0 1-.036.051c-.018.019-.028.035-.022.035s.007.007.002.016a.02.02 0 0 1-.025.006q-.013-.01.01-.038c.014-.016.022-.036.016-.044s.005-.024.023-.033.029-.027.025-.038c-.009-.024.02-.058.04-.046.008.005.006.018-.004.03m-.437.609q-.017.021-.007.023c.007 0 0 .014-.016.031-.015.017-.034.027-.041.023s-.009.01-.005.033c.004.024.001.037-.008.031q-.014-.006-.009.024.007.035-.016.025-.022-.008-.013.015.008.022-.012.019c-.011-.002-.021.002-.022.011s-.007.025-.014.037c-.008.012-.007.028.003.037q.016.016.034-.017c.01-.018.013-.033.007-.033s.011-.022.037-.049.044-.058.04-.069.007-.028.025-.038.028-.025.023-.033.002-.029.016-.044c.015-.016.02-.033.011-.038-.008-.005-.024.001-.034.014m-.289.592c-.013.02-.018.041-.012.049q.009.011-.005.003c-.034-.019-.078.029-.054.059.018.022.018.025-.001.021q-.022-.004-.018.026t-.008.013q-.012-.02-.033.004c-.011.012-.016.022-.011.022s-.001.016-.013.035a.1.1 0 0 0-.017.063c.004.023.001.025-.018.009-.031-.026-.066.006-.041.036.012.015.011.028-.003.048-.017.024-.022.024-.029.004-.005-.013-.003-.027.005-.032s.01-.019.006-.031c-.005-.012.009-.033.033-.049.023-.015.038-.036.034-.046s.014-.041.04-.068.043-.049.037-.049-.001-.016.009-.035.018-.04.017-.045q0-.009.024-.008c.015.001.027-.008.027-.021.001-.034.023-.064.04-.054.008.005.004.025-.009.044m-.351.557q-.002.014-.02.017-.021 0-.001.009.02.007-.012.038c-.017.017-.028.036-.024.043s-.007.013-.025.014c-.029.002-.03.001-.006-.017.015-.011.024-.026.022-.034-.005-.018.036-.085.053-.085q.011.001.012.016m-.221.257-.004.025c-.001.009-.012.023-.025.031-.021.013-.021.017 0 .03.013.008.016.016.007.016s-.025-.008-.035-.018q-.02-.022-.012.016c.004.021-.006.047-.024.065q-.029.03-.011.031.02 0-.003.015c-.013.008-.018.019-.012.025.015.015.072-.058.063-.082-.004-.01.008-.027.026-.036s.028-.025.023-.033.002-.029.016-.045q.025-.029.009-.039c-.009-.006-.018-.006-.019-.002m-.123.309c-.016.018-.027.038-.022.044s.001.016-.007.021c-.012.008-.013-.027 0-.054a.3.3 0 0 0 .013-.05q.004-.01.025-.002c.019.007.018.014-.007.041m-.015.148c0 .024.029.059.04.048.006-.006-.001-.022-.015-.036q-.023-.022-.025-.012M6.31 8.87a.3.3 0 0 0 .002.092q.003.007.025-.01c.019-.016.028-.016.047 0 .013.011.024.013.024.006q.002-.01.017.01c.014.019.018.02.025.002s.011-.018.022 0q.015.026.014-.002c0-.02.002-.021.015 0 .008.013.02.018.026.012.02-.02-.046-.058-.068-.039q-.02.016-.043-.003-.021-.017-.023-.009c-.002.008-.015.002-.032-.007-.019-.01-.029-.027-.024-.04.009-.022-.015-.032-.026-.011m.546.139c-.005.005-.004.019 0 .032.007.019.011.019.022.002q.014-.024.013-.001.001.018.016.02c.015.002.016-.005.016-.012 0-.016-.057-.051-.068-.04m.33.057c.034.022.004.043-.032.023-.019-.01-.034-.016-.034-.013s-.014-.002-.03-.011c-.026-.014-.022-.016.023-.014a.2.2 0 0 1 .073.015m.877.17c-.013.047-.008.054.033.053.024-.001.05-.008.057-.015s.006-.011-.003-.008-.031-.004-.051-.015-.036-.017-.036-.015m.689.141q0 .022.013-.001c.011-.017.015-.017.022.002.013.034-.003.043-.038.022-.032-.02-.039-.042-.014-.042q.015.002.016.02m.391.078q0 .019.015-.004c.013-.021.015-.021.016 0 0 .021.002.021.016 0s.017-.021.031 0q.014.02.016.01c0-.007.011-.005.024.006q.023.021.043.003.02-.017.047.004c.015.011.05.018.079.016.043-.003.052.002.054.03.002.03.001.03-.013.006-.009-.015-.024-.027-.034-.027q-.018 0 .004.015c.013.008.018.02.011.027q-.012.01-.026-.011c-.008-.013-.041-.024-.073-.026-.07-.003-.099-.009-.126-.026a.04.04 0 0 0-.039.003q-.02.016-.046-.004c-.03-.022-.036-.04-.012-.04q.015.002.016.02m.391.078q0 .02.015-.004c.013-.021.015-.021.016 0 0 .021.002.021.015 0 .008-.013.02-.018.026-.012.023.023-.045.056-.075.037-.031-.019-.037-.041-.012-.041q.015.002.016.02m.17.013-.006.031c-.005.026.101.035.125.011.006-.006-.005-.008-.025-.004a.08.08 0 0 1-.065-.019c-.016-.014-.029-.023-.029-.019" fill="#23b7fa"/><path d="M6.357 8.812c-.02.017-.031.031-.025.031s.004.015-.005.034q-.021.037.002.021.018-.01.01.004c-.008.014.006.014.029.012q.037-.004.028.012-.01.016.01.004.021-.013.009.006c-.009.014-.017.014-.034 0s-.027-.014-.044 0c-.025.021-.039.006-.032-.035q.003-.026-.014-.022a.03.03 0 0 0-.018.024q-.002.017-.012.018c-.016-.001-.066.049-.066.066q0 .012-.012.012a799 799 0 0 0-5.753 5.75c-.095.116-.196.262-.196.284a.3.3 0 0 1-.039.072c-.021.032-.039.066-.039.077s-.017.056-.037.102c-.127.283-.163.815-.079 1.144.04.158.154.455.18.471.008.005.014.021.014.036s.018.044.039.064.039.043.039.05.029.054.064.103c.05.07 9.502 9.528 13.616 13.625.74.737.926.906 1.049.951.016.006.055.027.087.047s.069.036.082.036.047.013.076.029a.5.5 0 0 0 .122.045l.202.05c.169.044.664.04.812-.006a2 2 0 0 1 .15-.041 2 2 0 0 0 .558-.278c.02-.019.043-.034.052-.034.016 0 6.189-6.161 6.217-6.205a4 4 0 0 1 .133-.181c.009-.01.016-.023.016-.029 0-.005.025-.064.056-.13.082-.175.079-.168.126-.346.037-.14.043-.196.044-.383a1.3 1.3 0 0 0-.053-.461 1.6 1.6 0 0 0-.135-.352.4.4 0 0 1-.038-.098q-.001-.018-.014-.019a.8.8 0 0 1-.134-.189.15.15 0 0 0-.051-.047c-.02-.01-.036-.027-.036-.036 0-.01-.029-.042-.064-.072l-.098-.087a.8.8 0 0 0-.196-.131c-.009 0-.022-.01-.028-.021-.017-.028-.284-.154-.303-.142q-.014.006-.015-.01 0-.017-.009-.01c-.009.007-.049-.005-.098-.023-.202-.071-.77-.071-.944 0-.023.01-.083.029-.133.044a.4.4 0 0 0-.098.037c-.01.014-.061.035-.102.043-.017.003-.034.013-.037.022s-.04.033-.083.055-.081.05-.086.062a.04.04 0 0 1-.032.023c-.013 0-.037.018-.054.039s-.036.039-.043.039-1.038 1.025-2.292 2.278-2.311 2.3-2.35 2.327a.44.44 0 0 1-.479.002c-.037-.026-2.619-2.597-5.737-5.714l-5.67-5.667-.026-.109a.42.42 0 0 1 .049-.343c.022-.034 1.336-1.358 2.92-2.942s2.88-2.887 2.88-2.895q.001-.013.013-.014c.02 0 .081-.057.071-.067-.005-.005.006-.013.024-.019s.032-.022.032-.035.004-.021.009-.016c.011.011.069-.045.069-.067q.002-.014.018-.005.018.011.006-.008c-.009-.014-.025-.007-.058.025-.027.026-.044.034-.041.021.004-.018-.01-.023-.06-.023-.046 0-.062-.005-.057-.02.01-.026.036-.026.036-.001q0 .021.014-.002c.011-.018.015-.018.022 0q.006.017.007-.011c-.001-.029-.01-.032-.076-.029-.041.002-.072-.002-.068-.008s-.018-.01-.048-.009q-.055.002-.064-.019c-.007-.018-.011-.018-.022-.001s-.016.017-.027 0-.015-.017-.022.002q-.012.024.029.019c.021-.002.035.001.031.007s.017.009.047.007.051.002.046.008.017.01.047.008.05.001.045.006c-.013.013-.131.014-.123 0 .004-.006-.028-.01-.07-.008-.048.002-.076-.003-.074-.013s-.024-.017-.062-.016c-.046 0-.062-.005-.057-.02.01-.026.036-.026.036-.001q0 .021.014-.002c.011-.018.015-.018.022 0q.007.017.007-.011c-.001-.028-.01-.032-.076-.029q-.074.003-.093-.019c-.014-.017-.023-.018-.04-.004-.016.013-.027.013-.043-.001q-.022-.019-.032-.002-.009.015.002.012.012-.002.017.007.014.039-.02.012-.023-.021-.043-.003-.02.017-.047-.004a.15.15 0 0 0-.081-.016q-.053.004-.047-.015.007-.018-.052-.02c-.068-.002-.098-.008-.126-.025a.04.04 0 0 0-.039.003q-.02.016-.046-.004a.15.15 0 0 0-.081-.016q-.055.004-.046-.016c.005-.014-.015-.019-.072-.017-.048.001-.086-.006-.096-.017q-.02-.022.02-.011a1 1 0 0 0 .119.011q.082.003.097.026.016.03.012-.009c-.002-.028-.013-.032-.081-.032-.059 0-.078-.005-.074-.021.004-.018.001-.018-.02-.001q-.025.023-.042.003c-.017-.02-.028-.01-.058.012-.033.024-.046.025-.067.01-.014-.011-.058-.018-.096-.017-.05.002-.068-.003-.062-.017s-.01-.019-.056-.016c-.038.002-.071-.004-.081-.016-.013-.016-.009-.018.02-.012.02.005.056.01.08.011s.049.01.055.019q.011.016.036-.01c.024-.024.021-.026-.039-.025-.047.001-.063-.004-.06-.02.004-.018.001-.018-.02-.001q-.025.023-.042.003c-.017-.02-.029-.009-.061.013q-.042.03-.053.015a.02.02 0 0 0-.027-.006q-.015.008-.006-.007c.006-.009.024-.014.041-.011q.032.007.021-.018-.009-.028-.022-.003-.014.025-.014-.003.001-.03-.014-.002c-.018.029-.153.034-.176.006q-.018-.022 0-.021.016.002.018.02 0 .02.015-.004c.013-.021.015-.021.016 0 0 .02.002.02.015.001.021-.033.009-.043-.049-.04a.2.2 0 0 1-.085-.019q-.034-.022-.044-.005t-.038.001c-.016-.008-.033-.011-.038-.005s-.01 0-.01-.012q.002-.027-.016.001c-.014.021-.017.021-.032 0s-.016-.021-.01 0c.004.013.023.024.044.025.085.004.087.005.061.021q-.023.014-.038 0c-.009-.009-.026-.008-.043.001q-.031.017-.025-.004.004-.02-.054-.02c-.032 0-.067-.009-.077-.02q-.022-.02-.001-.019c.01 0 .019.009.019.02q0 .02.015-.004c.014-.021.015-.021.016 0 0 .02.002.02.015.001.021-.033.009-.042-.049-.04a.2.2 0 0 1-.086-.02c-.037-.024-.045-.024-.084-.003q-.025.012-.044-.005c-.01-.01-.044-.02-.075-.021-.033-.001-.048.003-.036.01.011.007.038.009.06.006.033-.005.036-.003.017.011q-.03.021.005.008c.015-.005.025-.003.02.004s.028.011.072.009q.08-.004.058.011-.023.015.021.007c.024-.004.04-.002.036.005-.009.015-.087.013-.111-.002-.009-.006-.03-.008-.047-.005s-.044-.003-.062-.014-.063-.018-.102-.017c-.061.001-.072-.003-.074-.03-.002-.026 0-.027.014-.008.013.018.018.019.024.003s.012-.015.027.005c.017.023.018.022.018-.004 0-.036-.128-.039-.151-.003q-.016.028-.014-.002 0-.024-.012-.006-.01.02-.032-.004c-.018-.019-.015-.021.019-.015.022.004.045-.001.05-.011s.005-.013-.002-.007-.021.005-.032-.004q-.019-.016-.057.015-.038.03-.06.017a.04.04 0 0 0-.043.004q-.023.02-.016-.005c.004-.016-.012-.022-.059-.022-.053 0-.064-.005-.066-.031q-.005-.039.014-.008c.013.018.018.019.024.003s.012-.014.027.005c.017.023.019.022.019-.004 0-.024-.011-.029-.063-.027a.2.2 0 0 1-.096-.018q-.034-.02-.049-.004a.03.03 0 0 1-.037.003c-.029-.018-.058-.024-.127-.026q-.059-.002-.052-.02.008-.02-.047-.015a.15.15 0 0 1-.081-.016q-.027-.02-.047-.004c-.02.016-.027.01-.045-.005-.014-.012-.028-.02-.031-.018-.044.032-.041-.048.003-.082q.027-.021.02-.023c-.007-.002-.027.013-.047.03m.174.145q-.001.011-.016.012-.015-.002-.016-.02 0-.02-.015.004c-.014.021-.015.021-.016 0 0-.02-.002-.021-.015 0-.008.013-.02.018-.026.012-.023-.023.045-.056.075-.037.015.01.028.023.028.029m.067.027q.018 0-.004-.015c-.013-.008-.018-.02-.011-.027s.018-.002.026.011.041.024.073.026a1 1 0 0 1 .09.011l.036.009q.004.003-.005.018-.01.017-.032-.002t-.042-.002c-.02.017-.028.01-.047-.004a.14.14 0 0 0-.079-.016c-.043.003-.052-.002-.054-.03-.002-.03-.001-.03.013-.006.009.015.024.027.034.027m.323.051q-.001.01-.016.012-.015-.002-.016-.02 0-.022-.013.001c-.011.017-.015.017-.022-.002-.005-.013-.005-.027 0-.032.01-.01.068.024.068.04m.165.017c.017.009.03.014.03.011s.015.003.034.013c.02.011.038.012.043.004.013-.021-.023-.04-.084-.042-.046-.002-.049 0-.023.014m1.061.2q.014-.004.003.008c-.011.012-.033.014-.057.015-.041.002-.046-.006-.033-.053.001-.002.017.004.036.015s.042.017.051.015m.57.104c0 .016.057.051.068.04.005-.005.004-.019 0-.032-.007-.019-.011-.019-.022-.002q-.014.024-.013.001-.001-.018-.016-.02c-.015-.002-.016.005-.016.012m.391.076c0 .024.055.05.074.034a.04.04 0 0 1 .039-.003c.027.017.056.023.126.026.033.002.066.013.073.026s.02.018.026.011c.007-.007.002-.019-.011-.027q-.021-.014-.004-.015c.01 0 .026.012.034.027.014.024.015.024.013-.006-.002-.027-.011-.033-.054-.03a.14.14 0 0 1-.079-.016q-.027-.02-.047-.004c-.02.016-.027.01-.043-.003-.013-.011-.024-.013-.024-.006s-.007.003-.016-.01c-.014-.021-.017-.021-.031 0s-.015.021-.016 0c0-.021-.002-.021-.016 0q-.015.023-.015.004-.001-.018-.016-.02c-.015-.002-.016.005-.016.01m.391.08c0 .007.013.02.028.029.03.019.098-.014.075-.037-.006-.006-.018-.001-.026.012-.013.02-.015.02-.015 0 0-.021-.002-.021-.016 0q-.015.024-.015.004-.001-.018-.016-.02-.015 0-.016.012m.296.059c.02-.004.031-.002.025.004-.024.024-.13.014-.125-.011l.006-.031c.001-.003.014.005.029.019a.1.1 0 0 0 .065.019" fill="#067afc"/><path d="M18.141 2.994a4 4 0 0 0-.548.131c-.448.146-.879.405-1.382.828-.194.163-.531.474-.456.421a.46.46 0 0 1 .411-.042c.086.033.155.098 1.261 1.203a67 67 0 0 0 1.184 1.169.014.014 0 0 1 .014.013c0 .017.235.252.252.252q.012.001.013.013c.001.012.165.179.367.382s.367.365.367.36c0-.004.033.026.074.067s.072.081.07.087.002.01.008.008c.018-.006.081.055.072.069q-.006.011.006.009c.02-.006.153.132.147.152q-.004.013.006.004c.01-.009.022.002.034.02s.03.027.039.021q.017-.01.008.015t.012.017q.02-.006.029.02.007.031.009.004c.001-.013-.022-.048-.051-.078s-.05-.059-.046-.066-.002-.012-.012-.012-.006-.01.01-.022c.026-.019.027-.025.008-.048-.018-.022-.018-.025.001-.021q.02.003.017-.017-.006-.024.016-.006c.028.022.074.019.065-.004-.004-.011.008-.03.026-.043q.036-.024.013-.032c-.017-.007-.016-.011.002-.024.012-.009.028-.013.034-.009s.008-.011.004-.034q-.008-.042.011-.029.017.01.008-.006c-.006-.009.002-.024.017-.033q.024-.015.008-.017-.018-.002-.02-.017c0-.009.012-.014.027-.012.015.003.028-.006.028-.019q.003-.02.021-.019.017.002.009-.013c-.006-.01-.002-.023.008-.029q.021-.011-.009-.023-.025-.009-.018 0c.015.015-.015.065-.05.084q-.031.018-.041-.004-.01-.018.001-.008c.019.018.074-.019.065-.043-.005-.012-.002-.026.007-.031.008-.005.01-.017.005-.026s-.004-.013.004-.008c.025.016.064-.017.039-.034-.017-.011-.016-.015.005-.023q.024-.011.014-.028t.01-.005q.022.014.012-.011c-.011-.027.032-.033.063-.008q.021.018.016-.006-.003-.02.017-.017c.019.004.019.001.001-.021-.019-.022-.018-.029.006-.046.024-.018.024-.021.002-.029q-.024-.009-.014.008.009.016-.004.008c-.008-.005-.017.001-.018.013l-.005.045c-.001.012-.013.018-.025.013q-.024-.008-.004-.02a.05.05 0 0 0 .021-.033c.006-.039.026-.06.05-.051q.021.006.023-.008c.002-.014-.009-.018-.02-.018q-.016-.001.007-.016c.015-.009.023-.025.018-.037s-.001-.026.009-.032a.02.02 0 0 0 .006-.027q-.009-.014.004-.008c.008.005.025.002.038-.007.018-.013.019-.017.002-.024q-.023-.008.013-.032c.019-.013.03-.033.025-.046q-.007-.02.004-.015c.007.004.022.001.035-.007q.023-.014.003-.015-.019 0 .008-.032a.1.1 0 0 0 .028-.051c0-.01.012-.017.027-.014s.027-.003.027-.012-.009-.017-.02-.017-.007-.008.008-.017.023-.024.017-.033q-.009-.016.008-.006.019.013.011-.029c-.004-.022-.002-.037.004-.034.017.01.051-.014.054-.039a.1.1 0 0 1 .016-.041c.007-.011.008-.027.002-.036s-.001-.014.011-.012.019-.004.017-.015q-.002-.017.02-.01c.021.008.02.012-.003.028q-.024.02-.014.04.014.021-.008.008t-.008.008c.013.022.007.017-.008.008q-.02-.012-.01.005c.006.01-.004.032-.021.049q-.03.03-.012.032.02 0-.003.015c-.013.008-.017.02-.011.027.011.011.041-.025.044-.053s.032-.067.044-.059c.008.005.011-.009.007-.031-.007-.04.015-.055.031-.02q.008.016.005-.012c-.003-.028.004-.03.014-.028q.015.001.02-.02l.005-.047c.001-.014.012-.021.024-.016q.02.006.013-.005c-.005-.008.005-.031.022-.052s.026-.043.02-.049c-.014-.014.047-.056.066-.044q.012.006-.005-.016c-.021-.026-.011-.066.013-.05.008.005.011-.006.007-.023l-.014-.062q-.008-.032.016-.022.023.009.013-.015c-.005-.013-.001-.028.008-.034s.013-.017.008-.025q-.007-.013.012-.011c.011.002.02-.007.019-.022q-.001-.025.02-.018c.029.011.027.031-.003.042-.014.005-.019.017-.013.028q.01.017-.007.007t-.009.017q.013.036-.01.005-.022-.031-.01.004c.005.015-.001.032-.012.039-.017.01-.018.015-.001.031.024.022.052-.027.058-.102q.003-.017.023-.012c.02.005.018.002.013-.005-.005-.008.006-.032.024-.055.018-.022.027-.041.021-.041s.001-.014.017-.031c.015-.017.036-.026.045-.021q.017.009-.001-.01c-.022-.023-.009-.067.015-.053q.016.009.004-.011-.014-.022.012-.011.027.012.019-.023-.012-.06-.034-.038c-.006.006-.001.019.012.028q.029.019-.004.008c-.015-.005-.026-.004-.024.002s-.005.026-.015.044-.014.038-.008.044q.008.01-.012.005t-.011 0c.009.005.001.017-.012.03s-.019.031-.013.04q.01.016-.01.004-.021-.014-.008.008c.013.022.007.017-.008.008q-.022-.014-.008.009.01.018-.001.01c-.018-.016-.024-.061-.007-.05.007.005.021-.006.03-.023s.011-.032.005-.032.001-.01.016-.022c.016-.012.03-.031.032-.042a.2.2 0 0 1 .022-.054c.01-.018.013-.038.008-.044s.003-.006.019.001q.032.013.017-.009-.012-.02.004-.01c.026.016.04-.02.018-.046q-.025-.027.003-.019.021.004.019-.026-.003-.026.005-.012c.005.011.016.02.024.02s.012-.009.008-.02.003-.031.016-.046a.1.1 0 0 0 .026-.052.07.07 0 0 1 .023-.038.06.06 0 0 0 .024-.034q.017-.083.046-.058c.014.013.01.026-.018.054-.02.02-.032.044-.027.052q.008.014-.019.006-.035-.013-.005.008.024.017.004.017c-.026 0-.025.026.002.036q.02.007.02-.018 0-.023.016-.023.018.002.011-.036-.008-.042.011-.028.019.012.006-.009-.014-.022.012-.011.027.012.018-.021l-.014-.062c-.004-.017-.001-.028.007-.023.024.015.035-.024.013-.05-.012-.014-.014-.022-.005-.016.019.011.08-.03.066-.044-.006-.006.004-.028.02-.049s.027-.045.022-.052q-.006-.012.013-.005c.012.005.023-.002.024-.016l.005-.047q.003-.02.02-.02c.009.002.015-.011.014-.028q-.003-.026.005-.012c.013.03.042.023.03-.007q-.01-.026.028.012c.123.123.166.157.166.133 0-.014-.016-.032-.035-.04s-.03-.015-.024-.015c.021-.002-.042-.064-.065-.064q-.02-.001-.012-.011c.012-.012-1.129-1.161-1.152-1.161-.008 0-.088-.054-.179-.121-.566-.412-1.127-.679-1.658-.788-.145-.03-.683-.054-.782-.035m3.688 2.143c-.019.015-.035.038-.037.052a.2.2 0 0 1-.045.069c-.023.024-.038.053-.033.064s-.007.028-.025.038-.028.025-.023.033-.002.029-.016.045-.02.033-.011.038c.008.005.024-.001.034-.014s.014-.023.007-.023.001-.015.018-.033.029-.037.027-.043q0-.009.011-.006c.011.003.009-.008.004-.022q-.01-.026.008-.015c.018.011.015-.001.011-.022q-.006-.034.014-.025.02.007.019-.018c-.001-.014.007-.024.019-.022s.017-.002.011-.011c-.005-.008-.002-.02.008-.025.009-.006.013-.021.008-.034q-.009-.023.012-.016.02.005.021-.014c0-.028 0-.028-.041.005m-.341.538a.04.04 0 0 0-.009.037c.004.011-.007.028-.025.038s-.028.025-.023.033-.002.029-.016.044c-.016.017-.02.033-.01.038q.016.007.025-.006.008-.015-.002-.016c-.006 0 .003-.016.022-.035a.2.2 0 0 0 .036-.051.014.014 0 0 1 .018-.011q.013.002.005-.012c-.008-.014-.002-.026.007-.038.021-.026-.003-.046-.027-.022m-.387.654c-.014.016-.022.036-.016.044s-.005.024-.023.033-.029.027-.025.038-.014.042-.04.069-.043.049-.037.049.002.015-.007.033q-.018.033-.034.017c-.009-.009-.01-.025-.003-.037a.1.1 0 0 0 .014-.037q.003-.014.022-.011.02.004.012-.019t.013-.015q.023.01.016-.025-.005-.03.009-.024c.009.006.012-.007.008-.031-.004-.022-.002-.037.005-.033s.025-.006.041-.023c.015-.017.022-.031.016-.031q-.01-.002.007-.023c.017-.021.026-.019.034-.014s.004.022-.011.038m-.33.534a.1.1 0 0 0-.013.043c0 .013-.012.022-.027.021s-.026.002-.024.008-.006.026-.017.045-.015.035-.009.035-.011.022-.037.049-.044.057-.04.068-.011.032-.034.046c-.024.015-.038.036-.033.049.005.012.002.026-.006.031s-.01.019-.005.032c.008.02.012.019.029-.004.015-.02.016-.033.003-.048-.025-.03.01-.062.041-.036.019.016.022.014.018-.009a.1.1 0 0 1 .017-.063c.012-.019.018-.035.013-.035q-.006-.002.011-.022.021-.024.033-.004.012.016.008-.013-.004-.031.018-.026c.019.004.019.001.001-.021-.024-.029.02-.078.054-.059q.014.007.005-.003c-.006-.007-.001-.029.012-.049s.017-.039.009-.044-.02 0-.027.011m-.38.61c-.012.019-.021.042-.018.05s-.007.024-.022.034c-.024.018-.024.019.006.017q.029-.003.025-.014c-.004-.006.007-.026.024-.043q.031-.031.012-.038-.02-.008.001-.009.018-.003.02-.017c0-.027-.023-.017-.046.02m-.165.278c-.014.016-.022.036-.016.045s-.005.024-.023.033-.03.026-.026.036c.009.023-.048.097-.063.082-.006-.006 0-.017.012-.025q.023-.015.003-.015-.018-.001.011-.031c.018-.018.028-.044.024-.065q-.008-.039.012-.016c.01.01.026.018.035.018q.013-.001-.007-.016c-.021-.014-.021-.017 0-.03.013-.008.024-.022.025-.031.004-.031.006-.034.022-.023q.016.01-.009.039m-.15.23a.3.3 0 0 1-.013.05c-.012.026-.012.061 0 .054q.012-.009.007-.021c-.004-.007.006-.027.022-.044.025-.027.026-.034.007-.041q-.022-.007-.025.002m-8.475.523-.156.16.16-.156c.088-.086.16-.158.16-.16 0-.011-.019.007-.164.156m-.422.422-.093.098.098-.093a1 1 0 0 0 .098-.098c0-.012-.015.002-.102.093" fill="#3c9af4"/></g></svg>