<svg width="32" height="32" viewBox="0 0 3.277 3.277" xmlns="http://www.w3.org/2000/svg" preserveAspectRatio="xMinYMin meet"><path d="M0 2.854c0 .234.189.423.423.423h2.431a.423.423 0 0 0 .423-.423V.423A.423.423 0 0 0 2.854 0H.423A.423.423 0 0 0 0 .423z" fill="#563D7C"/><path d="M1.359 1.449V.985h.408q.058 0 .113.01.054.01.096.035t.067.069.025.114q0 .125-.075.181t-.192.056zM.923.646V2.63h.961q.133 0 .26-.033t.225-.103.157-.179q.058-.11.058-.26 0-.186-.09-.318t-.274-.185q.133-.064.201-.164t.068-.25q0-.139-.046-.233T2.314.754t-.2-.082-.258-.025zm.436 1.645v-.545h.475q.142 0 .228.065t.086.218q0 .078-.026.128t-.071.079-.103.042-.122.012z" fill="#FFF"/></svg>