<svg xmlns="http://www.w3.org/2000/svg" aria-label="Docker" viewBox="0 0 32 32" width="32" height="32"><path fill="#fff" d="M.183 0h31.634A.183.183 0 0 1 32 .183v31.634a.183.183 0 0 1-.183.183H.183A.183.183 0 0 1 0 31.817V.183A.183.183 0 0 1 .183 0"/><path stroke="#066da5" stroke-width="2.375" d="M18.5 14.125h2.625m-5.75 0H18m-5.688 0h2.625m-5.688 0h2.563m-5.688 0h2.625m.5-2.875h2.563m.5 0h2.625m.438 0H18m-2.625-2.875H18"/><path fill="#066da5" d="M29.5 14.25s-1.125-1.063-3.438-.688c-.25-1.813-2.188-2.875-2.188-2.875s-1.813 2.188-.5 4.625c-.375.188-1 .438-1.938.438H4.25c-.313 1.188-.313 9.063 8.313 9.063 6.188 0 10.813-2.875 13-8.125 3.25.25 3.938-2.438 3.938-2.438"/></svg>