<svg viewBox="-0.003 0 1.603 1.012" xmlns="http://www.w3.org/2000/svg" width="32" height="20.16"><path d="M.077.515Q.071.508.062.505C.053.502.051.501.045.501L.028.504Q.02.508.013.514a.04.04 0 0 0-.01.015L0 .546q0 .01.003.017.004.009.01.015a.04.04 0 0 0 .032.013.04.04 0 0 0 .032-.013Q.083.572.087.563C.091.554.09.552.09.546S.089.534.087.529a.04.04 0 0 0-.01-.015M.613.41l.004.086H.615L.591.457.3 0H.211v.585h.068V.162L.276.082h.003a.2.2 0 0 0 .019.037l.3.466h.084V0H.614zm.53.109H.902V.318h.211V.256H.902V.062h.226V0H.832v.585h.31zM1.195 0v.062h.168v.523h.068V.062H1.6V0zM.527.73a.1.1 0 0 0-.045.03q-.02.021-.03.048a.1.1 0 0 0-.009.056.14.14 0 0 0 .035.096.12.12 0 0 0 .092.036A.15.15 0 0 0 .644.98V.95a.13.13 0 0 1-.07.018Q.554.969.535.961C.516.953.512.948.503.939A.1.1 0 0 1 .476.86.12.12 0 0 1 .505.777.1.1 0 0 1 .539.753.1.1 0 0 1 .58.745q.034 0 .064.016V.729A.2.2 0 0 0 .58.718a.14.14 0 0 0-.054.01M.845.82A.1.1 0 0 0 .778.793q-.02 0-.039.006C.72.805.716.811.706.82Q.692.835.685.855a.1.1 0 0 0-.006.041.1.1 0 0 0 .025.072.1.1 0 0 0 .031.022.1.1 0 0 0 .037.007Q.792.997.81.99C.828.983.833.977.842.968A.1.1 0 0 0 .868.894.1.1 0 0 0 .844.82M.821.951A.06.06 0 0 1 .775.97.06.06 0 0 1 .728.95.08.08 0 0 1 .711.896.1.1 0 0 1 .728.84L.749.825.775.82Q.788.819.8.825C.812.831.815.834.821.84a.1.1 0 0 1 .016.056.1.1 0 0 1-.016.055M.969.807a.06.06 0 0 0-.02.032V.801H.917v.193h.032V.896A.1.1 0 0 1 .962.845Q.967.836.976.832C.985.828.988.827.994.827a.04.04 0 0 1 .023.006V.801L.999.798a.05.05 0 0 0-.03.011m.236.079a.1.1 0 0 0-.02-.068q-.01-.012-.026-.019C1.143.794 1.138.795 1.127.795a.08.08 0 0 0-.064.028.1.1 0 0 0-.025.073.1.1 0 0 0 .023.074q.012.014.029.02a.1.1 0 0 0 .035.006.1.1 0 0 0 .067-.018V.949a.1.1 0 0 1-.06.022Q1.12.972 1.107.967C1.094.962 1.092.959 1.086.953A.07.07 0 0 1 1.07.904h.137zM1.07.879a.07.07 0 0 1 .019-.041.05.05 0 0 1 .037-.016q.01 0 .019.003a.03.03 0 0 1 .016.011.07.07 0 0 1 .013.041z" fill="#621ee5"/></svg>