<svg xmlns="http://www.w3.org/2000/svg" width="32" height="32" viewBox="0 0 32"><g fill-rule="evenodd" stroke-width=".08"><path d="M26.752 13.233a664 664 0 0 0-3.336 2.512l-.12.099v10.877l2.577-.001c1.669-.001 2.571-.012 2.558-.032-.011-.018.029-.031.095-.031.063 0 .114-.014.114-.032s.043-.032.096-.032.096-.014.096-.032.029-.032.064-.032.064-.014.064-.032.029-.032.064-.032.064-.014.064-.032.022-.032.05-.032.041-.014.03-.032.004-.032.032-.032c.067 0 .51-.452.565-.577.023-.052.053-.095.066-.095s.024-.029.024-.064.012-.064.027-.064.028-.018.03-.04.025-.098.052-.168c.053-.139.081-14.514.028-14.51-.013.001-1.471 1.088-3.24 2.415m-24.02-1.881c.025.041.212.18.212.157a.6.6 0 0 0-.117-.104c-.065-.049-.107-.073-.095-.053m1.684 1.267c0 .009.043.047.096.084s.096.061.096.052-.043-.047-.096-.084-.096-.061-.096-.052m1.388 1.037c.025.041.212.18.212.157a.6.6 0 0 0-.117-.104c-.065-.049-.107-.073-.095-.053m.256.192c.025.041.212.18.212.157a.6.6 0 0 0-.117-.104c-.065-.049-.107-.073-.095-.053m1.92 1.44c.025.041.212.18.212.157a.6.6 0 0 0-.117-.104c-.065-.049-.107-.073-.095-.053" fill="#4cac53"/><path d="M1.984 17.989c0 7.586-.001 7.547.135 7.547.014 0 .025.023.025.05 0 .113.543.75.639.75.018 0 .033.014.033.032s.022.032.048.032.048.014.048.032.029.032.064.032.064.014.064.032.029.032.064.032.064.014.064.032.035.032.078.032.087.014.098.032.061.032.112.032.101.014.112.032c.013.021.907.032 2.578.032h2.558V15.84l-.44-.327a17 17 0 0 1-.456-.346c-.009-.01-.066-.053-.128-.096s-.119-.086-.128-.096-.066-.054-.128-.097-.134-.096-.16-.117-1.078-.81-2.336-1.753-2.31-1.732-2.336-1.754-.098-.075-.16-.118-.119-.087-.128-.098-.084-.066-.168-.123l-.152-.103z" fill="#1c8ce4"/><path d="M26.608 5.312c-.011.018-.077.032-.146.032s-.126.014-.126.032-.022.032-.048.032c-.078 0-.304.077-.304.104 0 .013-.029.024-.064.024s-.064.014-.064.032-.029.032-.064.032-.064.014-.064.032-.029.032-.064.032-.064.014-.064.032-.019.032-.043.032-.088.043-.144.096-.116.096-.134.096-.07.036-.114.08-.092.08-.108.08c-.027 0-.217.147-.394.305-.049.043-.104.079-.123.079s-.075.043-.124.096-.107.096-.128.096-.079.043-.128.096-.107.096-.128.096-.079.043-.128.096-.107.096-.128.096-.079.043-.128.096-.099.096-.111.096-.043.021-.069.047-.072.066-.102.088c-.051.038-.054.318-.046 4.239l.008 4.199 3.342-2.503 3.343-2.502.002-1.595c.002-1.607-.023-1.983-.134-2.032-.013-.006-.024-.036-.024-.068 0-.071-.193-.45-.229-.45-.015 0-.027-.026-.027-.057s-.029-.078-.064-.103-.064-.063-.064-.084c0-.067-.515-.556-.586-.556-.022 0-.061-.029-.086-.064s-.069-.064-.096-.064-.071-.029-.096-.064-.072-.064-.103-.064-.057-.014-.057-.032-.036-.032-.08-.032-.08-.014-.08-.032-.028-.032-.062-.032-.071-.014-.082-.032-.061-.032-.112-.032-.101-.014-.112-.032-.076-.032-.144-.032-.133-.014-.144-.032c-.012-.019-.218-.032-.512-.032s-.5.013-.512.032" fill="#fbc32c"/><path d="M4.368 5.312c-.011.018-.076.032-.144.032s-.133.014-.144.032-.048.032-.082.032c-.071 0-.36.128-.376.166-.006.014-.046.026-.09.026-.045 0-.071.014-.059.032s-.01.032-.046.032-.066.014-.066.032-.024.032-.052.032-.076.025-.104.056-.091.076-.139.101-.079.057-.07.072.001.027-.019.027c-.045 0-.448.397-.448.441 0 .018-.013.038-.029.044-.062.023-.355.58-.355.675 0 .031-.013.056-.028.056-.022 0-.063.163-.081.325-.001.012-.013.032-.026.045s-.024.745-.024 1.627V10.8l.072.044a886 886 0 0 1 6.472 4.852l.16.134-.008-4.211-.008-4.211-.095-.088c-.052-.049-.11-.088-.128-.088s-.034-.011-.034-.024-.054-.06-.119-.104-.161-.12-.213-.168-.106-.088-.122-.088-.065-.036-.109-.08-.093-.08-.109-.08-.065-.036-.109-.08-.095-.08-.113-.08a.033.033 0 0 1-.033-.032c0-.018-.015-.032-.033-.032s-.065-.029-.104-.064a3 3 0 0 0-.399-.306c-.057-.033-.104-.072-.104-.085s-.022-.025-.048-.025-.048-.014-.048-.032-.016-.032-.036-.032-.06-.025-.088-.056-.091-.077-.14-.101c-.048-.025-.088-.057-.088-.072s-.029-.027-.064-.027-.064-.014-.064-.032S6.245 5.6 6.21 5.6s-.064-.014-.064-.032-.029-.032-.064-.032-.064-.014-.064-.032-.036-.032-.08-.032-.08-.014-.08-.032-.042-.032-.094-.032-.103-.014-.114-.032-.076-.032-.144-.032-.133-.014-.144-.032c-.012-.019-.213-.032-.496-.032s-.484.013-.496.032" fill="#c42b2b"/><path d="M8.672 11.532c-.001 4.568-.007 4.383.148 4.456.059.028.102.06.095.072-.017.029.066.101.09.077q.018-.015.019.018c0 .021.016.037.035.037.042 0 .21.128.169.129-.031.001.086.077.121.078.012 0 .048.031.08.068a.7.7 0 0 0 .179.124c.066.031.12.069.12.085s.022.028.05.028.041.014.03.032.01.032.046.032.066.012.066.027.036.046.079.069.071.054.062.069-.001.027.019.027.071.035.114.078a.8.8 0 0 0 .189.131c.061.029.12.08.13.114.011.033.046.061.078.061s.095.043.14.096c.044.053.1.096.123.097.055.001.186.111.186.156 0 .019.026.035.057.035s.078.029.103.064.061.064.08.064.081.043.138.095.154.119.216.148.105.06.097.069c-.025.025.068.104.123.104.028 0 .05.014.05.032s.022.032.05.032.043.011.035.024c-.017.029.043.084.107.098a.4.4 0 0 1 .135.104c.049.052.106.094.126.094s.075.04.123.088a.4.4 0 0 0 .126.097.3.3 0 0 1 .107.072c.037.035.081.063.096.063s.019.014.008.032.006.032.037.032.086.035.122.079c.036.043.084.083.108.088s.086.049.139.097.111.088.13.088.072.04.12.088.105.092.128.098.081.052.13.104.108.094.132.094.065.029.09.064.065.064.089.064.034.014.023.032-.001.032.022.032.082.043.132.095.1.092.112.088.058.018.101.049.066.056.05.056-.001.02.032.045.07.04.081.034.066.038.123.099.125.11.15.11.045.014.045.031.036.04.08.052.08.033.08.049.016.029.035.029.077.045.128.099.093.089.093.077.052.029.115.093.135.115.16.115.045.014.045.032.022.032.05.032.043.011.035.024.006.043.03.065.045.033.045.022.044.007.097.038c.079.047.108.05.16.018.035-.022.079-.039.099-.039s.064-.036.098-.079.112-.103.172-.132.102-.065.092-.081.006-.028.034-.028.043-.014.032-.032.003-.032.03-.032.095-.043.151-.096.117-.096.137-.096.056-.028.081-.062.055-.056.068-.048.031-.008.042-.036.034-.041.051-.03.032.005.032-.014.018-.034.04-.034.067-.036.1-.079.072-.072.086-.063c.015.009.042-.013.061-.049s.056-.065.082-.065.047-.014.047-.032.018-.032.04-.032c.051 0 .221-.145.197-.168-.01-.01.01-.027.045-.038a.5.5 0 0 0 .128-.075c.166-.141.2-.167.215-.167.008 0 .05-.03.093-.067s.082-.062.088-.057.068-.044.139-.111.168-.143.216-.168.088-.061.088-.079.014-.024.032-.013.032.004.032-.016.013-.028.029-.018.037-.004.047-.03a.08.08 0 0 1 .067-.048c.027 0 .049-.014.049-.032s.022-.032.05-.032.041-.014.03-.032 0-.032.025-.032.071-.029.103-.064.07-.064.085-.064.088-.058.163-.128.147-.128.161-.128.056-.029.094-.064.09-.064.116-.064.038-.01.026-.021.029-.055.091-.097.112-.09.112-.107.029-.031.064-.031.064-.012.064-.026.064-.066.142-.116.167-.117.197-.15.067-.06.083-.06.07-.043.121-.095q.091-.093.108-.056.015.031.018-.017c.001-.031.015-.056.03-.056a.3.3 0 0 0 .112-.078c.047-.043.085-.063.085-.045s.042-.011.093-.066.118-.099.149-.099.048-.009.037-.02c-.021-.021.145-.172.19-.172s.204-.149.181-.171c-.011-.011.003-.021.033-.021s.099-.043.154-.096.113-.096.129-.096.064-.035.106-.078.107-.087.143-.098.065-.035.065-.052.012-.024.026-.016.046-.012.071-.046.062-.062.082-.062.046-.022.057-.05.031-.043.046-.034.047-.012.071-.046c.025-.034.063-.062.086-.062s.041-.014.041-.032.022-.032.05-.032.041-.014.03-.032.001-.032.027-.032.056-.024.067-.053.029-.044.039-.034.05-.01.087-.045l.069-.064.009-4.166c.005-2.291.001-4.197-.008-4.235-.019-.079-.145-.07-.145.011 0 .025-.014.037-.032.026s-.032-.005-.032.014-.019.034-.043.034-.088.043-.144.096-.125.096-.154.096-.045.009-.034.02c.023.023-.115.139-.24.202-.048.024-.08.054-.073.067s-.049.057-.127.098-.134.086-.125.1-.003.025-.027.025-.06.029-.082.064-.058.064-.081.064c-.022 0-.061.029-.087.064s-.066.064-.09.064-.084.043-.133.095-.098.086-.109.075-.02-.001-.02.022-.009.033-.021.022-.047.01-.08.048-.059.056-.059.04-.022.004-.05.043-.079.071-.114.071-.055.014-.044.032-.001.032-.027.032-.055.022-.066.05-.033.042-.05.031-.045.007-.063.038-.033.045-.034.032-.043.015-.094.064c-.197.188-.299.264-.331.244q-.028-.016-.013.012c.015.028-.016.051-.059.074s-.079.054-.079.069-.019.027-.043.027-.088.043-.144.096-.116.096-.135.096c-.04 0-.143.096-.104.097.014 0-.031.027-.102.06s-.16.09-.199.127-.086.068-.104.068-.033.022-.033.05-.014.041-.03.031c-.017-.01-.046.01-.065.046s-.055.065-.079.065-.096.051-.16.113-.132.103-.152.091q-.032-.019-.013.015c.013.021.004.037-.02.037s-.064.029-.089.064-.066.064-.09.064-.084.043-.134.096-.107.096-.127.096c-.05 0-.131.083-.106.108.011.011-.004.02-.034.02-.029 0-.053.014-.053.032s-.018.032-.041.032c-.037 0-.141.078-.335.253-.04.036-.072.054-.073.042s-.016.003-.034.034-.044.05-.058.041-.079.034-.146.095-.136.101-.154.09q-.028-.015-.014.011c.021.034-.142.17-.203.17-.048 0-.129.084-.104.108.011.011-.004.02-.034.02-.029 0-.053.011-.053.024s-.043.043-.096.067c-.053.023-.088.056-.078.072s.003.029-.015.029c-.035 0-.121.064-.245.184-.041.04-.087.072-.103.072s-.071.04-.123.088c-.156.146-.222.194-.188.136.031-.053-.112.056-.151.116-.027.041-.185.02-.185-.025 0-.017-.014-.021-.032-.01s-.032.004-.032-.015-.04-.052-.088-.073-.126-.079-.173-.127c-.047-.049-.103-.088-.125-.088s-.081-.043-.131-.096-.107-.096-.126-.096-.07-.043-.115-.096c-.044-.053-.095-.096-.113-.096-.035 0-.218-.145-.208-.164q.004-.01-.006-.004c-.03.017-.197-.106-.214-.158-.01-.031-.045-.057-.078-.057s-.082-.032-.11-.071-.05-.057-.051-.04-.021.005-.045-.027-.056-.059-.071-.06c-.061-.004-.107-.035-.107-.071 0-.021-.05-.063-.112-.092s-.112-.066-.112-.082-.051-.053-.114-.083-.122-.075-.131-.1-.038-.046-.064-.046-.038-.014-.027-.032-.007-.032-.039-.032-.08-.029-.105-.064-.065-.064-.089-.064-.033-.016-.02-.037q.02-.034-.013-.015c-.019.012-.088-.029-.152-.091s-.133-.113-.154-.113-.059-.029-.084-.064-.065-.064-.089-.064-.033-.016-.02-.037q.02-.034-.011-.016c-.019.011-.084-.029-.145-.09s-.12-.102-.13-.091-.029-.004-.04-.033-.033-.044-.049-.035c-.016.01-.037-.005-.048-.032-.01-.027-.09-.088-.176-.135s-.157-.097-.157-.112-.022-.027-.048-.027-.048-.012-.048-.027-.036-.046-.079-.069-.07-.057-.059-.074q.015-.027-.015-.011c-.019.012-.071-.015-.116-.059-.044-.044-.096-.081-.116-.081s-.025-.017-.013-.037q.02-.034-.012-.015c-.019.012-.085-.028-.146-.089s-.119-.102-.129-.092-.028-.005-.039-.034-.035-.053-.054-.053-.057-.021-.085-.047c-.221-.203-.31-.273-.345-.273-.023 0-.041-.015-.041-.034s-.014-.025-.032-.014-.032-.001-.032-.026q0-.06-.138-.079a.5.5 0 0 1-.117-.101c-.05-.054-.109-.098-.131-.098s-.081-.043-.131-.096-.106-.096-.123-.096a.03.03 0 0 1-.032-.032c0-.018-.021-.032-.047-.032s-.062-.029-.082-.065-.048-.056-.065-.046-.039-.004-.05-.031-.04-.05-.066-.05-.04-.011-.032-.024c.018-.029-.044-.085-.108-.097-.026-.005-.086-.052-.134-.104s-.106-.095-.129-.095-.062-.028-.086-.062c-.025-.034-.057-.055-.071-.046s-.035-.006-.046-.034-.034-.05-.052-.05-.06-.031-.093-.069-.06-.057-.06-.043-.028 0-.063-.031c-.063-.057-.063-.04-.064 4.091" fill="#e43c34"/></g></svg>