<svg width="32.895" height="32" viewBox="0 0 3.368 3.276" xmlns="http://www.w3.org/2000/svg" preserveAspectRatio="xMinYMin meet"><g fill="#161614"><path d="M1.678 0a1.678 1.678 0 0 0-.531 3.27c.084.016.115-.036.115-.081l-.002-.312c-.467.101-.565-.198-.565-.198-.076-.194-.186-.245-.186-.245-.152-.104.011-.102.011-.102.168.012.257.173.257.173.15.256.392.182.488.139a.36.36 0 0 1 .107-.224c-.373-.042-.764-.186-.764-.829a.65.65 0 0 1 .173-.45.6.6 0 0 1 .016-.444s.141-.045.461.172a1.6 1.6 0 0 1 .84 0c.32-.217.461-.172.461-.172a.6.6 0 0 1 .016.444.65.65 0 0 1 .173.45c0 .644-.392.786-.766.828.06.052.114.154.114.311l-.002.46c0 .045.03.097.115.08A1.678 1.678 0 0 0 1.678 0"/><path d="M.628 2.39c-.004.008-.017.011-.029.005S.58 2.378.584 2.37s.017-.011.029-.005.019.017.015.025m.083.074c-.008.007-.024.004-.034-.008s-.013-.027-.005-.035c.008-.007.023-.004.034.008s.013.027.005.035m.057.094c-.01.007-.027 0-.037-.014s-.01-.033 0-.04.027-.001.038.014.01.033 0 .04m.096.109c-.009.01-.029.007-.043-.006-.015-.014-.019-.033-.01-.043s.029-.007.043.006c.015.014.019.033.009.043m.124.037c-.004.013-.023.019-.042.014-.019-.006-.031-.021-.028-.034.004-.013.023-.019.042-.013s.031.021.027.034m.141.016c0 .014-.016.025-.036.026s-.036-.011-.037-.024c0-.014.016-.025.036-.026s.036.011.036.024m.138-.005c.002.014-.011.027-.031.031-.019.004-.038-.005-.04-.018-.002-.014.012-.028.031-.031.02-.003.038.005.04.018"/></g></svg>