<svg xmlns="http://www.w3.org/2000/svg" viewBox="0 0 32 32" width="32" height="32"><defs><radialGradient id="a" cx="332.14" cy="2511.81" r="3263.54" gradientUnits="userSpaceOnUse"><stop offset=".09" stop-color="#fa8f21"/><stop offset=".78" stop-color="#d82d7e"/></radialGradient><radialGradient id="b" cx="1516.14" cy="2623.81" r="2572.12" gradientUnits="userSpaceOnUse"><stop offset=".64" stop-color="#8c3aaa" stop-opacity="0"/><stop offset="1" stop-color="#8c3aaa"/></radialGradient></defs><path d="M10.668 16A5.333 5.333 0 1 1 16 21.334 5.33 5.33 0 0 1 10.668 16m-2.883 0c0 4.538 3.678 8.216 8.216 8.216s8.216-3.678 8.216-8.216S20.538 7.784 16 7.784 7.784 11.462 7.784 16m14.837-8.542a1.92 1.92 0 1 0 1.921-1.919h-.001a1.92 1.92 0 0 0-1.92 1.919M9.536 29.024c-1.56-.071-2.408-.331-2.971-.55-.747-.291-1.28-.637-1.84-1.197s-.907-1.092-1.197-1.839c-.22-.563-.479-1.411-.55-2.971-.078-1.687-.093-2.193-.093-6.466s.017-4.778.093-6.466c.071-1.56.333-2.406.55-2.971.291-.747.637-1.28 1.197-1.84s1.092-.907 1.84-1.197c.563-.22 1.411-.479 2.971-.55 1.687-.078 2.193-.093 6.464-.093s4.778.017 6.466.093c1.56.071 2.406.333 2.971.55.747.29 1.28.637 1.84 1.197s.906 1.093 1.197 1.84c.22.563.479 1.411.55 2.971.078 1.688.093 2.193.093 6.466s-.015 4.778-.093 6.466c-.071 1.56-.332 2.408-.55 2.971-.291.747-.637 1.28-1.197 1.839s-1.093.906-1.84 1.197c-.563.22-1.411.479-2.971.55-1.687.078-2.193.093-6.466.093s-4.778-.015-6.464-.093M9.404.097C7.701.175 6.537.445 5.52.84c-1.053.409-1.944.956-2.834 1.846S1.249 4.467.84 5.52C.444 6.537.174 7.7.097 9.404.018 11.11 0 11.655 0 16s.018 4.89.097 6.596c.078 1.703.348 2.867.743 3.884.408 1.052.955 1.946 1.846 2.834S4.467 30.75 5.52 31.16c1.018.396 2.18.666 3.884.743C11.11 31.981 11.655 32 16 32s4.89-.018 6.596-.097c1.703-.078 2.867-.348 3.884-.743 1.052-.41 1.944-.956 2.834-1.846s1.436-1.782 1.846-2.834c.396-1.017.667-2.18.743-3.884.078-1.707.096-2.251.096-6.596s-.018-4.89-.096-6.596c-.078-1.703-.348-2.867-.743-3.884-.41-1.052-.956-1.944-1.846-2.834S27.532 1.249 26.481.84C25.463.444 24.299.173 22.597.097 20.892.019 20.346 0 16.001 0S11.11.018 9.404.097" fill="url(#a)"/><path d="M10.668 16A5.333 5.333 0 1 1 16 21.334 5.33 5.33 0 0 1 10.668 16m-2.883 0c0 4.538 3.678 8.216 8.216 8.216s8.216-3.678 8.216-8.216S20.538 7.784 16 7.784 7.784 11.462 7.784 16m14.837-8.542a1.92 1.92 0 1 0 1.921-1.919h-.001a1.92 1.92 0 0 0-1.92 1.919M9.536 29.024c-1.56-.071-2.408-.331-2.971-.55-.747-.291-1.28-.637-1.84-1.197s-.907-1.092-1.197-1.839c-.22-.563-.479-1.411-.55-2.971-.078-1.687-.093-2.193-.093-6.466s.017-4.778.093-6.466c.071-1.56.333-2.406.55-2.971.291-.747.637-1.28 1.197-1.84s1.092-.907 1.84-1.197c.563-.22 1.411-.479 2.971-.55 1.687-.078 2.193-.093 6.464-.093s4.778.017 6.466.093c1.56.071 2.406.333 2.971.55.747.29 1.28.637 1.84 1.197s.906 1.093 1.197 1.84c.22.563.479 1.411.55 2.971.078 1.688.093 2.193.093 6.466s-.015 4.778-.093 6.466c-.071 1.56-.332 2.408-.55 2.971-.291.747-.637 1.28-1.197 1.839s-1.093.906-1.84 1.197c-.563.22-1.411.479-2.971.55-1.687.078-2.193.093-6.466.093s-4.778-.015-6.464-.093M9.404.097C7.701.175 6.537.445 5.52.84c-1.053.409-1.944.956-2.834 1.846S1.249 4.467.84 5.52C.444 6.537.174 7.7.097 9.404.018 11.11 0 11.655 0 16s.018 4.89.097 6.596c.078 1.703.348 2.867.743 3.884.408 1.052.955 1.946 1.846 2.834S4.467 30.75 5.52 31.16c1.018.396 2.18.666 3.884.743C11.11 31.981 11.655 32 16 32s4.89-.018 6.596-.097c1.703-.078 2.867-.348 3.884-.743 1.052-.41 1.944-.956 2.834-1.846s1.436-1.782 1.846-2.834c.396-1.017.667-2.18.743-3.884.078-1.707.096-2.251.096-6.596s-.018-4.89-.096-6.596c-.078-1.703-.348-2.867-.743-3.884-.41-1.052-.956-1.944-1.846-2.834S27.532 1.249 26.481.84C25.463.444 24.299.173 22.597.097 20.892.019 20.346 0 16.001 0S11.11.018 9.404.097" fill="url(#b)"/></svg>