<svg xmlns="http://www.w3.org/2000/svg" width="32" height="32" viewBox="0 0 13.466 13.466"><path fill="#f0db4f" d="M0 0h13.466v13.466H0z"/><path d="M12.364 10.254c-.099-.614-.499-1.13-1.686-1.612-.412-.189-.872-.325-1.009-.637-.049-.182-.055-.284-.024-.394.088-.357.515-.468.852-.366a.94.94 0 0 1 .548.508c.581-.376.58-.374.986-.632a2.5 2.5 0 0 0-.325-.435c-.349-.39-.826-.591-1.587-.576l-.397.051c-.38.096-.742.296-.955.563-.637.723-.456 1.989.32 2.51.764.573 1.887.704 2.03 1.24.14.657-.483.869-1.101.794-.456-.095-.709-.326-.983-.748-.504.292-.504.292-1.023.59.123.269.252.39.458.623.975.989 3.416.941 3.854-.557.018-.051.136-.394.041-.923M7.32 6.188H6.06c0 1.088-.005 2.168-.005 3.256 0 .692.036 1.327-.077 1.522-.184.383-.662.335-.879.261-.221-.109-.334-.264-.465-.483-.036-.063-.063-.111-.072-.115l-1.024.627c.17.349.421.653.742.85.48.288 1.125.376 1.8.221.439-.128.818-.393 1.016-.796.287-.529.225-1.169.223-1.876.006-1.155 0-2.309 0-3.468" fill="#323330"/></svg>