<svg height="32" width="31.872" xmlns="http://www.w3.org/2000/svg" viewBox="0 0 3.277 3.277"><g fill="none"><path d="M0 .235C0 .105.108 0 .242 0h2.792a.24.24 0 0 1 .243.235v2.807c0 .13-.109.235-.242.235H.242A.24.24 0 0 1 0 3.042z" fill="#069"/><path d="M.996 2.742V1.267H.505v1.475zM.751 1.066c.171 0 .277-.113.277-.255C1.025.666.922.556.754.556S.477.666.477.811c0 .142.106.255.271.255zm.516 1.676h.49v-.824c0-.044.003-.088.016-.12a.27.27 0 0 1 .252-.179c.177 0 .248.135.248.334v.789h.49v-.846c0-.453-.242-.664-.564-.664a.49.49 0 0 0-.445.249h.003v-.214h-.49c.006.138 0 1.475 0 1.475" fill="#fff"/></g></svg>