<?xml version="1.0" encoding="UTF-8"?>
<!DOCTYPE svg PUBLIC "-//W3C//DTD SVG 1.1//EN" "http://www.w3.org/Graphics/SVG/1.1/DTD/svg11.dtd">
<svg xmlns="http://www.w3.org/2000/svg" version="1.1" width="1188px" height="376px" style="shape-rendering:geometricPrecision; text-rendering:geometricPrecision; image-rendering:optimizeQuality; fill-rule:evenodd; clip-rule:evenodd" xmlns:xlink="http://www.w3.org/1999/xlink">
<g><path style="opacity:0.949" fill="#10171f" d="M 575.5,39.5 C 587.296,38.3191 598.629,39.9857 609.5,44.5C 610.14,50.0961 608.807,55.2628 605.5,60C 601.147,59.446 596.814,58.446 592.5,57C 575.749,54.4137 566.583,61.5804 565,78.5C 564.5,92.1626 564.333,105.829 564.5,119.5C 576.167,119.5 587.833,119.5 599.5,119.5C 599.5,125.167 599.5,130.833 599.5,136.5C 587.833,136.5 576.167,136.5 564.5,136.5C 564.667,183.168 564.5,229.835 564,276.5C 558,277.833 552,277.833 546,276.5C 545.5,229.835 545.333,183.168 545.5,136.5C 538.825,136.666 532.158,136.5 525.5,136C 524.167,131 524.167,126 525.5,121C 532.156,120.289 538.822,119.789 545.5,119.5C 545.333,105.496 545.5,91.496 546,77.5C 547.509,58.0589 557.343,45.3923 575.5,39.5 Z"/></g>
<g><path style="opacity:0.941" fill="#10171f" d="M 480.5,61.5 C 486.842,61.3338 493.175,61.5005 499.5,62C 500,62.5 500.5,63 501,63.5C 501.667,70.1667 501.667,76.8333 501,83.5C 500.5,84 500,84.5 499.5,85C 493.167,85.6667 486.833,85.6667 480.5,85C 479.667,84.1667 478.833,83.3333 478,82.5C 477.333,76.8333 477.333,71.1667 478,65.5C 478.662,64.0161 479.496,62.6828 480.5,61.5 Z"/></g>
<g><path style="opacity:0.977" fill="#10171f" d="M 343.5,62.5 C 349.833,62.5 356.167,62.5 362.5,62.5C 362.5,128.5 362.5,194.5 362.5,260.5C 394.833,260.5 427.167,260.5 459.5,260.5C 459.807,266.093 459.473,271.593 458.5,277C 420.168,277.5 381.835,277.667 343.5,277.5C 343.5,205.833 343.5,134.167 343.5,62.5 Z"/></g>
<g><path style="opacity:0.998" fill="#0b62cd" d="M 73.5,63.5 C 138.834,63.3333 204.168,63.5 269.5,64C 274,65.8333 277.167,69 279,73.5C 279.667,138.833 279.667,204.167 279,269.5C 277.167,274 274,277.167 269.5,279C 204.167,279.667 138.833,279.667 73.5,279C 69,277.167 65.8333,274 64,269.5C 63.3333,204.167 63.3333,138.833 64,73.5C 66.0223,68.98 69.189,65.6467 73.5,63.5 Z M 99.5,95.5 C 107.84,95.3336 116.173,95.5003 124.5,96C 125,96.5 125.5,97 126,97.5C 127.112,102.223 127.612,107.056 127.5,112C 130.198,125.597 124.698,130.764 111,127.5C 106.833,127.333 102.667,127.167 98.5,127C 98,126.5 97.5,126 97,125.5C 95.3909,116.602 95.0576,107.602 96,98.5C 97.1451,97.3636 98.3117,96.3636 99.5,95.5 Z M 139.5,95.5 C 147.84,95.3336 156.173,95.5003 164.5,96C 165,96.5 165.5,97 166,97.5C 167.112,102.223 167.612,107.056 167.5,112C 170.198,125.597 164.698,130.764 151,127.5C 146.833,127.333 142.667,127.167 138.5,127C 138,126.5 137.5,126 137,125.5C 135.391,116.602 135.058,107.602 136,98.5C 137.145,97.3636 138.312,96.3636 139.5,95.5 Z M 179.5,95.5 C 187.84,95.3336 196.173,95.5003 204.5,96C 205,96.5 205.5,97 206,97.5C 207.112,102.223 207.612,107.056 207.5,112C 210.198,125.597 204.698,130.764 191,127.5C 186.833,127.333 182.667,127.167 178.5,127C 178,126.5 177.5,126 177,125.5C 175.391,116.602 175.058,107.602 176,98.5C 177.145,97.3636 178.312,96.3636 179.5,95.5 Z M 99.5,135.5 C 107.84,135.334 116.173,135.5 124.5,136C 125,136.5 125.5,137 126,137.5C 127.112,142.223 127.612,147.056 127.5,152C 130.198,165.597 124.698,170.764 111,167.5C 106.833,167.333 102.667,167.167 98.5,167C 98,166.5 97.5,166 97,165.5C 95.3909,156.602 95.0576,147.602 96,138.5C 97.1451,137.364 98.3117,136.364 99.5,135.5 Z M 139.5,135.5 C 147.84,135.334 156.173,135.5 164.5,136C 165,136.5 165.5,137 166,137.5C 167.112,142.223 167.612,147.056 167.5,152C 170.198,165.597 164.698,170.764 151,167.5C 146.833,167.333 142.667,167.167 138.5,167C 138,166.5 137.5,166 137,165.5C 135.391,156.602 135.058,147.602 136,138.5C 137.145,137.364 138.312,136.364 139.5,135.5 Z M 219.5,135.5 C 227.84,135.334 236.173,135.5 244.5,136C 245,136.5 245.5,137 246,137.5C 247.112,142.223 247.612,147.056 247.5,152C 250.198,165.597 244.698,170.764 231,167.5C 226.833,167.333 222.667,167.167 218.5,167C 218,166.5 217.5,166 217,165.5C 215.391,156.602 215.058,147.602 216,138.5C 217.145,137.364 218.312,136.364 219.5,135.5 Z M 99.5,175.5 C 107.84,175.334 116.173,175.5 124.5,176C 125,176.5 125.5,177 126,177.5C 127.112,182.223 127.612,187.056 127.5,192C 130.198,205.597 124.698,210.764 111,207.5C 106.833,207.333 102.667,207.167 98.5,207C 98,206.5 97.5,206 97,205.5C 95.3909,196.602 95.0576,187.602 96,178.5C 97.1451,177.364 98.3117,176.364 99.5,175.5 Z M 179.5,175.5 C 187.84,175.334 196.173,175.5 204.5,176C 205,176.5 205.5,177 206,177.5C 207.112,182.223 207.612,187.056 207.5,192C 210.198,205.597 204.698,210.764 191,207.5C 186.833,207.333 182.667,207.167 178.5,207C 178,206.5 177.5,206 177,205.5C 175.391,196.602 175.058,187.602 176,178.5C 177.145,177.364 178.312,176.364 179.5,175.5 Z M 219.5,175.5 C 227.84,175.334 236.173,175.5 244.5,176C 245,176.5 245.5,177 246,177.5C 247.112,182.223 247.612,187.056 247.5,192C 250.198,205.597 244.698,210.764 231,207.5C 226.833,207.333 222.667,207.167 218.5,207C 218,206.5 217.5,206 217,205.5C 215.391,196.602 215.058,187.602 216,178.5C 217.145,177.364 218.312,176.364 219.5,175.5 Z M 139.5,215.5 C 147.84,215.334 156.173,215.5 164.5,216C 165,216.5 165.5,217 166,217.5C 167.112,222.223 167.612,227.056 167.5,232C 170.198,245.597 164.698,250.764 151,247.5C 146.833,247.333 142.667,247.167 138.5,247C 138,246.5 137.5,246 137,245.5C 135.391,236.602 135.058,227.602 136,218.5C 137.145,217.364 138.312,216.364 139.5,215.5 Z M 179.5,215.5 C 187.84,215.334 196.173,215.5 204.5,216C 205,216.5 205.5,217 206,217.5C 207.112,222.223 207.612,227.056 207.5,232C 210.198,245.597 204.698,250.764 191,247.5C 186.833,247.333 182.667,247.167 178.5,247C 178,246.5 177.5,246 177,245.5C 175.391,236.602 175.058,227.602 176,218.5C 177.145,217.364 178.312,216.364 179.5,215.5 Z M 219.5,215.5 C 227.84,215.334 236.173,215.5 244.5,216C 245,216.5 245.5,217 246,217.5C 247.112,222.223 247.612,227.056 247.5,232C 250.198,245.597 244.698,250.764 231,247.5C 226.833,247.333 222.667,247.167 218.5,247C 218,246.5 217.5,246 217,245.5C 215.391,236.602 215.058,227.602 216,218.5C 217.145,217.364 218.312,216.364 219.5,215.5 Z"/></g>
<g><path style="opacity:0.954" fill="#101720" d="M 662.5,115.5 C 703.46,114.618 726.293,134.618 731,175.5C 731.667,184.167 731.667,192.833 731,201.5C 730.5,202 730,202.5 729.5,203C 693.168,203.5 656.835,203.667 620.5,203.5C 621.063,225.747 630.063,243.58 647.5,257C 664.687,265.788 682.353,266.788 700.5,260C 706.138,257.265 711.638,254.432 717,251.5C 717.833,251.833 718.667,252.167 719.5,252.5C 720.414,254.664 721.581,256.664 723,258.5C 724.59,260.65 725.257,262.983 725,265.5C 700.289,282.268 673.789,285.768 645.5,276C 622.04,264.283 607.874,245.45 603,219.5C 597.574,191.706 602.574,166.04 618,142.5C 629.566,127.973 644.399,118.973 662.5,115.5 Z M 662.5,132.5 C 686.962,129.82 702.795,140.153 710,163.5C 711.715,170.765 712.882,178.098 713.5,185.5C 682.507,186.5 651.507,186.833 620.5,186.5C 622.251,165.817 631.584,149.651 648.5,138C 653.159,135.842 657.825,134.009 662.5,132.5 Z"/></g>
<g><path style="opacity:0.945" fill="#101720" d="M 813.5,115.5 C 820.647,115.385 827.48,116.718 834,119.5C 833.655,124.893 832.655,130.227 831,135.5C 830.439,136.022 829.772,136.355 829,136.5C 817.881,132.159 807.381,133.326 797.5,140C 787.739,148.36 780.573,158.527 776,170.5C 775.5,206.165 775.333,241.832 775.5,277.5C 769.167,277.5 762.833,277.5 756.5,277.5C 756.333,225.166 756.5,172.832 757,120.5C 762.333,119.167 767.667,119.167 773,120.5C 773.819,128.153 774.486,135.82 775,143.5C 783.768,128.385 796.602,119.051 813.5,115.5 Z"/></g>
<g><path style="opacity:0.956" fill="#101720" d="M 895.5,115.5 C 903.983,115.602 912.316,116.769 920.5,119C 928.722,122.943 936.722,127.109 944.5,131.5C 944.207,127.563 944.54,123.73 945.5,120C 951.084,119.194 956.584,119.361 962,120.5C 962.667,172.833 962.667,225.167 962,277.5C 956.918,278.637 951.751,278.804 946.5,278C 945.306,272.265 944.472,266.432 944,260.5C 920.765,282.931 894.265,287.764 864.5,275C 844.807,262.26 833.64,244.094 831,220.5C 825.818,191.404 831.484,164.737 848,140.5C 860.512,125.663 876.345,117.329 895.5,115.5 Z M 893.5,132.5 C 912.869,131.437 929.369,137.77 943,151.5C 943.667,181.167 943.667,210.833 943,240.5C 932.862,251.308 920.695,258.808 906.5,263C 881.567,266.457 864.4,256.623 855,233.5C 848.52,213.365 847.854,193.031 853,172.5C 859.812,152.187 873.312,138.853 893.5,132.5 Z"/></g>
<g><path style="opacity:0.945" fill="#10171f" d="M 480.5,119.5 C 486.758,119.19 492.924,119.524 499,120.5C 499.667,172.5 499.667,224.5 499,276.5C 492.924,277.476 486.758,277.81 480.5,277.5C 480.5,224.833 480.5,172.167 480.5,119.5 Z"/></g>
<g><path style="opacity:0.956" fill="#101720" d="M 977.5,119.5 C 984.09,119.189 990.59,119.522 997,120.5C 1013.95,165.358 1031.28,210.024 1049,254.5C 1063.8,209.77 1078.8,165.104 1094,120.5C 1100.08,119.358 1106.25,119.191 1112.5,120C 1112.96,120.414 1113.29,120.914 1113.5,121.5C 1093.23,179.129 1073.07,236.796 1053,294.5C 1047.63,312.108 1038.13,326.941 1024.5,339C 1010.91,347.933 996.58,349.433 981.5,343.5C 981.171,338.44 982.004,333.44 984,328.5C 985.062,327.903 986.228,327.57 987.5,327.5C 997.444,330.896 1006.78,329.729 1015.5,324C 1020.41,319.756 1024.58,314.923 1028,309.5C 1033.35,299.448 1037.52,288.948 1040.5,278C 1018.51,225.528 997.511,172.694 977.5,119.5 Z"/></g>
</svg>
