<svg height="32" xmlns="http://www.w3.org/2000/svg" width="157.48" viewBox="0 0 24.819 5.004"><path d="M16.499.002h4.323V.8h-1.715v4.198h-.858V.8h-1.751zm-7.11 0V.8H5.924v1.284h2.787v.798H5.924V4.2h3.465v.798H5.066V.002zm2.159.002h-1.122L14.445 5h1.125l-2.01-2.496L15.567.008 14.445.01l-1.446 1.796zm1.151 3.568-.562-.699-1.715 2.13h1.125z" fill="var(--geist-foreground)"/><path clip-rule="evenodd" d="M5.096 4.998 1.072 0H0v4.996h.857V1.068l3.162 3.93z" fill="var(--geist-foreground)" fill-rule="evenodd"/><path d="M21.015 4.967a.22.22 0 0 1-.161-.065.2.2 0 0 1-.066-.159q-.001-.091.066-.156a.22.22 0 0 1 .161-.065q.09 0 .158.065a.22.22 0 0 1 .069.156.2.2 0 0 1-.032.113.23.23 0 0 1-.083.081.2.2 0 0 1-.111.03m1.463-2.105h.38v1.464a.7.7 0 0 1-.087.346.6.6 0 0 1-.239.223.8.8 0 0 1-.356.078.8.8 0 0 1-.333-.066.54.54 0 0 1-.235-.195.56.56 0 0 1-.087-.321h.381a.3.3 0 0 0 .038.145.24.24 0 0 0 .101.093q.065.033.15.033a.3.3 0 0 0 .156-.038q.064-.038.098-.113a.5.5 0 0 0 .034-.185zm1.943.573a.27.27 0 0 0-.121-.207q-.107-.075-.277-.074a.5.5 0 0 0-.205.036.3.3 0 0 0-.131.097.24.24 0 0 0-.046.139.2.2 0 0 0 .031.113.25.25 0 0 0 .083.081.6.6 0 0 0 .116.056q.064.022.129.038l.198.049a1.4 1.4 0 0 1 .231.074.8.8 0 0 1 .199.118.5.5 0 0 1 .139.172.5.5 0 0 1 .052.236.55.55 0 0 1-.095.322.63.63 0 0 1-.274.216 1.1 1.1 0 0 1-.433.078 1.1 1.1 0 0 1-.427-.076q-.181-.075-.283-.219a.5.5 0 0 1-.11-.351h.377a.3.3 0 0 0 .068.181q.06.072.156.108a.6.6 0 0 0 .216.035.6.6 0 0 0 .22-.037.35.35 0 0 0 .148-.104.25.25 0 0 0 .055-.156.2.2 0 0 0-.048-.135q-.048-.053-.132-.089a1.4 1.4 0 0 0-.199-.065l-.241-.061a.96.96 0 0 1-.412-.201.46.46 0 0 1-.151-.358q0-.183.102-.322a.66.66 0 0 1 .277-.215 1 1 0 0 1 .397-.077.9.9 0 0 1 .395.077.65.65 0 0 1 .267.212q.097.135.1.311z" fill="var(--geist-foreground)"/></svg>