<svg width="32" height="28.75" viewBox="0 0 32 28.75" xmlns="http://www.w3.org/2000/svg" preserveAspectRatio="xMidYMid"><path d="M.094 14.344c0 2.402 2.345 4.644 6.043 5.908-.738 3.717-.132 6.713 1.892 7.881 2.081 1.2 5.18.369 8.123-2.203 2.868 2.468 5.766 3.439 7.789 2.268 2.079-1.203 2.711-4.403 1.952-8.236 3.851-1.273 6.005-3.185 6.005-5.619 0-2.346-2.35-4.376-5.997-5.631.817-3.992.125-6.915-1.983-8.131-2.032-1.172-4.965-.15-7.875 2.382C13.015.276 10.112-.545 8.006.674 5.976 1.849 5.396 4.9 6.137 8.686 2.564 9.931.094 12.007.094 14.344" fill="#FFF"/><path d="M25.128 9.959a19 19 0 0 0-.909-.286 17 17 0 0 0 .141-.62c.688-3.341.238-6.032-1.298-6.918-1.473-.85-3.883.036-6.317 2.154a19 19 0 0 0-.703.645 17 17 0 0 0-.468-.432c-2.551-2.265-5.107-3.219-6.642-2.33-1.472.852-1.908 3.382-1.288 6.549a19 19 0 0 0 .209.935q-.543.154-1.045.329c-2.99 1.042-4.9 2.676-4.9 4.371 0 1.75 2.05 3.506 5.165 4.571a16 16 0 0 0 .764.239 19 19 0 0 0-.222 1.008c-.591 3.111-.129 5.582 1.339 6.428 1.516.874 4.061-.024 6.54-2.191q.294-.257.589-.543a19 19 0 0 0 .763.697c2.401 2.066 4.771 2.9 6.238 2.051 1.515-.877 2.007-3.531 1.368-6.76a17 17 0 0 0-.169-.755q.268-.079.525-.164c3.238-1.073 5.345-2.807 5.345-4.581 0-1.701-1.971-3.346-5.022-4.396" fill="#53C1DE"/><path d="M24.426 17.791a14 14 0 0 1-.474.148 28 28 0 0 0-1.43-3.578 28.5 28.5 0 0 0 1.375-3.526q.434.126.84.265c2.614.9 4.208 2.23 4.208 3.255 0 1.092-1.722 2.509-4.518 3.436m-1.16 2.299c.283 1.428.323 2.719.136 3.728-.168.907-.506 1.511-.925 1.753-.89.515-2.794-.154-4.846-1.921a19 19 0 0 1-.71-.647 29 29 0 0 0 2.368-3.006 28 28 0 0 0 3.825-.59q.086.349.153.683m-11.731 5.392c-.87.307-1.562.316-1.981.074-.891-.514-1.261-2.498-.756-5.158a17 17 0 0 1 .206-.938 28 28 0 0 0 3.806.551c.781 1.1 1.6 2.11 2.425 2.995a15 15 0 0 1-.538.495c-1.096.958-2.194 1.637-3.162 1.979m-4.074-7.697c-1.377-.471-2.515-1.083-3.294-1.75-.701-.6-1.054-1.196-1.054-1.679 0-1.028 1.533-2.34 4.091-3.232a17 17 0 0 1 .972-.306c.353 1.15.817 2.352 1.377 3.567a29 29 0 0 0-1.394 3.618 15 15 0 0 1-.697-.218M8.83 8.487c-.531-2.713-.178-4.759.709-5.273.945-.547 3.034.233 5.237 2.188q.211.188.424.391a29 29 0 0 0-2.406 2.978c-1.328.123-2.6.321-3.769.586a18 18 0 0 1-.194-.87m12.183 3.008a38 38 0 0 0-.859-1.413 27 27 0 0 1 2.575.45c-.243.78-.547 1.596-.904 2.432a42 42 0 0 0-.813-1.47m-4.968-4.839a26 26 0 0 1 1.662 2.006 36 36 0 0 0-3.338-.001 27 27 0 0 1 1.676-2.006m-5 4.848a36 36 0 0 0-.797 1.461 27 27 0 0 1-.897-2.444c.806-.18 1.665-.328 2.561-.44a36 36 0 0 0-.866 1.423m.892 7.21a26 26 0 0 1-2.603-.418 27 27 0 0 1 .915-2.494 36 36 0 0 0 .801 1.462 36 36 0 0 0 .887 1.45m4.142 3.424a27 27 0 0 1-1.699-2.034q.812.032 1.653.032.864 0 1.705-.038a26 26 0 0 1-1.658 2.04m5.759-6.379c.378.861.696 1.693.949 2.485a26 26 0 0 1-2.635.449 42 42 0 0 0 .867-1.437 38 38 0 0 0 .819-1.496m-1.864.894a40 40 0 0 1-1.355 2.186c-.838.06-1.704.091-2.587.091-.879 0-1.734-.027-2.557-.081a34 34 0 0 1-1.387-2.188 34 34 0 0 1-1.205-2.276 34 34 0 0 1 1.201-2.277 34 34 0 0 1 1.369-2.18 34 34 0 0 1 5.149.001 36 36 0 0 1 1.361 2.173 40 40 0 0 1 1.218 2.266 36 36 0 0 1-1.214 2.286m2.489-13.474c.946.545 1.314 2.745.719 5.63a16 16 0 0 1-.127.561 29 29 0 0 0-3.776-.597 28 28 0 0 0-2.388-2.98 18 18 0 0 1 .649-.596c2.085-1.815 4.034-2.531 4.922-2.019" fill="#FFF"/><path d="M16.028 11.833a2.522 2.522 0 1 1 0 5.044 2.522 2.522 0 0 1 0-5.044" fill="#53C1DE"/></svg>