<svg id="svg" version="1.1" xmlns="http://www.w3.org/2000/svg" xmlns:xlink="http://www.w3.org/1999/xlink" width="400" height="78.08" viewBox="0, 0, 400,78.08"><g id="svgg"><path id="path0" d="M24.917 3.778 C 23.112 4.169,22.156 5.173,20.977 7.917 C 20.376 9.316,20.385 17.729,20.989 19.083 C 21.070 19.267,21.223 20.092,21.328 20.917 C 21.481 22.124,21.597 22.496,21.921 22.824 L 22.323 23.232 24.953 22.923 C 26.400 22.752,27.658 22.557,27.750 22.488 C 27.842 22.419,28.967 22.274,30.250 22.165 C 31.533 22.056,32.733 21.903,32.917 21.824 C 33.416 21.610,39.127 21.333,43.055 21.333 C 46.507 21.333,46.516 21.332,46.924 20.924 C 47.625 20.224,47.492 19.524,46.417 18.257 C 45.913 17.663,45.500 17.135,45.500 17.083 C 45.500 17.032,45.200 16.714,44.833 16.377 C 44.467 16.040,44.167 15.677,44.167 15.572 C 44.167 15.346,37.865 9.000,37.641 9.000 C 37.557 9.000,36.899 8.512,36.179 7.917 C 35.459 7.321,34.784 6.833,34.680 6.833 C 34.575 6.833,34.446 6.721,34.394 6.583 C 34.341 6.446,34.229 6.333,34.146 6.333 C 34.062 6.333,33.676 6.131,33.288 5.885 C 32.134 5.150,31.297 4.738,30.458 4.493 C 30.023 4.365,29.667 4.211,29.667 4.151 C 29.667 3.856,25.912 3.562,24.917 3.778 M59.125 3.944 C 58.873 3.987,58.667 4.084,58.667 4.159 C 58.667 4.235,58.408 4.345,58.091 4.404 C 57.465 4.522,54.405 6.021,53.558 6.625 C 53.268 6.831,52.950 7.000,52.849 7.000 C 52.749 7.000,52.667 7.077,52.667 7.171 C 52.667 7.265,52.490 7.409,52.275 7.490 C 52.060 7.572,51.425 8.021,50.866 8.486 C 50.306 8.952,49.773 9.333,49.682 9.333 C 49.591 9.333,49.457 9.428,49.383 9.543 C 49.310 9.658,48.987 9.950,48.667 10.193 C 46.257 12.015,46.157 12.529,47.833 14.465 C 48.475 15.207,49.000 15.886,49.000 15.976 C 49.000 16.066,49.059 16.164,49.132 16.194 C 49.205 16.225,49.711 16.805,50.257 17.484 C 50.803 18.163,51.416 18.913,51.619 19.151 C 51.822 19.389,51.991 19.644,51.994 19.717 C 51.997 19.791,52.400 20.353,52.889 20.967 C 53.379 21.581,53.877 22.267,53.996 22.492 C 54.116 22.716,54.541 23.316,54.940 23.825 C 55.340 24.334,55.667 24.807,55.667 24.878 C 55.667 24.948,56.004 25.469,56.417 26.036 C 56.829 26.603,57.167 27.127,57.167 27.201 C 57.167 27.276,57.392 27.647,57.667 28.026 C 57.942 28.406,58.167 28.818,58.167 28.942 C 58.167 29.065,58.228 29.167,58.302 29.167 C 58.377 29.167,58.570 29.410,58.731 29.708 C 60.128 32.299,60.687 33.000,61.352 33.000 C 62.085 33.000,62.667 32.711,62.667 32.347 C 62.667 32.167,62.738 31.975,62.826 31.921 C 62.914 31.867,63.111 31.375,63.265 30.828 C 63.418 30.281,63.602 29.833,63.674 29.833 C 63.746 29.833,63.853 29.545,63.912 29.193 C 63.972 28.841,64.116 28.369,64.232 28.145 C 64.349 27.920,64.578 27.214,64.742 26.576 C 64.905 25.939,65.134 25.192,65.250 24.917 C 65.365 24.642,65.554 23.892,65.669 23.250 C 65.783 22.608,65.940 22.003,66.017 21.905 C 66.094 21.807,66.244 21.170,66.349 20.489 C 66.454 19.807,66.604 19.100,66.682 18.917 C 67.296 17.469,67.290 9.581,66.675 8.750 C 66.607 8.658,66.455 8.227,66.338 7.792 C 66.220 7.356,66.058 7.000,65.978 7.000 C 65.899 7.000,65.833 6.897,65.833 6.772 C 65.833 6.366,64.542 4.908,63.887 4.574 C 63.537 4.396,63.198 4.177,63.134 4.088 C 63.013 3.919,59.923 3.808,59.125 3.944 M26.667 26.115 C 26.346 26.149,25.933 26.245,25.750 26.329 C 25.567 26.412,24.629 26.606,23.667 26.759 C 22.704 26.913,21.842 27.092,21.750 27.159 C 21.658 27.226,21.021 27.376,20.333 27.493 C 19.646 27.610,19.008 27.766,18.915 27.840 C 18.823 27.914,18.228 28.094,17.593 28.242 C 16.959 28.389,16.360 28.570,16.262 28.645 C 16.164 28.720,15.596 28.914,15.000 29.075 C 14.404 29.237,13.842 29.428,13.750 29.501 C 13.658 29.573,13.265 29.727,12.875 29.843 C 12.485 29.958,12.167 30.116,12.167 30.193 C 12.167 30.270,12.080 30.333,11.974 30.333 C 11.668 30.333,9.265 31.560,9.117 31.792 C 9.043 31.906,8.879 32.000,8.750 32.000 C 8.622 32.000,8.067 32.375,7.516 32.833 C 6.965 33.292,6.449 33.667,6.370 33.667 C 6.166 33.667,5.500 34.400,5.500 34.624 C 5.500 34.726,5.313 34.957,5.083 35.137 C 4.854 35.317,4.667 35.512,4.667 35.569 C 4.667 35.627,4.467 35.976,4.222 36.346 C 3.220 37.859,3.459 40.683,4.719 42.236 C 5.536 43.244,7.636 45.167,7.918 45.167 C 7.990 45.167,8.450 45.433,8.941 45.759 C 10.104 46.531,11.407 47.204,12.292 47.491 C 12.681 47.617,13.000 47.775,13.000 47.842 C 13.000 47.909,13.205 48.015,13.456 48.078 C 13.706 48.141,14.288 48.364,14.747 48.574 C 15.207 48.784,15.832 49.011,16.136 49.077 C 16.440 49.144,16.890 49.303,17.136 49.431 C 18.373 50.076,19.405 49.593,19.834 48.167 C 19.958 47.754,20.112 47.342,20.175 47.250 C 20.238 47.158,20.384 46.783,20.500 46.417 C 20.615 46.050,20.806 45.563,20.923 45.333 C 21.041 45.104,21.227 44.654,21.336 44.333 C 21.568 43.654,21.819 43.043,22.292 42.000 C 22.479 41.587,22.771 40.894,22.941 40.459 C 23.111 40.024,23.306 39.668,23.375 39.667 C 23.444 39.667,23.500 39.544,23.500 39.394 C 23.500 39.116,26.676 32.591,27.180 31.833 C 27.431 31.457,28.018 30.409,28.856 28.844 C 29.025 28.528,29.239 28.195,29.331 28.102 C 29.628 27.805,29.524 26.756,29.160 26.365 C 28.816 25.995,28.293 25.943,26.667 26.115 M68.206 28.278 C 67.950 28.381,67.261 29.824,67.008 30.785 C 66.907 31.170,66.760 31.526,66.681 31.575 C 66.602 31.624,66.487 31.870,66.425 32.123 C 66.364 32.376,66.178 32.883,66.012 33.250 C 65.846 33.617,65.617 34.179,65.503 34.500 C 65.311 35.039,65.139 35.438,64.315 37.250 C 63.411 39.239,63.000 40.206,63.000 40.345 C 63.000 40.430,62.944 40.500,62.875 40.501 C 62.806 40.501,62.606 40.857,62.429 41.292 C 62.252 41.727,62.065 42.121,62.012 42.167 C 61.857 42.302,60.667 44.802,60.667 44.992 C 60.667 45.088,60.608 45.167,60.537 45.167 C 60.465 45.167,60.313 45.373,60.198 45.625 C 60.084 45.877,59.737 46.533,59.427 47.083 C 59.117 47.633,58.698 48.403,58.496 48.794 C 58.293 49.185,58.062 49.545,57.981 49.595 C 57.694 49.772,57.814 51.264,58.138 51.558 C 58.481 51.868,59.980 51.941,60.461 51.670 C 60.620 51.581,61.569 51.392,62.571 51.250 C 63.572 51.109,64.472 50.931,64.571 50.856 C 64.669 50.781,65.310 50.623,65.995 50.505 C 66.680 50.387,67.355 50.230,67.495 50.157 C 67.635 50.085,68.308 49.898,68.991 49.744 C 69.673 49.589,70.348 49.404,70.491 49.333 C 70.633 49.261,71.200 49.074,71.750 48.916 C 72.300 48.758,72.825 48.576,72.917 48.511 C 73.008 48.446,73.421 48.289,73.833 48.162 C 74.246 48.035,74.621 47.880,74.667 47.818 C 74.712 47.756,75.118 47.582,75.567 47.430 C 76.016 47.278,76.590 47.006,76.843 46.827 C 77.095 46.647,77.384 46.500,77.484 46.500 C 77.584 46.500,77.667 46.425,77.667 46.333 C 77.667 46.242,77.773 46.167,77.904 46.167 C 78.034 46.167,78.485 45.904,78.905 45.583 C 79.326 45.262,79.738 45.000,79.821 45.000 C 80.043 45.000,82.499 42.508,82.504 42.278 C 82.506 42.171,82.654 41.896,82.833 41.667 C 83.013 41.438,83.161 41.137,83.164 41.000 C 83.167 40.862,83.281 40.535,83.418 40.273 C 83.678 39.774,83.775 37.500,83.536 37.500 C 83.465 37.500,83.302 37.144,83.175 36.708 C 82.949 35.934,80.143 32.833,79.668 32.833 C 79.574 32.833,79.187 32.608,78.807 32.333 C 78.427 32.058,78.022 31.833,77.906 31.833 C 77.789 31.833,77.669 31.777,77.639 31.708 C 77.571 31.555,75.084 30.333,74.841 30.333 C 74.745 30.333,74.667 30.266,74.667 30.185 C 74.667 30.103,74.462 29.985,74.211 29.922 C 73.960 29.859,73.369 29.631,72.897 29.415 C 72.425 29.199,71.768 28.972,71.436 28.909 C 71.105 28.847,70.833 28.741,70.833 28.674 C 70.833 28.350,68.792 28.042,68.206 28.278 M24.989 45.473 C 24.754 45.658,24.457 46.133,24.329 46.530 C 24.202 46.926,24.052 47.288,23.997 47.333 C 23.941 47.379,23.759 47.867,23.592 48.417 C 23.424 48.967,23.233 49.492,23.166 49.583 C 23.099 49.675,22.951 50.144,22.838 50.626 C 22.726 51.107,22.573 51.538,22.500 51.583 C 22.427 51.628,22.242 52.247,22.089 52.958 C 21.936 53.668,21.710 54.475,21.586 54.750 C 21.463 55.025,21.309 55.625,21.243 56.083 C 21.178 56.542,21.065 56.992,20.992 57.085 C 20.832 57.287,20.333 60.547,20.333 61.387 C 20.333 61.713,20.258 62.027,20.167 62.083 C 19.963 62.209,19.938 67.529,20.140 67.758 C 20.217 67.845,20.369 68.426,20.478 69.047 C 20.887 71.371,22.622 73.749,24.224 74.183 C 25.326 74.481,28.465 74.304,29.262 73.898 C 29.622 73.716,30.235 73.464,30.625 73.340 C 31.015 73.215,31.333 73.062,31.333 73.000 C 31.333 72.938,31.633 72.788,32.000 72.667 C 32.367 72.546,32.667 72.382,32.667 72.303 C 32.667 72.223,32.859 72.085,33.095 71.996 C 33.330 71.906,33.768 71.646,34.069 71.416 C 34.369 71.187,34.676 71.000,34.752 71.000 C 34.827 71.000,35.007 70.887,35.153 70.749 C 35.298 70.610,35.979 70.074,36.667 69.556 C 37.354 69.038,37.942 68.551,37.972 68.474 C 38.003 68.397,38.115 68.333,38.222 68.332 C 38.329 68.331,38.885 67.894,39.458 67.362 C 40.850 66.070,40.882 65.570,39.667 64.167 C 39.208 63.638,38.833 63.154,38.833 63.092 C 38.833 63.030,38.647 62.777,38.419 62.531 C 37.740 61.797,35.667 59.199,35.667 59.082 C 35.667 59.023,35.228 58.436,34.693 57.779 C 34.157 57.121,33.620 56.397,33.500 56.170 C 33.379 55.943,32.984 55.382,32.621 54.923 C 32.259 54.464,31.898 53.919,31.819 53.711 C 31.740 53.503,31.598 53.333,31.504 53.333 C 31.410 53.333,31.331 53.240,31.329 53.125 C 31.326 53.010,31.101 52.622,30.829 52.262 C 30.556 51.902,30.333 51.542,30.333 51.463 C 30.333 51.384,30.033 50.913,29.667 50.417 C 29.300 49.920,29.000 49.455,29.000 49.382 C 29.000 49.309,28.700 48.818,28.333 48.290 C 27.967 47.762,27.667 47.268,27.667 47.193 C 27.667 47.081,27.441 46.704,26.573 45.368 C 26.408 45.113,25.357 45.183,24.989 45.473 M62.250 55.220 C 61.517 55.312,60.879 55.440,60.833 55.504 C 60.788 55.568,59.737 55.713,58.500 55.825 C 57.262 55.938,56.100 56.096,55.917 56.176 C 55.439 56.385,50.811 56.655,45.543 56.779 C 40.457 56.900,40.552 56.875,40.384 58.130 C 40.300 58.757,40.353 58.851,41.565 60.213 C 42.262 60.997,42.833 61.708,42.833 61.792 C 42.833 62.076,50.445 69.667,50.729 69.667 C 50.788 69.667,51.380 70.106,52.043 70.643 C 52.707 71.180,53.550 71.785,53.917 71.986 C 54.283 72.188,55.033 72.607,55.583 72.919 C 56.133 73.230,56.696 73.488,56.833 73.493 C 56.971 73.498,57.287 73.608,57.535 73.738 C 59.028 74.516,63.286 74.581,64.000 73.836 C 64.046 73.789,64.294 73.641,64.552 73.508 C 65.130 73.210,66.045 71.978,66.352 71.083 C 66.478 70.717,66.634 70.378,66.697 70.330 C 67.280 69.893,67.248 58.833,66.665 58.833 C 66.599 58.833,66.496 58.344,66.435 57.745 C 66.138 54.854,65.968 54.751,62.250 55.220 " stroke="none" fill="#fc4454" fill-rule="evenodd"></path><path id="path1" d="M35.946 25.567 C 34.984 26.043,34.390 26.573,34.061 27.250 C 33.809 27.769,33.476 28.356,32.105 30.697 C 31.658 31.460,31.129 32.383,30.928 32.750 C 30.384 33.744,30.093 34.240,30.000 34.333 C 29.901 34.432,29.404 35.337,28.975 36.198 C 28.807 36.536,28.599 36.856,28.512 36.909 C 28.426 36.962,28.270 37.417,28.166 37.920 C 28.009 38.678,27.915 38.837,27.613 38.853 C 27.275 38.871,27.273 38.878,27.583 38.955 C 28.007 39.061,28.161 39.302,28.164 39.861 C 28.166 40.106,28.420 40.781,28.730 41.361 C 29.040 41.942,29.434 42.679,29.605 43.000 C 29.776 43.321,29.973 43.608,30.042 43.639 C 30.110 43.669,30.167 43.770,30.167 43.863 C 30.167 43.956,30.310 44.233,30.485 44.479 C 30.786 44.902,31.395 45.972,31.967 47.083 C 32.108 47.358,32.474 47.957,32.779 48.414 C 33.084 48.872,33.333 49.308,33.333 49.384 C 33.333 49.461,33.558 49.850,33.833 50.250 C 34.108 50.650,34.333 51.044,34.333 51.126 C 34.333 51.305,34.922 51.824,35.500 52.156 C 36.738 52.866,36.535 52.850,43.532 52.799 L 50.250 52.750 51.024 52.212 C 51.812 51.665,52.833 50.445,52.833 50.050 C 52.833 49.931,52.905 49.833,52.992 49.833 C 53.080 49.833,53.307 49.515,53.497 49.125 C 53.928 48.245,54.518 47.170,55.167 46.083 C 55.441 45.625,55.758 45.063,55.871 44.833 C 55.984 44.604,56.116 44.379,56.163 44.333 C 56.260 44.241,56.526 43.787,57.142 42.667 C 58.467 40.257,58.529 40.099,58.545 39.047 C 58.564 37.912,58.509 37.756,57.357 35.667 C 57.129 35.254,56.807 34.659,56.641 34.345 C 56.474 34.030,56.281 33.730,56.211 33.678 C 56.084 33.584,55.671 32.869,55.000 31.583 C 54.809 31.217,54.468 30.617,54.243 30.250 C 54.018 29.883,53.681 29.265,53.493 28.875 C 53.305 28.485,53.088 28.167,53.010 28.167 C 52.933 28.167,52.823 27.981,52.766 27.753 C 52.628 27.206,51.761 26.234,50.924 25.689 L 50.250 25.250 43.500 25.210 L 36.750 25.169 35.946 25.567 " stroke="none" fill="#fcdc4c" fill-rule="evenodd"></path><path id="path2" d="M24.750 0.092 C 24.567 0.135,24.012 0.252,23.518 0.352 C 22.529 0.553,21.165 1.212,20.952 1.591 C 20.878 1.724,20.727 1.834,20.617 1.835 C 20.361 1.837,19.333 2.889,19.333 3.148 C 19.333 3.256,19.223 3.386,19.087 3.438 C 18.824 3.539,17.667 5.808,17.667 6.223 C 17.667 6.360,17.597 6.497,17.511 6.528 C 17.425 6.558,17.270 7.258,17.166 8.083 C 17.061 8.908,16.906 9.714,16.821 9.873 C 16.622 10.246,16.619 15.747,16.818 16.127 C 16.902 16.286,17.059 17.429,17.169 18.667 C 17.278 19.904,17.419 20.954,17.483 21.000 C 17.645 21.117,18.033 23.979,17.913 24.173 C 17.858 24.261,17.668 24.333,17.490 24.333 C 17.312 24.333,17.167 24.395,17.167 24.469 C 17.167 24.544,16.679 24.702,16.083 24.821 C 15.487 24.939,15.000 25.090,15.000 25.157 C 15.000 25.223,14.438 25.418,13.750 25.589 C 13.062 25.760,12.500 25.948,12.500 26.007 C 12.500 26.065,12.012 26.253,11.417 26.423 C 10.821 26.593,10.333 26.790,10.333 26.860 C 10.333 26.930,10.033 27.077,9.667 27.186 C 9.300 27.296,9.000 27.443,9.000 27.513 C 9.000 27.584,8.745 27.725,8.434 27.828 C 8.122 27.930,7.698 28.161,7.492 28.341 C 7.285 28.520,7.018 28.667,6.899 28.667 C 6.781 28.667,6.623 28.760,6.550 28.875 C 6.477 28.990,6.163 29.225,5.852 29.398 C 5.167 29.780,5.092 29.843,3.417 31.462 C 2.683 32.171,1.971 32.976,1.834 33.250 C 1.696 33.525,1.490 33.810,1.375 33.883 C 1.261 33.957,1.167 34.120,1.167 34.246 C 1.167 34.373,1.061 34.581,0.933 34.710 C -0.220 35.863,-0.287 42.233,0.843 43.313 C 0.998 43.462,1.182 43.768,1.252 43.994 C 1.321 44.219,1.556 44.544,1.772 44.714 C 1.989 44.885,2.167 45.094,2.167 45.180 C 2.167 45.341,3.618 46.833,3.775 46.833 C 3.824 46.833,4.170 47.096,4.545 47.417 C 4.920 47.738,5.326 48.000,5.447 48.000 C 5.568 48.000,5.667 48.071,5.667 48.159 C 5.667 48.246,5.948 48.450,6.292 48.612 C 6.635 48.773,7.062 49.039,7.240 49.203 C 7.417 49.366,7.661 49.500,7.781 49.500 C 7.902 49.500,8.000 49.560,8.000 49.634 C 8.000 49.707,8.375 49.902,8.833 50.067 C 9.292 50.232,9.667 50.422,9.667 50.490 C 9.667 50.558,9.967 50.712,10.333 50.833 C 10.700 50.954,11.000 51.098,11.000 51.152 C 11.000 51.206,11.469 51.398,12.042 51.579 C 12.615 51.760,13.169 51.990,13.273 52.090 C 13.377 52.190,13.897 52.369,14.429 52.488 C 14.960 52.607,15.492 52.802,15.611 52.920 C 15.730 53.039,16.128 53.187,16.497 53.249 C 16.865 53.312,17.167 53.431,17.167 53.515 C 17.167 53.598,17.354 53.667,17.583 53.667 C 17.813 53.667,18.000 53.740,18.000 53.830 C 18.000 54.309,17.582 56.333,17.483 56.333 C 17.420 56.333,17.282 56.990,17.176 57.792 C 17.071 58.594,16.915 59.378,16.829 59.534 C 16.332 60.440,16.316 69.493,16.812 69.827 C 16.884 69.877,17.042 70.385,17.161 70.958 C 17.281 71.531,17.430 72.000,17.492 72.000 C 17.555 72.000,17.736 72.413,17.895 72.917 C 18.054 73.421,18.257 73.833,18.346 73.833 C 18.435 73.833,18.580 74.021,18.667 74.250 C 18.754 74.479,18.902 74.667,18.996 74.667 C 19.090 74.667,19.167 74.769,19.167 74.893 C 19.167 75.155,20.019 76.004,21.472 77.191 C 22.772 78.253,30.961 78.266,31.646 77.208 C 31.703 77.119,32.031 76.946,32.375 76.823 C 32.719 76.700,33.000 76.547,33.000 76.483 C 33.000 76.419,33.375 76.232,33.833 76.067 C 34.292 75.902,34.667 75.707,34.667 75.634 C 34.667 75.560,34.765 75.500,34.885 75.500 C 35.005 75.500,35.256 75.358,35.443 75.184 C 35.629 75.011,36.037 74.738,36.349 74.578 C 36.661 74.419,36.977 74.186,37.050 74.061 C 37.123 73.936,37.291 73.833,37.424 73.833 C 37.556 73.833,37.758 73.683,37.872 73.500 C 37.987 73.317,38.156 73.167,38.248 73.166 C 38.402 73.166,38.725 72.925,39.806 72.000 C 40.020 71.817,40.262 71.667,40.344 71.667 C 40.425 71.667,40.615 71.479,40.765 71.250 C 40.915 71.021,41.133 70.833,41.250 70.833 C 41.366 70.833,41.732 70.533,42.064 70.167 C 42.395 69.800,42.723 69.500,42.793 69.500 C 42.863 69.500,43.130 69.305,43.386 69.068 L 43.853 68.635 44.770 69.568 C 45.275 70.080,45.742 70.500,45.807 70.500 C 45.909 70.500,47.102 71.550,48.268 72.664 C 48.461 72.849,48.702 73.000,48.803 73.000 C 48.905 73.000,49.069 73.150,49.167 73.333 C 49.265 73.517,49.451 73.667,49.580 73.667 C 49.709 73.667,49.912 73.801,50.032 73.966 C 50.152 74.131,50.531 74.397,50.875 74.557 C 51.219 74.718,51.500 74.905,51.500 74.974 C 51.500 75.043,51.762 75.195,52.083 75.311 C 52.404 75.427,52.667 75.584,52.667 75.661 C 52.667 75.737,53.042 75.935,53.500 76.100 C 53.958 76.264,54.333 76.458,54.333 76.531 C 54.333 76.603,54.671 76.747,55.083 76.851 C 55.496 76.955,55.833 77.091,55.833 77.155 C 55.833 77.296,57.048 77.603,58.500 77.829 C 61.093 78.232,64.506 77.872,65.676 77.072 C 66.001 76.849,66.323 76.667,66.391 76.667 C 66.459 76.667,66.927 76.235,67.432 75.708 C 68.605 74.483,68.709 74.352,69.005 73.750 C 69.140 73.475,69.332 73.162,69.433 73.055 C 69.533 72.948,69.712 72.405,69.830 71.847 C 69.949 71.290,70.100 70.833,70.168 70.833 C 70.770 70.833,70.782 58.436,70.180 58.000 C 70.079 57.927,69.500 54.413,69.500 53.872 C 69.500 53.759,69.612 53.667,69.750 53.667 C 69.887 53.667,70.000 53.592,70.000 53.500 C 70.000 53.408,70.149 53.333,70.331 53.333 C 70.792 53.333,72.167 52.953,72.167 52.826 C 72.167 52.768,72.767 52.584,73.500 52.417 C 74.233 52.249,74.833 52.055,74.833 51.985 C 74.833 51.914,75.246 51.737,75.750 51.591 C 76.254 51.444,76.667 51.259,76.667 51.181 C 76.667 51.102,76.927 50.988,77.245 50.929 C 77.563 50.869,77.919 50.728,78.036 50.616 C 78.154 50.503,78.569 50.269,78.958 50.097 C 79.348 49.924,79.667 49.719,79.667 49.641 C 79.667 49.564,79.779 49.500,79.917 49.500 C 80.054 49.500,80.300 49.366,80.464 49.203 C 80.627 49.039,81.032 48.777,81.362 48.620 C 81.693 48.463,82.007 48.222,82.060 48.084 C 82.113 47.946,82.252 47.833,82.370 47.833 C 82.636 47.832,85.000 45.470,85.000 45.205 C 85.000 45.099,85.134 44.940,85.297 44.853 C 85.460 44.765,85.699 44.425,85.828 44.097 C 85.957 43.769,86.117 43.500,86.185 43.500 C 86.252 43.500,86.394 43.237,86.500 42.917 C 86.606 42.596,86.751 42.333,86.823 42.333 C 87.052 42.333,87.333 40.495,87.333 39.000 C 87.333 37.505,87.052 35.667,86.823 35.667 C 86.751 35.667,86.606 35.404,86.500 35.083 C 86.394 34.762,86.257 34.500,86.194 34.500 C 86.132 34.500,85.976 34.256,85.846 33.958 C 85.717 33.660,85.471 33.267,85.300 33.083 C 85.130 32.900,84.759 32.469,84.478 32.125 C 84.196 31.781,83.898 31.500,83.816 31.500 C 83.733 31.500,83.422 31.253,83.125 30.952 C 82.827 30.650,82.377 30.300,82.125 30.173 C 81.873 30.047,81.667 29.893,81.667 29.830 C 81.667 29.768,81.367 29.582,81.000 29.417 C 80.633 29.251,80.333 29.052,80.333 28.975 C 80.333 28.897,80.251 28.833,80.151 28.833 C 80.050 28.833,79.765 28.688,79.516 28.511 C 79.268 28.334,78.731 28.058,78.324 27.898 C 77.917 27.738,77.546 27.557,77.500 27.498 C 77.354 27.307,75.609 26.539,74.875 26.343 C 74.485 26.239,74.167 26.097,74.167 26.028 C 74.167 25.959,73.642 25.759,73.000 25.583 C 72.358 25.408,71.833 25.210,71.833 25.144 C 71.833 25.078,71.421 24.932,70.917 24.819 C 70.412 24.706,70.000 24.551,70.000 24.473 C 70.000 24.396,69.813 24.333,69.583 24.333 C 69.324 24.333,69.167 24.239,69.167 24.083 C 69.167 23.946,69.225 23.833,69.297 23.833 C 69.426 23.833,70.003 20.740,70.001 20.056 C 70.001 19.857,70.069 19.669,70.154 19.639 C 70.357 19.566,70.667 16.720,70.667 14.923 C 70.667 14.086,70.735 13.500,70.833 13.500 C 70.925 13.500,71.000 13.350,71.000 13.167 C 71.000 12.983,70.925 12.833,70.833 12.833 C 70.736 12.833,70.667 12.268,70.667 11.472 C 70.667 10.093,70.382 7.986,70.176 7.833 C 70.113 7.787,69.968 7.319,69.853 6.792 C 69.737 6.264,69.547 5.737,69.430 5.620 C 69.313 5.503,69.123 5.123,69.008 4.775 C 68.894 4.428,68.695 4.103,68.567 4.054 C 68.438 4.005,68.333 3.864,68.333 3.742 C 68.333 3.619,68.202 3.421,68.042 3.301 C 67.881 3.181,67.640 2.871,67.506 2.611 C 67.372 2.351,67.049 2.028,66.789 1.894 C 66.528 1.759,66.170 1.503,65.991 1.324 C 65.813 1.146,65.554 1.000,65.417 1.000 C 65.279 1.000,65.167 0.935,65.167 0.855 C 65.167 0.482,63.053 0.096,61.000 0.095 C 58.938 0.094,56.167 0.530,56.167 0.855 C 56.167 0.932,55.829 1.080,55.417 1.184 C 55.004 1.288,54.667 1.431,54.667 1.503 C 54.667 1.575,54.292 1.768,53.833 1.933 C 53.375 2.098,53.000 2.297,53.000 2.375 C 53.000 2.453,52.775 2.596,52.500 2.692 C 52.225 2.788,52.000 2.917,52.000 2.978 C 52.000 3.040,51.719 3.238,51.375 3.419 C 51.031 3.599,50.690 3.841,50.617 3.957 C 50.543 4.072,50.391 4.167,50.277 4.167 C 50.164 4.167,49.811 4.389,49.494 4.660 C 49.176 4.931,48.841 5.156,48.748 5.160 C 48.656 5.164,48.487 5.317,48.372 5.500 C 48.258 5.683,48.079 5.833,47.974 5.833 C 47.870 5.833,47.627 5.984,47.434 6.169 C 46.413 7.146,45.612 7.833,45.493 7.833 C 45.420 7.833,45.113 8.096,44.810 8.417 C 44.508 8.738,44.169 9.000,44.059 9.000 C 43.948 9.000,43.833 9.126,43.804 9.281 C 43.763 9.492,43.543 9.347,42.916 8.698 C 42.458 8.224,42.032 7.835,41.970 7.834 C 41.907 7.834,41.382 7.385,40.803 6.837 C 39.408 5.518,39.007 5.167,38.896 5.167 C 38.845 5.167,38.496 4.904,38.121 4.583 C 37.747 4.263,37.341 4.000,37.220 4.000 C 37.099 4.000,37.000 3.929,37.000 3.841 C 37.000 3.754,36.721 3.550,36.381 3.388 C 36.040 3.227,35.627 2.961,35.464 2.797 C 35.300 2.634,35.054 2.500,34.917 2.500 C 34.779 2.500,34.666 2.444,34.665 2.375 C 34.664 2.306,34.345 2.101,33.956 1.919 C 33.568 1.737,33.212 1.547,33.167 1.496 C 33.121 1.444,32.746 1.296,32.333 1.167 C 31.921 1.037,31.546 0.881,31.500 0.820 C 31.188 0.405,25.871 -0.168,24.750 0.092 M28.428 3.843 C 28.972 3.939,29.735 4.164,30.123 4.343 C 30.512 4.521,30.904 4.667,30.994 4.667 C 31.195 4.667,32.914 5.585,33.526 6.019 C 33.769 6.192,34.021 6.333,34.086 6.333 C 34.212 6.333,36.497 8.073,37.131 8.652 C 37.340 8.843,37.554 9.000,37.606 9.000 C 37.793 9.000,40.948 12.071,42.634 13.893 C 43.579 14.915,44.610 16.020,44.926 16.351 C 45.242 16.681,45.500 17.002,45.500 17.064 C 45.500 17.126,45.913 17.663,46.417 18.257 C 47.492 19.524,47.625 20.224,46.924 20.924 C 46.516 21.332,46.507 21.333,43.055 21.333 C 39.103 21.333,33.412 21.610,32.917 21.827 C 32.733 21.907,31.533 22.063,30.250 22.173 C 28.967 22.283,27.842 22.427,27.750 22.493 C 27.658 22.559,26.400 22.752,24.953 22.923 L 22.323 23.232 21.919 22.824 C 21.589 22.492,21.476 22.123,21.309 20.833 C 21.196 19.962,21.052 19.212,20.988 19.167 C 20.401 18.746,20.395 9.250,20.980 7.917 C 21.061 7.733,21.266 7.246,21.436 6.833 C 21.606 6.421,21.802 6.008,21.870 5.917 C 23.369 3.913,25.333 3.292,28.428 3.843 M63.774 4.471 C 64.816 5.123,65.912 6.500,66.265 7.601 C 66.409 8.050,66.594 8.567,66.677 8.750 C 67.300 10.132,67.270 19.000,66.642 19.000 C 66.564 19.000,66.500 19.217,66.500 19.482 C 66.500 20.091,66.006 22.528,65.837 22.750 C 65.767 22.842,65.617 23.423,65.503 24.042 C 65.389 24.660,65.244 25.167,65.181 25.167 C 65.118 25.167,64.970 25.635,64.852 26.208 C 64.733 26.781,64.502 27.550,64.337 27.917 C 64.173 28.283,63.982 28.846,63.913 29.167 C 63.845 29.488,63.649 30.011,63.478 30.331 C 63.307 30.650,63.167 31.030,63.167 31.174 C 63.167 31.318,63.057 31.582,62.922 31.760 C 62.787 31.938,62.675 32.212,62.672 32.369 C 62.659 33.055,61.103 33.245,60.568 32.625 C 60.094 32.076,59.500 31.200,59.499 31.048 C 59.498 30.976,59.161 30.429,58.750 29.833 C 58.339 29.238,57.999 28.675,57.996 28.583 C 57.993 28.492,57.768 28.122,57.495 27.762 C 57.223 27.402,57.000 27.042,57.000 26.963 C 57.000 26.884,56.714 26.429,56.364 25.951 C 56.014 25.474,55.678 24.952,55.619 24.792 C 55.559 24.631,55.433 24.500,55.339 24.500 C 55.244 24.500,55.167 24.411,55.167 24.302 C 55.167 24.193,54.829 23.674,54.417 23.149 C 54.004 22.624,53.667 22.144,53.667 22.082 C 53.667 21.967,52.077 19.826,51.596 19.292 C 51.452 19.131,51.333 18.960,51.333 18.911 C 51.333 18.790,48.971 15.859,48.432 15.311 C 48.194 15.069,48.000 14.818,48.000 14.753 C 48.000 14.688,47.700 14.294,47.333 13.877 C 46.590 13.033,46.468 12.330,46.962 11.739 C 47.450 11.155,49.601 9.333,49.802 9.333 C 49.907 9.333,50.115 9.146,50.265 8.917 C 50.415 8.688,50.623 8.497,50.728 8.493 C 50.832 8.490,51.176 8.265,51.494 7.993 C 51.811 7.722,52.167 7.500,52.285 7.500 C 52.403 7.500,52.500 7.423,52.500 7.328 C 52.500 7.234,52.631 7.110,52.792 7.053 C 52.952 6.997,53.308 6.788,53.583 6.588 C 54.179 6.156,57.435 4.500,57.689 4.500 C 57.787 4.500,58.103 4.393,58.391 4.261 C 59.832 3.606,62.562 3.713,63.774 4.471 M233.909 23.417 C 233.909 26.808,233.931 28.172,233.958 26.447 C 233.985 24.723,233.985 21.948,233.958 20.281 C 233.931 18.614,233.909 20.025,233.909 23.417 M49.903 25.145 C 49.953 25.225,50.219 25.335,50.496 25.391 C 51.120 25.516,52.335 26.615,52.762 27.443 C 52.939 27.785,53.559 28.856,54.141 29.824 C 54.723 30.792,55.268 31.733,55.351 31.917 C 55.434 32.100,55.728 32.625,56.004 33.083 C 56.279 33.542,56.657 34.235,56.843 34.625 C 57.030 35.015,57.242 35.333,57.314 35.333 C 57.387 35.333,57.544 35.629,57.664 35.991 C 57.783 36.353,57.974 36.685,58.088 36.729 C 58.365 36.835,58.705 38.859,58.575 39.632 C 58.428 40.509,58.161 41.333,58.024 41.333 C 57.959 41.333,57.813 41.540,57.699 41.792 C 57.584 42.044,57.272 42.625,57.004 43.083 C 56.736 43.542,56.359 44.217,56.167 44.583 C 55.726 45.421,55.141 46.447,54.101 48.205 C 53.653 48.963,53.139 49.877,52.959 50.236 C 52.521 51.111,51.078 52.493,50.477 52.613 C 50.211 52.666,49.953 52.775,49.903 52.855 C 49.774 53.064,36.879 53.042,36.750 52.833 C 36.693 52.742,36.528 52.667,36.382 52.667 C 36.060 52.667,34.333 51.542,34.333 51.332 C 34.333 51.201,34.157 50.910,33.327 49.667 C 33.142 49.389,32.703 48.598,32.171 47.583 C 31.979 47.217,31.599 46.542,31.327 46.083 C 31.054 45.625,30.740 45.063,30.627 44.833 C 30.515 44.604,30.365 44.374,30.293 44.322 C 30.221 44.270,29.983 43.895,29.764 43.489 C 28.623 41.372,28.166 40.377,28.161 40.001 C 28.155 39.487,27.850 39.064,27.413 38.962 C 27.086 38.886,27.086 38.884,27.417 38.743 C 27.941 38.521,28.107 38.289,28.237 37.596 C 28.303 37.242,28.477 36.769,28.622 36.547 C 28.984 35.995,29.416 35.220,29.833 34.375 C 30.025 33.985,30.242 33.667,30.314 33.667 C 30.387 33.667,30.546 33.367,30.667 33.000 C 30.788 32.633,30.946 32.333,31.019 32.333 C 31.092 32.333,31.305 32.015,31.493 31.625 C 31.681 31.235,32.055 30.542,32.324 30.083 C 32.594 29.625,32.901 29.044,33.007 28.792 C 33.113 28.540,33.248 28.332,33.308 28.331 C 33.368 28.330,33.565 28.012,33.746 27.623 C 34.181 26.692,35.143 25.754,35.941 25.483 C 36.294 25.363,36.655 25.206,36.742 25.133 C 36.958 24.951,49.791 24.963,49.903 25.145 M29.160 26.365 C 29.519 26.749,29.637 27.895,29.338 28.080 C 29.249 28.135,29.025 28.496,28.841 28.882 C 28.656 29.268,28.239 30.033,27.913 30.583 C 27.587 31.133,27.277 31.715,27.224 31.875 C 27.171 32.035,27.062 32.167,26.981 32.167 C 26.900 32.167,26.833 32.254,26.833 32.360 C 26.833 32.614,25.620 35.067,25.458 35.139 C 25.390 35.169,25.333 35.267,25.333 35.355 C 25.333 35.532,24.139 38.034,23.991 38.167 C 23.940 38.212,23.802 38.512,23.686 38.833 C 23.569 39.154,23.295 39.792,23.078 40.250 C 22.860 40.708,22.524 41.458,22.331 41.917 C 22.137 42.375,21.876 42.975,21.749 43.250 C 21.622 43.525,21.397 44.123,21.249 44.579 C 21.100 45.035,20.919 45.485,20.847 45.579 C 20.774 45.673,20.613 46.106,20.488 46.542 C 20.363 46.977,20.215 47.333,20.160 47.333 C 20.105 47.333,19.958 47.708,19.834 48.166 C 19.491 49.422,19.067 49.737,17.883 49.615 C 17.355 49.561,16.896 49.437,16.864 49.341 C 16.832 49.245,16.708 49.167,16.589 49.167 C 16.280 49.167,14.600 48.622,14.500 48.489 C 14.454 48.428,14.229 48.323,14.000 48.255 C 13.589 48.134,12.875 47.820,10.917 46.897 C 9.969 46.450,8.992 45.875,8.549 45.502 C 8.438 45.409,8.270 45.333,8.176 45.333 C 8.082 45.333,7.518 44.921,6.924 44.417 C 6.330 43.913,5.764 43.500,5.666 43.500 C 5.569 43.500,5.440 43.369,5.378 43.208 C 5.317 43.048,4.950 42.526,4.562 42.049 C 3.461 40.696,3.286 37.760,4.222 36.346 C 4.467 35.976,4.667 35.625,4.667 35.564 C 4.667 35.504,4.835 35.283,5.042 35.074 C 5.248 34.864,5.591 34.461,5.804 34.179 C 6.018 33.897,6.296 33.667,6.423 33.667 C 6.551 33.667,6.737 33.513,6.838 33.325 C 6.938 33.138,7.184 32.911,7.385 32.822 C 7.586 32.733,8.050 32.439,8.417 32.169 C 9.107 31.661,12.434 29.964,13.167 29.746 C 13.396 29.678,13.621 29.571,13.667 29.509 C 13.713 29.447,14.275 29.259,14.917 29.091 C 15.558 28.923,16.159 28.727,16.252 28.655 C 16.345 28.583,16.795 28.437,17.252 28.329 C 17.709 28.222,18.308 28.036,18.583 27.918 C 18.858 27.799,19.646 27.607,20.333 27.491 C 21.021 27.375,21.658 27.226,21.750 27.159 C 21.842 27.093,22.479 26.950,23.167 26.843 C 23.854 26.735,24.567 26.578,24.750 26.492 C 25.150 26.307,26.943 26.049,28.035 26.021 C 28.645 26.005,28.896 26.081,29.160 26.365 M70.833 28.614 C 71.246 28.801,71.940 29.055,72.375 29.180 C 72.810 29.304,73.167 29.457,73.167 29.518 C 73.167 29.580,73.373 29.682,73.625 29.745 C 74.556 29.979,78.982 32.258,79.217 32.625 C 79.290 32.740,79.457 32.833,79.588 32.833 C 80.075 32.833,82.764 35.705,83.245 36.739 C 83.963 38.281,83.576 41.550,82.625 41.972 C 82.556 42.003,82.500 42.128,82.500 42.250 C 82.500 42.543,80.039 45.000,79.746 45.000 C 79.621 45.000,79.420 45.131,79.299 45.292 C 79.080 45.583,78.840 45.741,77.583 46.427 C 76.236 47.161,74.808 47.824,73.833 48.167 C 73.512 48.280,73.025 48.469,72.750 48.587 C 72.475 48.705,71.912 48.893,71.500 49.005 C 71.087 49.117,70.525 49.305,70.250 49.424 C 69.975 49.542,69.450 49.693,69.083 49.758 C 68.717 49.823,68.342 49.932,68.250 49.999 C 68.158 50.065,67.371 50.248,66.500 50.404 C 65.629 50.560,64.786 50.758,64.626 50.845 C 64.466 50.931,63.753 51.081,63.043 51.177 C 62.332 51.273,61.616 51.425,61.451 51.515 C 60.815 51.863,58.527 51.909,58.166 51.582 C 57.816 51.266,57.678 49.782,57.981 49.595 C 58.062 49.545,58.289 49.185,58.486 48.794 C 58.683 48.403,59.097 47.633,59.406 47.083 C 60.111 45.828,63.646 38.758,64.239 37.417 C 64.482 36.867,64.823 36.117,64.997 35.750 C 65.170 35.383,65.434 34.710,65.584 34.254 C 65.733 33.798,65.915 33.348,65.989 33.254 C 66.063 33.160,66.218 32.783,66.333 32.417 C 66.449 32.050,66.602 31.675,66.673 31.583 C 66.744 31.492,66.926 30.987,67.079 30.461 C 67.231 29.936,67.425 29.463,67.511 29.410 C 67.597 29.357,67.667 29.193,67.667 29.045 C 67.667 28.114,69.250 27.898,70.833 28.614 M233.910 44.167 C 233.910 47.971,233.931 49.527,233.958 47.625 C 233.985 45.723,233.985 42.610,233.958 40.708 C 233.931 38.806,233.910 40.362,233.910 44.167 M26.383 45.308 C 26.679 45.425,26.871 45.698,27.451 46.833 C 27.616 47.154,27.810 47.461,27.883 47.515 C 28.008 47.607,28.365 48.211,28.860 49.167 C 28.979 49.396,29.397 50.030,29.788 50.575 C 30.180 51.120,30.500 51.630,30.500 51.707 C 30.500 51.784,30.800 52.254,31.167 52.750 C 31.533 53.246,31.833 53.707,31.833 53.773 C 31.833 53.839,32.246 54.432,32.750 55.090 C 33.254 55.749,33.667 56.339,33.667 56.402 C 33.667 56.507,35.467 58.853,36.076 59.542 C 36.217 59.702,36.333 59.877,36.333 59.931 C 36.333 59.985,36.896 60.696,37.583 61.511 C 38.271 62.326,38.833 63.048,38.833 63.115 C 38.833 63.183,38.981 63.391,39.162 63.577 C 41.140 65.617,40.900 66.621,37.958 68.620 C 37.615 68.853,37.333 69.109,37.333 69.189 C 37.333 69.268,37.250 69.333,37.147 69.333 C 37.045 69.333,36.484 69.708,35.901 70.167 C 35.318 70.625,34.783 71.002,34.712 71.005 C 34.641 71.007,34.289 71.232,33.929 71.505 C 33.569 71.777,33.175 72.000,33.054 72.000 C 32.932 72.000,32.833 72.066,32.833 72.147 C 32.833 72.307,30.512 73.500,30.201 73.500 C 30.096 73.500,29.695 73.664,29.309 73.865 C 26.727 75.211,22.581 74.084,21.439 71.725 C 21.268 71.372,21.029 70.892,20.908 70.658 C 20.786 70.425,20.596 69.712,20.483 69.075 C 20.371 68.438,20.217 67.845,20.140 67.758 C 19.936 67.527,19.962 62.000,20.167 62.000 C 20.258 62.000,20.333 61.728,20.333 61.396 C 20.333 60.467,20.837 57.270,21.011 57.092 C 21.097 57.005,21.167 56.784,21.167 56.602 C 21.167 56.185,21.638 54.193,21.841 53.750 C 21.925 53.567,22.074 53.045,22.172 52.590 C 22.270 52.136,22.410 51.686,22.482 51.590 C 22.555 51.495,22.747 50.929,22.909 50.333 C 23.070 49.737,23.256 49.175,23.321 49.083 C 23.387 48.992,23.542 48.579,23.667 48.167 C 23.791 47.754,23.945 47.342,24.008 47.250 C 24.072 47.158,24.213 46.803,24.324 46.461 C 24.653 45.438,25.505 44.962,26.383 45.308 M65.672 55.170 C 66.025 55.359,66.254 56.092,66.426 57.583 C 66.489 58.133,66.597 58.658,66.666 58.750 C 67.287 59.580,67.279 70.086,66.657 70.306 C 66.571 70.336,66.500 70.461,66.500 70.583 C 66.500 71.589,65.070 73.362,63.764 73.976 C 62.574 74.535,58.568 74.445,57.750 73.841 C 57.658 73.773,57.171 73.586,56.667 73.425 C 56.163 73.265,55.712 73.083,55.667 73.022 C 55.621 72.960,55.396 72.819,55.167 72.709 C 54.005 72.149,51.406 70.331,51.117 69.876 C 51.043 69.761,50.889 69.667,50.773 69.667 C 50.315 69.667,44.324 63.634,42.301 61.137 C 42.054 60.833,41.510 60.187,41.093 59.703 C 40.233 58.706,40.105 58.001,40.658 57.299 L 40.982 56.887 45.533 56.779 C 50.800 56.655,55.437 56.386,55.917 56.177 C 56.100 56.097,57.225 55.941,58.417 55.831 C 59.608 55.721,60.658 55.582,60.750 55.523 C 61.282 55.183,65.173 54.903,65.672 55.170 " stroke="none" fill="#042c3c" fill-rule="evenodd"></path><path id="path3" d="M233.039 17.591 C 232.837 17.733,232.426 17.934,232.127 18.038 C 231.828 18.142,231.494 18.317,231.384 18.426 C 231.275 18.535,230.843 18.725,230.426 18.849 C 230.008 18.972,229.667 19.119,229.667 19.176 C 229.667 19.233,229.367 19.379,229.000 19.500 C 228.633 19.621,228.333 19.773,228.333 19.837 C 228.333 19.902,227.977 20.089,227.542 20.254 C 227.106 20.418,226.713 20.601,226.667 20.661 C 226.621 20.720,226.321 20.873,226.000 21.000 C 225.154 21.335,225.172 21.235,225.169 25.542 L 225.167 29.500 223.167 29.500 L 221.167 29.500 221.167 33.250 C 221.167 37.009,221.059 37.652,220.665 36.245 C 220.549 35.830,220.366 35.437,220.259 35.370 C 220.152 35.304,219.965 35.006,219.845 34.708 C 219.725 34.410,219.572 34.167,219.507 34.167 C 219.441 34.167,219.308 33.994,219.212 33.784 C 218.961 33.231,217.500 31.667,217.236 31.667 C 217.113 31.667,216.931 31.517,216.833 31.333 C 216.735 31.150,216.560 31.000,216.443 31.000 C 216.327 31.000,215.978 30.813,215.669 30.585 C 215.360 30.357,214.858 30.124,214.554 30.067 C 214.249 30.010,214.000 29.905,214.000 29.835 C 214.000 29.648,212.727 29.357,211.356 29.229 C 210.702 29.169,210.167 29.055,210.167 28.976 C 210.167 28.898,209.267 28.833,208.167 28.833 C 206.944 28.833,206.167 28.898,206.167 29.000 C 206.167 29.092,205.939 29.167,205.660 29.167 C 204.973 29.167,202.676 29.650,202.440 29.844 C 202.336 29.930,201.738 30.265,201.111 30.589 C 200.485 30.914,199.773 31.364,199.530 31.589 C 199.286 31.815,198.992 32.000,198.877 32.000 C 198.761 32.000,198.665 32.056,198.664 32.125 C 198.662 32.236,198.390 32.577,197.369 33.750 C 197.209 33.933,196.973 34.290,196.844 34.542 C 196.716 34.794,196.557 35.000,196.492 35.000 C 196.427 35.000,196.274 35.244,196.152 35.542 C 196.030 35.840,195.842 36.174,195.733 36.285 C 195.625 36.397,195.442 36.884,195.327 37.369 C 195.212 37.853,195.049 38.295,194.965 38.350 C 194.881 38.405,194.726 38.967,194.621 39.600 C 194.515 40.232,194.351 40.804,194.256 40.869 C 194.010 41.038,194.022 48.038,194.269 48.349 C 194.371 48.478,194.505 49.031,194.566 49.577 C 194.628 50.124,194.783 50.783,194.912 51.040 C 195.040 51.298,195.265 51.920,195.411 52.421 C 195.557 52.923,195.741 53.333,195.820 53.333 C 195.899 53.333,196.007 53.507,196.061 53.719 C 196.114 53.930,196.347 54.324,196.578 54.594 C 196.810 54.863,197.000 55.141,197.000 55.211 C 197.000 55.416,199.388 57.774,199.708 57.887 C 199.869 57.943,200.000 58.067,200.000 58.161 C 200.000 58.256,200.077 58.333,200.170 58.333 C 200.264 58.333,200.620 58.513,200.962 58.733 C 201.304 58.952,201.883 59.226,202.250 59.340 C 202.617 59.455,202.954 59.605,203.000 59.673 C 203.046 59.742,203.683 59.889,204.417 59.999 C 205.150 60.110,205.880 60.268,206.039 60.350 C 206.437 60.556,209.955 60.542,210.083 60.333 C 210.140 60.242,210.432 60.167,210.732 60.167 C 211.443 60.167,213.197 59.825,213.437 59.639 C 213.540 59.560,214.008 59.381,214.479 59.241 C 214.949 59.101,215.333 58.933,215.333 58.868 C 215.333 58.802,215.577 58.640,215.875 58.509 C 216.173 58.377,216.553 58.097,216.720 57.885 C 216.887 57.673,217.112 57.495,217.220 57.489 C 217.328 57.483,217.586 57.277,217.793 57.031 C 218.001 56.785,218.394 56.323,218.668 56.005 C 218.942 55.686,219.167 55.373,219.167 55.308 C 219.167 55.243,219.265 55.091,219.386 54.970 C 219.684 54.670,220.833 52.256,220.833 51.930 C 220.833 51.785,220.905 51.667,220.994 51.667 C 221.197 51.667,221.552 50.375,221.433 50.066 C 221.384 49.938,221.154 49.833,220.922 49.833 C 220.690 49.833,220.500 49.768,220.500 49.688 C 220.500 49.609,220.031 49.452,219.458 49.339 C 218.885 49.227,218.342 49.076,218.250 49.002 C 218.158 48.929,217.483 48.738,216.750 48.578 C 216.017 48.417,215.379 48.234,215.333 48.171 C 214.949 47.642,212.833 47.636,212.833 48.165 C 212.833 48.336,212.731 48.579,212.605 48.704 C 212.480 48.830,212.321 49.109,212.253 49.325 C 212.047 49.972,210.573 51.295,209.744 51.577 C 208.473 52.008,206.269 51.795,206.048 51.218 C 206.002 51.098,205.879 50.999,205.774 50.998 C 205.500 50.996,204.565 49.984,204.427 49.542 C 204.363 49.335,204.247 49.167,204.168 49.167 C 204.090 49.167,203.934 48.885,203.822 48.542 C 203.710 48.198,203.558 47.877,203.484 47.828 C 203.002 47.512,202.978 42.031,203.457 41.678 C 203.527 41.626,203.689 41.283,203.816 40.917 C 203.943 40.550,204.093 40.212,204.148 40.167 C 204.307 40.036,204.667 39.445,204.769 39.146 C 204.820 38.997,205.059 38.772,205.301 38.646 C 205.542 38.520,205.869 38.290,206.027 38.134 C 206.185 37.979,206.581 37.802,206.907 37.741 C 207.233 37.680,207.500 37.563,207.500 37.481 C 207.500 37.400,207.875 37.333,208.333 37.333 C 208.792 37.333,209.167 37.402,209.167 37.485 C 209.167 37.569,209.472 37.689,209.845 37.752 C 210.218 37.815,210.564 37.972,210.613 38.100 C 210.662 38.228,210.797 38.333,210.914 38.333 C 211.169 38.333,212.332 39.665,212.333 39.958 C 212.333 40.073,212.408 40.167,212.500 40.167 C 212.592 40.167,212.667 40.265,212.667 40.385 C 212.667 41.147,215.260 41.232,215.833 40.489 C 215.879 40.430,216.310 40.281,216.792 40.159 C 217.273 40.037,217.667 39.888,217.667 39.829 C 217.667 39.770,218.267 39.584,219.000 39.417 C 219.733 39.249,220.333 39.055,220.333 38.986 C 220.333 38.917,220.567 38.808,220.853 38.746 C 221.347 38.637,221.368 38.600,221.285 37.982 L 221.198 37.333 223.172 37.333 L 225.145 37.333 225.198 46.042 C 225.235 52.243,225.305 54.846,225.443 55.083 C 225.549 55.267,225.724 55.754,225.831 56.167 C 226.147 57.374,227.252 58.813,228.264 59.333 C 228.531 59.470,228.787 59.624,228.833 59.675 C 228.974 59.830,230.264 60.167,230.718 60.167 C 230.954 60.167,231.193 60.242,231.250 60.333 C 231.378 60.541,234.730 60.556,235.127 60.350 C 235.286 60.268,236.049 60.119,236.822 60.019 C 237.596 59.919,238.271 59.776,238.322 59.702 C 238.374 59.628,238.735 59.474,239.125 59.360 C 239.710 59.189,239.833 59.082,239.833 58.743 C 239.833 58.518,239.893 58.333,239.966 58.333 C 240.114 58.333,240.775 51.720,240.640 51.585 C 240.534 51.478,239.450 51.838,239.328 52.020 C 239.231 52.165,236.545 52.667,235.865 52.667 C 234.906 52.667,234.333 52.305,234.225 51.632 C 234.170 51.284,234.059 51.000,233.979 51.000 C 233.898 51.000,233.833 47.944,233.833 44.167 L 233.833 37.333 237.167 37.333 L 240.500 37.333 240.500 33.417 L 240.500 29.500 237.167 29.500 L 233.833 29.500 233.833 23.417 C 233.833 16.931,233.846 17.026,233.039 17.591 M266.375 18.112 C 265.985 18.153,265.667 18.245,265.667 18.316 C 265.667 18.388,265.140 18.541,264.496 18.656 C 263.852 18.771,263.233 18.954,263.121 19.064 C 263.009 19.173,262.598 19.356,262.208 19.471 C 261.819 19.586,261.500 19.737,261.500 19.807 C 261.500 19.876,261.254 20.022,260.954 20.131 C 260.387 20.336,260.000 20.598,259.114 21.375 C 258.827 21.627,258.545 21.833,258.488 21.833 C 258.337 21.833,257.333 22.812,257.333 22.960 C 257.332 23.028,257.068 23.383,256.745 23.750 C 255.805 24.818,255.760 24.878,255.550 25.368 C 255.440 25.624,255.283 25.833,255.201 25.833 C 255.120 25.833,254.954 26.133,254.833 26.500 C 254.712 26.867,254.565 27.167,254.506 27.167 C 254.447 27.167,254.264 27.542,254.100 28.000 C 253.935 28.458,253.743 28.833,253.673 28.833 C 253.603 28.833,253.450 29.283,253.333 29.833 C 253.217 30.383,253.064 30.833,252.995 30.833 C 252.855 30.833,252.332 33.488,252.333 34.194 C 252.333 34.439,252.240 34.670,252.125 34.708 C 251.966 34.761,251.917 35.787,251.917 39.083 C 251.917 42.380,251.966 43.405,252.125 43.458 C 252.240 43.497,252.333 43.733,252.333 43.985 C 252.333 44.643,252.850 47.568,252.984 47.667 C 253.046 47.712,253.204 48.087,253.333 48.500 C 253.463 48.913,253.618 49.288,253.677 49.333 C 253.736 49.379,253.914 49.810,254.072 50.292 C 254.231 50.773,254.421 51.167,254.495 51.167 C 254.570 51.167,254.682 51.373,254.745 51.625 C 254.809 51.877,255.004 52.218,255.180 52.381 C 255.356 52.545,255.500 52.770,255.500 52.881 C 255.500 52.993,255.669 53.283,255.875 53.528 C 256.738 54.550,256.826 54.667,256.736 54.667 C 256.684 54.667,257.167 55.192,257.810 55.833 C 258.453 56.475,259.056 57.000,259.150 57.000 C 259.245 57.000,259.399 57.144,259.493 57.320 C 259.587 57.496,259.889 57.689,260.164 57.749 C 260.440 57.810,260.721 57.949,260.791 58.059 C 260.994 58.381,262.531 59.101,263.511 59.333 C 264.009 59.452,264.456 59.608,264.503 59.681 C 264.551 59.753,265.264 59.900,266.087 60.006 C 266.910 60.113,267.714 60.268,267.873 60.350 C 268.249 60.545,272.084 60.545,272.461 60.350 C 272.847 60.151,275.442 59.822,275.737 59.935 C 275.865 59.984,276.060 60.244,276.172 60.512 C 276.283 60.780,276.424 61.000,276.484 61.000 C 276.545 61.000,276.737 61.244,276.910 61.542 C 277.083 61.840,277.276 62.121,277.339 62.167 C 277.402 62.212,277.578 62.494,277.731 62.792 C 277.884 63.090,278.068 63.333,278.140 63.333 C 278.212 63.333,278.374 63.596,278.500 63.917 C 278.768 64.598,279.066 64.647,279.785 64.125 C 280.070 63.919,280.440 63.658,280.609 63.545 C 281.953 62.647,282.275 62.451,282.614 62.322 C 282.826 62.241,283.000 62.109,283.000 62.029 C 283.000 61.949,283.300 61.749,283.667 61.583 C 284.033 61.418,284.333 61.227,284.333 61.160 C 284.333 61.092,284.671 60.878,285.083 60.684 C 286.046 60.232,285.999 59.746,284.875 58.534 C 284.760 58.411,284.667 58.240,284.667 58.155 C 284.667 58.070,284.535 57.865,284.375 57.699 C 283.973 57.284,283.079 55.981,282.947 55.617 C 282.871 55.409,283.017 55.129,283.424 54.701 C 284.263 53.817,284.397 53.643,284.671 53.083 C 284.806 52.808,285.010 52.523,285.125 52.450 C 285.239 52.377,285.333 52.213,285.333 52.087 C 285.333 51.961,285.432 51.758,285.554 51.637 C 285.675 51.516,285.910 51.060,286.076 50.625 C 286.243 50.190,286.438 49.833,286.511 49.833 C 286.583 49.833,286.735 49.421,286.848 48.917 C 286.961 48.413,287.121 48.000,287.203 48.000 C 287.286 48.000,287.305 47.922,287.245 47.826 C 287.186 47.730,287.212 47.562,287.303 47.451 C 287.393 47.340,287.565 46.650,287.684 45.917 C 287.804 45.183,287.980 44.530,288.076 44.464 C 288.321 44.297,288.316 34.365,288.071 34.202 C 287.972 34.137,287.796 33.427,287.679 32.625 C 287.561 31.823,287.390 31.167,287.298 31.167 C 287.206 31.167,287.173 31.057,287.225 30.922 C 287.277 30.787,287.255 30.638,287.176 30.589 C 287.098 30.541,286.943 30.126,286.833 29.667 C 286.723 29.209,286.582 28.833,286.520 28.833 C 286.457 28.833,286.305 28.492,286.182 28.074 C 286.059 27.657,285.870 27.225,285.764 27.116 C 285.657 27.006,285.470 26.673,285.348 26.375 C 285.226 26.077,285.065 25.833,284.991 25.833 C 284.917 25.833,284.803 25.665,284.739 25.458 C 284.442 24.508,281.770 21.536,280.728 20.997 C 280.465 20.861,280.175 20.668,280.083 20.567 C 279.992 20.467,279.654 20.284,279.333 20.160 C 279.012 20.037,278.712 19.888,278.667 19.829 C 278.471 19.578,276.671 18.853,275.750 18.654 C 275.200 18.535,274.698 18.360,274.635 18.266 C 274.518 18.092,267.780 17.967,266.375 18.112 M103.333 39.250 L 103.333 59.833 108.000 59.833 L 112.667 59.833 112.667 52.583 L 112.667 45.333 116.345 45.333 C 119.979 45.333,120.500 45.407,120.500 45.918 C 120.500 46.085,121.708 48.573,121.835 48.667 C 121.897 48.712,122.082 49.106,122.246 49.542 C 122.411 49.977,122.596 50.333,122.658 50.333 C 122.720 50.333,122.874 50.596,123.000 50.917 C 123.126 51.237,123.294 51.500,123.374 51.500 C 123.454 51.500,123.473 51.575,123.417 51.667 C 123.360 51.758,123.381 51.833,123.463 51.833 C 123.546 51.833,123.712 52.133,123.833 52.500 C 123.954 52.867,124.102 53.167,124.160 53.167 C 124.219 53.167,124.402 53.542,124.567 54.000 C 124.732 54.458,124.922 54.833,124.990 54.833 C 125.058 54.833,125.212 55.133,125.333 55.500 C 125.454 55.867,125.610 56.167,125.680 56.167 C 125.750 56.167,125.931 56.542,126.083 57.000 C 126.236 57.458,126.411 57.833,126.473 57.833 C 126.535 57.833,126.693 58.077,126.824 58.375 C 126.955 58.673,127.161 59.016,127.281 59.137 C 127.402 59.258,127.500 59.464,127.500 59.595 C 127.500 59.796,128.302 59.833,132.679 59.833 C 136.744 59.833,137.844 59.789,137.796 59.625 C 137.761 59.510,137.628 59.060,137.499 58.625 C 137.370 58.190,137.212 57.833,137.149 57.833 C 137.085 57.833,136.899 57.458,136.734 57.000 C 136.569 56.542,136.386 56.167,136.327 56.167 C 136.268 56.167,136.121 55.867,136.000 55.500 C 135.879 55.133,135.725 54.833,135.657 54.833 C 135.589 54.833,135.399 54.458,135.234 54.000 C 135.069 53.542,134.886 53.167,134.827 53.167 C 134.768 53.167,134.621 52.867,134.500 52.500 C 134.379 52.133,134.222 51.833,134.152 51.833 C 134.081 51.833,133.904 51.421,133.757 50.917 C 133.611 50.413,133.430 50.000,133.355 50.000 C 133.281 50.000,133.121 49.700,133.000 49.333 C 132.879 48.967,132.713 48.667,132.630 48.667 C 132.548 48.667,132.527 48.592,132.583 48.500 C 132.640 48.408,132.619 48.333,132.537 48.333 C 132.454 48.333,132.288 48.033,132.167 47.667 C 132.046 47.300,131.898 47.000,131.840 47.000 C 131.781 47.000,131.598 46.625,131.433 46.167 C 131.268 45.708,131.078 45.333,131.010 45.333 C 130.942 45.333,130.789 45.038,130.670 44.678 C 130.419 43.915,130.541 43.718,131.500 43.339 C 132.219 43.054,132.328 42.969,133.639 41.647 C 134.881 40.396,135.018 40.231,135.325 39.625 C 135.452 39.373,135.619 39.167,135.695 39.167 C 135.771 39.167,135.833 39.092,135.833 39.000 C 135.833 38.909,136.051 38.365,136.318 37.792 C 136.584 37.219,136.856 36.487,136.922 36.167 C 136.988 35.846,137.126 35.530,137.229 35.464 C 137.493 35.297,137.492 28.035,137.228 27.869 C 137.124 27.804,136.950 27.319,136.841 26.792 C 136.732 26.265,136.536 25.726,136.405 25.595 C 136.274 25.464,136.167 25.276,136.167 25.176 C 136.167 24.984,135.819 24.306,135.648 24.167 C 135.592 24.121,135.431 23.858,135.290 23.583 C 135.149 23.308,134.876 22.940,134.684 22.765 C 134.491 22.591,134.333 22.364,134.333 22.260 C 134.333 22.157,134.090 21.929,133.792 21.755 C 133.494 21.581,133.152 21.303,133.032 21.136 C 132.912 20.970,132.706 20.833,132.574 20.833 C 132.442 20.833,132.333 20.772,132.333 20.698 C 132.333 20.532,131.249 20.000,130.911 20.000 C 130.777 20.000,130.667 19.937,130.667 19.860 C 130.667 19.697,129.539 19.333,129.036 19.333 C 128.848 19.333,128.669 19.263,128.639 19.176 C 128.500 18.783,125.292 18.667,114.546 18.667 L 103.333 18.667 103.333 39.250 M40.042 25.125 C 41.852 25.152,44.815 25.152,46.625 25.125 C 48.435 25.098,46.954 25.076,43.333 25.076 C 39.712 25.076,38.231 25.098,40.042 25.125 M270.667 26.796 C 270.667 26.868,271.201 27.010,271.855 27.113 C 272.509 27.216,273.090 27.364,273.147 27.442 C 273.204 27.520,273.550 27.733,273.917 27.917 C 274.283 28.100,274.981 28.662,275.466 29.167 C 276.694 30.442,276.752 30.515,277.015 31.125 C 277.143 31.423,277.291 31.667,277.344 31.667 C 277.397 31.667,277.542 32.042,277.667 32.500 C 277.791 32.958,277.964 33.333,278.050 33.333 C 278.135 33.333,278.170 33.518,278.127 33.744 C 278.084 33.970,278.108 34.176,278.181 34.203 C 278.857 34.444,278.719 44.344,278.033 44.824 C 277.960 44.875,277.807 45.235,277.694 45.625 C 277.580 46.015,277.415 46.333,277.327 46.333 C 277.239 46.333,277.164 46.465,277.160 46.625 C 277.155 46.833,277.082 46.785,276.905 46.458 C 276.768 46.206,276.597 46.000,276.526 46.000 C 276.454 46.000,276.293 45.737,276.167 45.417 C 276.041 45.096,275.874 44.833,275.797 44.833 C 275.720 44.833,275.609 44.702,275.552 44.542 C 275.002 43.008,273.654 42.016,273.083 42.725 C 272.992 42.839,272.678 43.029,272.387 43.148 C 272.096 43.267,271.728 43.507,271.570 43.682 C 271.411 43.857,271.178 44.000,271.052 44.000 C 270.926 44.000,270.785 44.100,270.738 44.222 C 270.691 44.344,270.393 44.545,270.076 44.669 C 269.759 44.794,269.500 44.956,269.500 45.029 C 269.500 45.102,269.237 45.272,268.917 45.406 C 268.596 45.540,268.333 45.714,268.333 45.794 C 268.333 45.873,268.071 46.041,267.750 46.167 C 267.222 46.374,266.859 47.167,267.293 47.167 C 267.362 47.167,267.524 47.410,267.652 47.708 C 267.780 48.006,267.987 48.362,268.112 48.500 C 268.236 48.637,268.611 49.163,268.946 49.667 C 269.280 50.171,269.606 50.621,269.669 50.667 C 269.732 50.712,269.877 50.927,269.991 51.143 L 270.198 51.536 269.141 51.415 C 268.559 51.348,268.046 51.243,268.000 51.181 C 267.954 51.120,267.598 50.967,267.208 50.841 C 266.819 50.716,266.500 50.563,266.500 50.501 C 266.500 50.440,266.294 50.285,266.042 50.156 C 265.490 49.875,264.110 48.533,263.955 48.125 C 263.894 47.965,263.772 47.833,263.685 47.833 C 263.598 47.833,263.402 47.458,263.250 47.000 C 263.098 46.542,262.914 46.167,262.843 46.167 C 262.771 46.167,262.617 45.717,262.500 45.167 C 262.383 44.617,262.232 44.167,262.164 44.167 C 261.901 44.167,261.584 41.303,261.593 39.000 C 261.602 36.669,261.913 33.833,262.161 33.833 C 262.226 33.833,262.373 33.421,262.485 32.917 C 262.598 32.412,262.754 32.000,262.832 32.000 C 262.910 32.000,263.058 31.745,263.161 31.433 C 263.264 31.121,263.536 30.652,263.765 30.391 C 265.037 28.944,266.078 28.000,266.589 27.831 C 266.907 27.727,267.167 27.581,267.167 27.507 C 267.167 27.327,268.503 27.000,269.240 27.000 C 269.567 27.000,269.833 26.925,269.833 26.833 C 269.833 26.742,270.021 26.667,270.250 26.667 C 270.479 26.667,270.667 26.725,270.667 26.796 M124.500 27.479 C 124.500 27.559,124.802 27.672,125.172 27.732 C 127.884 28.165,128.894 33.484,126.650 35.515 C 125.630 36.438,125.117 36.500,118.492 36.500 L 112.667 36.500 112.667 31.917 L 112.667 27.333 118.583 27.333 C 121.839 27.333,124.500 27.399,124.500 27.479 M148.833 29.000 C 148.833 29.092,148.576 29.167,148.261 29.167 C 147.549 29.167,145.295 29.632,145.173 29.804 C 145.124 29.874,144.755 30.037,144.353 30.166 C 143.951 30.295,143.539 30.480,143.436 30.576 C 143.334 30.672,143.029 30.863,142.759 31.000 C 141.870 31.453,139.236 34.014,139.444 34.222 C 139.490 34.268,139.390 34.456,139.222 34.641 C 138.626 35.295,138.502 35.488,138.222 36.199 C 138.067 36.594,137.889 36.954,137.827 37.000 C 137.766 37.046,137.622 37.477,137.508 37.958 C 137.393 38.440,137.242 38.833,137.171 38.833 C 136.908 38.833,136.585 42.175,136.592 44.833 C 136.600 47.543,136.901 50.333,137.187 50.333 C 137.268 50.333,137.333 50.510,137.333 50.725 C 137.333 51.147,137.655 52.197,137.826 52.333 C 137.884 52.379,138.034 52.739,138.161 53.133 C 138.288 53.527,138.474 53.902,138.575 53.966 C 138.675 54.031,138.846 54.287,138.955 54.535 C 139.175 55.035,139.253 55.131,140.661 56.625 C 141.200 57.198,141.718 57.667,141.812 57.667 C 141.905 57.667,142.082 57.811,142.206 57.988 C 142.330 58.165,142.635 58.361,142.885 58.424 C 143.134 58.486,143.397 58.643,143.469 58.772 C 143.541 58.900,144.046 59.131,144.592 59.284 C 145.137 59.436,145.627 59.626,145.681 59.704 C 145.734 59.782,146.428 59.935,147.222 60.044 C 148.017 60.152,148.667 60.299,148.667 60.370 C 148.667 60.565,152.629 60.529,152.750 60.333 C 152.807 60.242,153.099 60.167,153.399 60.167 C 154.185 60.167,155.833 59.813,155.833 59.644 C 155.833 59.565,155.943 59.500,156.078 59.500 C 156.491 59.500,157.876 58.981,158.123 58.734 C 158.252 58.605,158.461 58.500,158.587 58.500 C 158.713 58.500,158.877 58.406,158.950 58.291 C 159.023 58.177,159.304 57.970,159.573 57.833 C 160.199 57.514,162.667 55.068,162.667 54.767 C 162.667 54.642,161.946 53.836,161.065 52.978 C 160.184 52.119,159.303 51.237,159.107 51.018 C 157.803 49.561,157.449 49.512,156.360 50.633 C 155.933 51.072,155.321 51.537,155.000 51.665 C 154.679 51.793,154.373 51.962,154.319 52.040 C 153.689 52.955,148.631 52.815,147.453 51.850 C 146.554 51.114,146.041 50.528,145.833 50.000 C 145.706 49.679,145.553 49.379,145.493 49.333 C 145.433 49.288,145.334 48.931,145.273 48.542 L 145.163 47.833 154.644 47.833 L 164.125 47.833 164.229 47.313 C 164.542 45.750,164.233 38.261,163.845 38.001 C 163.776 37.955,163.584 37.410,163.419 36.792 C 163.253 36.173,163.061 35.667,162.992 35.667 C 162.922 35.667,162.788 35.442,162.692 35.167 C 162.596 34.892,162.457 34.667,162.383 34.667 C 162.309 34.667,162.142 34.427,162.012 34.133 C 161.748 33.538,159.711 31.500,159.379 31.500 C 159.262 31.500,159.167 31.438,159.167 31.363 C 159.167 31.162,157.938 30.391,157.212 30.138 C 156.866 30.017,156.546 29.871,156.500 29.814 C 156.368 29.648,154.079 29.167,153.425 29.167 C 153.100 29.167,152.833 29.092,152.833 29.000 C 152.833 28.898,152.056 28.833,150.833 28.833 C 149.611 28.833,148.833 28.898,148.833 29.000 M177.000 28.976 C 177.000 29.054,176.419 29.167,175.708 29.226 C 174.238 29.350,172.457 29.667,172.333 29.829 C 172.287 29.888,171.744 30.072,171.125 30.237 C 170.506 30.402,170.000 30.592,170.000 30.659 C 170.000 30.726,169.700 30.870,169.333 30.980 C 168.967 31.090,168.667 31.240,168.667 31.313 C 168.667 31.387,168.359 31.548,167.982 31.673 C 167.606 31.797,167.263 31.989,167.221 32.099 C 167.178 32.210,166.988 32.341,166.799 32.391 C 166.436 32.485,166.432 33.743,166.794 33.982 C 166.877 34.038,167.085 34.552,167.254 35.125 C 167.424 35.698,167.610 36.167,167.668 36.167 C 167.726 36.167,167.875 36.542,168.000 37.000 C 168.125 37.458,168.285 37.833,168.357 37.833 C 168.428 37.833,168.577 38.152,168.688 38.542 C 168.799 38.931,168.948 39.317,169.019 39.399 C 169.158 39.560,170.167 39.212,170.167 39.002 C 170.167 38.934,170.523 38.744,170.958 38.580 C 171.394 38.415,171.787 38.232,171.833 38.172 C 171.879 38.113,172.179 37.960,172.500 37.833 C 172.821 37.706,173.121 37.555,173.167 37.497 C 173.295 37.336,175.217 36.833,175.705 36.833 C 175.944 36.833,176.170 36.740,176.208 36.627 C 176.306 36.331,180.526 36.329,180.625 36.625 C 180.663 36.740,180.763 36.833,180.846 36.833 C 181.386 36.833,182.305 37.464,182.737 38.130 C 183.407 39.164,183.604 41.500,183.021 41.500 C 182.826 41.500,182.667 41.435,182.667 41.356 C 182.667 41.082,180.090 40.799,177.510 40.789 C 175.077 40.780,172.333 41.067,172.333 41.330 C 172.333 41.394,171.921 41.539,171.417 41.652 C 170.912 41.765,170.500 41.917,170.500 41.989 C 170.500 42.062,170.144 42.256,169.708 42.420 C 169.273 42.584,168.857 42.819,168.783 42.943 C 168.710 43.066,168.576 43.167,168.485 43.167 C 168.266 43.167,166.333 45.080,166.333 45.296 C 166.333 45.389,166.235 45.502,166.116 45.548 C 165.996 45.594,165.793 45.958,165.665 46.357 C 165.536 46.757,165.367 47.128,165.290 47.182 C 164.783 47.537,164.793 53.632,165.301 53.991 C 165.372 54.042,165.533 54.402,165.659 54.792 C 165.784 55.181,165.931 55.500,165.986 55.500 C 166.041 55.500,166.186 55.727,166.309 56.004 C 166.531 56.507,167.946 58.000,168.200 58.000 C 168.273 58.000,168.474 58.131,168.647 58.292 C 169.262 58.864,169.680 59.118,170.377 59.342 C 170.765 59.467,171.121 59.619,171.167 59.680 C 171.286 59.839,172.914 60.167,173.582 60.167 C 173.893 60.167,174.193 60.242,174.250 60.333 C 174.382 60.546,177.574 60.553,177.961 60.341 C 178.120 60.254,178.681 60.136,179.208 60.079 C 179.736 60.023,180.274 59.869,180.405 59.738 C 180.536 59.607,180.731 59.500,180.838 59.500 C 181.157 59.500,182.239 58.952,182.383 58.717 C 182.457 58.598,182.622 58.500,182.750 58.500 C 182.878 58.500,183.060 58.369,183.153 58.208 C 183.283 57.986,183.324 58.144,183.328 58.878 L 183.333 59.839 187.708 59.794 L 192.083 59.750 192.126 48.844 C 192.150 42.846,192.107 37.896,192.031 37.844 C 191.956 37.792,191.798 37.206,191.682 36.542 C 191.565 35.877,191.416 35.333,191.351 35.333 C 191.286 35.333,191.093 34.945,190.922 34.470 C 190.751 33.995,190.493 33.460,190.347 33.282 C 189.840 32.659,188.247 31.086,187.917 30.882 C 187.206 30.442,186.237 30.007,185.958 30.004 C 185.798 30.002,185.667 29.935,185.667 29.856 C 185.667 29.680,183.153 29.166,182.292 29.167 C 181.948 29.167,181.667 29.092,181.667 29.000 C 181.667 28.897,180.778 28.833,179.333 28.833 C 178.050 28.833,177.000 28.897,177.000 28.976 M332.500 29.000 C 332.500 29.092,332.242 29.167,331.928 29.167 C 331.231 29.167,328.965 29.630,328.840 29.798 C 328.791 29.864,328.467 30.017,328.122 30.138 C 327.396 30.391,326.167 31.162,326.167 31.363 C 326.167 31.438,326.064 31.500,325.939 31.500 C 325.814 31.500,325.533 31.676,325.314 31.892 C 325.096 32.108,324.748 32.373,324.542 32.481 C 324.335 32.590,324.167 32.786,324.167 32.917 C 324.167 33.048,324.032 33.227,323.868 33.315 C 323.704 33.402,323.461 33.684,323.327 33.940 C 323.193 34.197,322.971 34.531,322.833 34.683 C 322.264 35.314,322.015 35.740,321.810 36.434 C 321.691 36.837,321.538 37.167,321.470 37.167 C 321.402 37.167,321.253 37.617,321.140 38.167 C 321.026 38.717,320.880 39.167,320.816 39.167 C 320.751 39.167,320.739 39.324,320.790 39.517 C 320.840 39.710,320.794 39.922,320.687 39.988 C 320.144 40.323,320.150 49.181,320.693 49.516 C 320.796 49.580,320.840 49.790,320.790 49.983 C 320.739 50.176,320.756 50.333,320.826 50.333 C 320.897 50.333,321.050 50.783,321.167 51.333 C 321.283 51.883,321.438 52.333,321.509 52.333 C 321.581 52.333,321.764 52.708,321.917 53.167 C 322.069 53.625,322.262 54.000,322.347 54.000 C 322.431 54.000,322.500 54.097,322.500 54.215 C 322.500 54.333,322.722 54.689,322.993 55.006 C 323.265 55.324,323.490 55.638,323.493 55.705 C 323.502 55.867,325.308 57.667,325.462 57.667 C 325.529 57.667,325.801 57.854,326.068 58.084 C 326.334 58.313,326.649 58.500,326.768 58.500 C 326.886 58.500,327.047 58.614,327.125 58.753 C 327.203 58.892,327.713 59.131,328.258 59.284 C 328.804 59.436,329.291 59.621,329.341 59.694 C 329.392 59.767,330.029 59.910,330.758 60.012 C 331.487 60.114,332.214 60.265,332.373 60.348 C 332.768 60.556,336.287 60.543,336.417 60.333 C 336.473 60.242,336.750 60.167,337.032 60.167 C 337.778 60.167,339.667 59.797,339.667 59.651 C 339.667 59.583,339.910 59.473,340.208 59.408 C 340.741 59.292,342.487 58.433,342.661 58.201 C 342.710 58.136,342.975 57.971,343.250 57.835 C 343.525 57.699,343.979 57.354,344.258 57.068 C 344.537 56.782,344.931 56.459,345.133 56.351 C 345.335 56.243,345.500 56.072,345.500 55.972 C 345.500 55.871,345.688 55.614,345.917 55.402 C 346.554 54.811,346.497 54.717,343.963 52.194 C 341.403 49.645,341.247 49.563,340.442 50.340 C 339.404 51.341,339.212 51.500,339.047 51.500 C 338.954 51.500,338.689 51.649,338.458 51.831 C 337.053 52.936,332.468 52.948,331.117 51.850 C 330.243 51.139,329.674 50.459,329.473 49.883 C 329.351 49.535,329.206 49.212,329.150 49.167 C 329.094 49.121,328.996 48.802,328.933 48.458 L 328.818 47.833 338.306 47.833 L 347.794 47.833 347.895 47.458 C 348.238 46.180,347.873 37.833,347.475 37.833 C 347.397 37.833,347.333 37.729,347.333 37.602 C 347.333 37.213,346.791 35.667,346.654 35.667 C 346.584 35.667,346.439 35.404,346.333 35.083 C 346.227 34.762,346.077 34.500,345.998 34.500 C 345.920 34.500,345.806 34.344,345.745 34.152 C 345.584 33.643,343.291 31.423,342.475 30.987 C 342.263 30.873,342.005 30.695,341.900 30.591 C 341.796 30.487,341.382 30.295,340.980 30.166 C 340.579 30.037,340.212 29.881,340.167 29.820 C 340.039 29.651,337.761 29.167,337.092 29.167 C 336.766 29.167,336.500 29.092,336.500 29.000 C 336.500 28.898,335.722 28.833,334.500 28.833 C 333.278 28.833,332.500 28.898,332.500 29.000 M363.167 29.000 C 363.167 29.092,363.038 29.167,362.881 29.167 C 362.467 29.167,361.142 29.697,360.809 29.995 C 360.653 30.135,360.219 30.539,359.846 30.892 L 359.167 31.534 359.167 30.517 L 359.167 29.500 354.750 29.500 L 350.333 29.500 350.333 44.667 L 350.333 59.833 354.750 59.833 L 359.167 59.833 359.167 51.139 C 359.167 42.790,359.284 40.333,359.684 40.333 C 359.766 40.333,359.833 40.197,359.833 40.030 C 359.833 39.650,360.943 38.333,361.263 38.333 C 361.393 38.333,361.500 38.273,361.500 38.200 C 361.500 38.029,362.498 37.667,362.970 37.667 C 363.170 37.667,363.333 37.592,363.333 37.500 C 363.333 37.408,363.633 37.333,364.000 37.333 C 364.367 37.333,364.667 37.408,364.667 37.500 C 364.667 37.592,364.880 37.667,365.142 37.667 C 366.015 37.667,368.002 38.513,368.740 39.199 C 369.111 39.544,369.666 39.600,369.668 39.292 C 369.669 39.177,369.781 38.146,369.917 37.000 C 370.053 35.854,370.164 34.898,370.165 34.875 C 370.177 34.546,370.507 35.012,370.667 35.583 C 370.782 35.996,370.942 36.333,371.022 36.333 C 371.101 36.333,371.167 36.437,371.167 36.564 C 371.167 36.875,371.706 38.562,371.839 38.667 C 371.898 38.712,372.049 39.106,372.176 39.542 C 372.302 39.977,372.459 40.333,372.524 40.333 C 372.590 40.333,372.737 40.754,372.852 41.269 C 372.967 41.783,373.155 42.298,373.269 42.412 C 373.383 42.526,373.528 42.896,373.591 43.234 C 373.655 43.573,373.818 43.960,373.953 44.096 C 374.088 44.231,374.157 44.452,374.105 44.588 C 374.053 44.723,374.076 44.833,374.156 44.833 C 374.237 44.833,374.399 45.208,374.516 45.667 C 374.634 46.125,374.778 46.500,374.838 46.500 C 374.898 46.500,375.086 46.987,375.256 47.583 C 375.427 48.179,375.612 48.667,375.668 48.667 C 375.724 48.667,375.866 49.042,375.984 49.500 C 376.101 49.958,376.254 50.333,376.322 50.333 C 376.391 50.333,376.548 50.755,376.671 51.269 C 376.795 51.784,376.989 52.298,377.103 52.412 C 377.216 52.526,377.361 52.896,377.425 53.234 C 377.488 53.573,377.630 53.940,377.740 54.050 C 377.850 54.160,378.077 54.756,378.245 55.375 C 378.412 55.994,378.608 56.500,378.679 56.500 C 378.751 56.500,378.902 56.913,379.015 57.417 C 379.127 57.921,379.287 58.333,379.370 58.333 C 379.452 58.333,379.473 58.408,379.417 58.500 C 379.360 58.592,379.393 58.667,379.490 58.667 C 379.710 58.667,379.725 59.444,379.507 59.579 C 379.420 59.633,379.390 59.787,379.442 59.922 C 379.493 60.057,379.462 60.167,379.371 60.167 C 379.280 60.167,379.121 60.504,379.017 60.917 C 378.914 61.329,378.755 61.667,378.664 61.667 C 378.574 61.667,378.500 61.757,378.500 61.867 C 378.500 62.235,377.928 64.000,377.808 64.000 C 377.744 64.000,377.598 64.412,377.485 64.917 C 377.373 65.421,377.224 65.833,377.156 65.833 C 377.087 65.833,376.897 66.265,376.734 66.792 C 376.571 67.319,376.392 67.787,376.336 67.833 C 376.280 67.879,376.135 68.254,376.015 68.665 C 375.894 69.077,375.692 69.562,375.565 69.744 C 375.437 69.926,375.333 70.282,375.333 70.537 L 375.333 71.000 379.909 71.000 L 384.485 71.000 384.594 70.417 C 384.655 70.096,384.762 69.833,384.832 69.833 C 384.903 69.833,385.045 69.496,385.149 69.083 C 385.253 68.671,385.412 68.333,385.502 68.333 C 385.593 68.333,385.667 68.229,385.667 68.102 C 385.667 67.774,386.211 66.100,386.350 66.000 C 386.413 65.954,386.551 65.598,386.656 65.208 C 386.761 64.819,386.918 64.500,387.006 64.500 C 387.095 64.500,387.167 64.410,387.167 64.300 C 387.167 63.940,387.738 62.167,387.854 62.167 C 387.916 62.167,388.057 61.791,388.167 61.333 C 388.277 60.874,388.436 60.457,388.519 60.405 C 388.603 60.353,388.629 60.240,388.576 60.155 C 388.523 60.070,388.546 60.000,388.627 60.000 C 388.707 60.000,388.875 59.625,389.000 59.167 C 389.125 58.708,389.276 58.333,389.337 58.333 C 389.397 58.333,389.548 57.912,389.671 57.397 C 389.795 56.882,389.989 56.368,390.103 56.255 C 390.216 56.141,390.361 55.771,390.425 55.432 C 390.488 55.094,390.630 54.727,390.740 54.617 C 390.850 54.507,391.077 53.910,391.245 53.292 C 391.412 52.673,391.604 52.167,391.672 52.167 C 391.739 52.167,391.879 51.829,391.983 51.417 C 392.086 51.004,392.231 50.667,392.304 50.667 C 392.376 50.667,392.572 50.140,392.739 49.497 C 392.906 48.853,393.101 48.291,393.173 48.246 C 393.244 48.202,393.436 47.735,393.599 47.208 C 393.762 46.681,393.944 46.212,394.002 46.167 C 394.060 46.121,394.206 45.727,394.326 45.292 C 394.445 44.856,394.603 44.500,394.676 44.500 C 394.750 44.500,394.904 44.079,395.019 43.565 C 395.134 43.050,395.314 42.543,395.419 42.438 C 395.524 42.333,395.666 42.025,395.734 41.754 C 395.802 41.483,395.995 40.959,396.163 40.589 C 396.330 40.219,396.553 39.598,396.657 39.208 C 396.761 38.819,396.909 38.500,396.986 38.500 C 397.062 38.500,397.170 38.275,397.225 38.000 C 397.280 37.725,397.470 37.181,397.646 36.792 C 397.823 36.402,398.053 35.765,398.157 35.375 C 398.261 34.985,398.410 34.667,398.488 34.667 C 398.566 34.667,398.682 34.387,398.746 34.045 C 398.810 33.703,398.947 33.271,399.050 33.086 C 399.153 32.901,399.218 32.656,399.194 32.542 C 399.171 32.427,399.221 32.333,399.306 32.333 C 399.468 32.333,400.000 30.423,400.000 29.841 C 400.000 29.506,399.921 29.500,395.583 29.500 C 391.867 29.500,391.167 29.538,391.167 29.738 C 391.167 29.869,391.063 30.080,390.937 30.206 C 390.811 30.332,390.652 30.694,390.584 31.009 C 390.516 31.325,390.379 31.733,390.279 31.917 C 390.179 32.100,390.116 32.344,390.139 32.458 C 390.162 32.573,390.115 32.667,390.034 32.667 C 389.953 32.667,389.788 33.079,389.667 33.583 C 389.546 34.087,389.392 34.500,389.325 34.500 C 389.258 34.500,389.068 35.006,388.901 35.625 C 388.735 36.244,388.511 36.840,388.403 36.950 C 388.295 37.060,388.155 37.427,388.091 37.766 C 388.028 38.104,387.883 38.474,387.769 38.588 C 387.655 38.702,387.467 39.217,387.352 39.731 C 387.237 40.246,387.083 40.667,387.010 40.667 C 386.937 40.667,386.779 41.023,386.659 41.458 C 386.539 41.894,386.395 42.287,386.337 42.333 C 386.206 42.439,385.667 44.128,385.667 44.436 C 385.667 44.563,385.600 44.667,385.519 44.667 C 385.437 44.667,385.235 45.173,385.070 45.792 C 384.905 46.410,384.721 46.954,384.660 47.000 C 384.600 47.046,384.512 47.196,384.466 47.333 C 384.420 47.471,384.327 47.265,384.260 46.875 C 384.193 46.485,384.076 46.167,384.002 46.167 C 383.928 46.167,383.777 45.792,383.667 45.333 C 383.557 44.875,383.405 44.500,383.329 44.500 C 383.253 44.500,383.096 44.079,382.981 43.565 C 382.866 43.050,382.673 42.530,382.553 42.410 C 382.432 42.289,382.333 42.133,382.333 42.062 C 382.333 41.754,381.749 40.000,381.646 40.000 C 381.584 40.000,381.443 39.625,381.333 39.167 C 381.223 38.708,381.071 38.333,380.995 38.333 C 380.919 38.333,380.763 37.912,380.648 37.398 C 380.533 36.883,380.354 36.377,380.251 36.273 C 380.148 36.169,379.965 35.727,379.844 35.292 C 379.723 34.856,379.572 34.500,379.510 34.500 C 379.447 34.500,379.299 34.106,379.180 33.625 C 378.977 32.806,378.619 31.890,378.067 30.777 C 377.938 30.517,377.874 30.235,377.926 30.152 C 377.977 30.068,377.940 30.000,377.843 30.000 C 377.746 30.000,377.667 29.885,377.667 29.746 C 377.667 29.523,377.075 29.493,372.958 29.505 C 368.464 29.518,366.000 29.325,366.000 28.962 C 366.000 28.891,365.363 28.833,364.583 28.833 C 363.750 28.833,363.167 28.902,363.167 29.000 M290.501 39.792 C 290.503 49.616,290.631 53.009,291.006 53.139 C 291.094 53.169,291.167 53.298,291.167 53.425 C 291.167 53.826,291.690 55.213,291.933 55.457 C 292.061 55.585,292.167 55.800,292.167 55.934 C 292.167 56.068,292.279 56.220,292.417 56.273 C 292.554 56.326,292.667 56.463,292.667 56.578 C 292.667 56.907,294.582 58.666,294.941 58.666 C 295.045 58.667,295.169 58.765,295.214 58.884 C 295.260 59.004,295.606 59.203,295.982 59.327 C 296.359 59.452,296.667 59.610,296.667 59.678 C 296.667 59.747,297.210 59.896,297.875 60.010 C 298.540 60.124,299.155 60.281,299.242 60.359 C 299.453 60.547,302.426 60.540,302.794 60.351 C 302.953 60.269,303.643 60.116,304.327 60.012 C 305.011 59.908,305.611 59.757,305.661 59.676 C 305.710 59.596,306.088 59.398,306.500 59.235 C 306.913 59.073,307.310 58.841,307.383 58.720 C 307.457 58.599,307.598 58.500,307.698 58.500 C 307.797 58.500,308.075 58.294,308.314 58.042 L 308.750 57.583 308.799 58.708 L 308.849 59.833 313.342 59.833 L 317.835 59.833 317.793 44.708 L 317.750 29.583 313.298 29.539 L 308.846 29.495 308.798 38.920 C 308.767 44.992,308.690 48.388,308.582 48.464 C 308.490 48.530,308.316 48.865,308.196 49.210 C 307.303 51.767,302.858 52.758,301.000 50.814 C 300.125 49.898,299.956 49.587,299.780 48.559 C 299.681 47.977,299.539 47.500,299.466 47.500 C 299.393 47.500,299.333 43.450,299.333 38.500 L 299.333 29.500 294.917 29.500 L 290.500 29.500 290.501 39.792 M152.000 36.667 C 152.000 36.758,152.152 36.833,152.339 36.833 C 153.201 36.833,154.828 38.028,155.090 38.854 C 155.144 39.026,155.267 39.167,155.362 39.167 C 155.458 39.167,155.494 39.274,155.444 39.406 C 155.393 39.537,155.417 39.669,155.495 39.698 C 155.574 39.726,155.691 40.031,155.755 40.375 L 155.870 41.000 150.602 41.000 L 145.333 41.000 145.333 40.583 C 145.333 40.354,145.390 40.167,145.459 40.167 C 145.529 40.167,145.681 39.860,145.798 39.485 C 146.083 38.571,147.395 37.253,148.300 36.971 C 148.685 36.850,149.000 36.695,149.000 36.626 C 149.000 36.557,149.675 36.500,150.500 36.500 C 151.389 36.500,152.000 36.568,152.000 36.667 M335.667 36.667 C 335.667 36.758,335.819 36.833,336.005 36.833 C 336.861 36.833,338.833 38.310,338.833 38.950 C 338.833 39.069,338.899 39.167,338.980 39.167 C 339.114 39.167,339.500 40.399,339.500 40.824 C 339.500 40.944,337.828 41.000,334.250 41.000 L 329.000 41.000 329.000 40.583 C 329.000 40.354,329.063 40.167,329.140 40.167 C 329.217 40.167,329.370 39.867,329.480 39.500 C 329.590 39.133,329.765 38.833,329.868 38.833 C 329.971 38.833,330.012 38.790,329.958 38.736 C 329.663 38.441,331.803 36.833,332.492 36.833 C 332.680 36.833,332.833 36.758,332.833 36.667 C 332.833 36.569,333.417 36.500,334.250 36.500 C 335.083 36.500,335.667 36.569,335.667 36.667 M181.824 48.147 C 181.875 48.227,182.235 48.346,182.625 48.411 L 183.333 48.529 183.333 49.650 C 183.333 50.931,183.083 51.337,182.091 51.664 C 181.766 51.771,181.500 51.913,181.500 51.979 C 181.500 52.174,180.492 52.481,179.458 52.601 C 178.931 52.662,178.500 52.777,178.500 52.856 C 178.500 53.058,177.042 53.037,176.917 52.833 C 176.860 52.742,176.612 52.666,176.365 52.666 C 175.225 52.663,173.833 51.863,173.833 51.210 C 173.833 51.095,173.758 51.000,173.667 51.000 C 173.475 51.000,173.437 50.056,173.625 49.972 C 173.694 49.942,173.875 49.645,174.028 49.314 C 174.254 48.826,174.451 48.669,175.070 48.486 C 175.490 48.362,175.833 48.206,175.833 48.140 C 175.833 47.834,181.628 47.840,181.824 48.147 M40.042 52.958 C 41.852 52.985,44.815 52.985,46.625 52.958 C 48.435 52.931,46.954 52.909,43.333 52.909 C 39.712 52.909,38.231 52.931,40.042 52.958 " stroke="none" fill="#04445c" fill-rule="evenodd"></path><path id="path4" d="M35.583 25.589 C 35.308 25.715,35.200 25.822,35.343 25.826 C 35.486 25.830,35.749 25.723,35.926 25.589 C 36.322 25.290,36.237 25.290,35.583 25.589 M50.739 25.539 C 50.916 25.655,51.404 26.047,51.822 26.411 L 52.583 27.072 52.000 26.438 C 51.679 26.090,51.192 25.698,50.917 25.567 C 50.642 25.436,50.562 25.423,50.739 25.539 M33.789 27.543 L 33.495 28.083 33.831 27.690 C 34.117 27.355,34.269 26.997,34.125 27.001 C 34.102 27.002,33.951 27.245,33.789 27.543 M32.965 28.964 L 32.680 29.583 33.007 29.190 C 33.186 28.973,33.333 28.692,33.333 28.565 C 33.333 28.222,33.279 28.281,32.965 28.964 M31.583 31.333 C 31.441 31.608,31.362 31.833,31.408 31.833 C 31.454 31.833,31.608 31.608,31.750 31.333 C 31.892 31.058,31.971 30.833,31.925 30.833 C 31.879 30.833,31.726 31.058,31.583 31.333 M55.000 31.537 C 55.000 31.680,55.149 31.973,55.332 32.190 L 55.663 32.583 55.389 32.000 C 55.046 31.270,55.000 31.215,55.000 31.537 M30.708 32.875 C 30.529 33.365,30.534 33.386,30.755 33.093 C 30.967 32.813,31.092 32.333,30.953 32.333 C 30.927 32.333,30.817 32.577,30.708 32.875 M55.802 32.917 C 55.886 33.100,55.997 33.362,56.048 33.500 C 56.128 33.716,56.142 33.715,56.154 33.490 C 56.161 33.347,56.050 33.085,55.907 32.907 C 55.652 32.589,55.651 32.589,55.802 32.917 M57.346 35.510 C 57.339 35.653,57.450 35.915,57.593 36.093 C 57.848 36.411,57.849 36.411,57.698 36.083 C 57.614 35.900,57.503 35.637,57.452 35.500 C 57.372 35.284,57.358 35.285,57.346 35.510 M27.833 38.488 C 27.833 38.573,27.702 38.677,27.542 38.718 C 27.322 38.776,27.343 38.799,27.625 38.814 C 27.856 38.826,28.000 38.737,28.000 38.583 C 28.000 38.446,27.962 38.333,27.917 38.333 C 27.871 38.333,27.833 38.403,27.833 38.488 M28.583 41.333 C 28.726 41.608,28.879 41.833,28.925 41.833 C 28.971 41.833,28.892 41.608,28.750 41.333 C 28.608 41.058,28.454 40.833,28.408 40.833 C 28.362 40.833,28.441 41.058,28.583 41.333 M55.798 44.964 L 55.513 45.583 55.840 45.190 C 56.020 44.973,56.167 44.692,56.167 44.565 C 56.167 44.222,56.113 44.281,55.798 44.964 M55.162 46.009 C 55.061 46.198,55.008 46.439,55.043 46.546 C 55.079 46.653,55.192 46.499,55.295 46.204 C 55.507 45.597,55.437 45.495,55.162 46.009 M54.417 47.333 C 54.274 47.608,54.196 47.833,54.241 47.833 C 54.287 47.833,54.441 47.608,54.583 47.333 C 54.726 47.058,54.804 46.833,54.759 46.833 C 54.713 46.833,54.559 47.058,54.417 47.333 M32.968 48.917 C 33.053 49.100,33.163 49.362,33.214 49.500 C 33.294 49.716,33.309 49.715,33.320 49.490 C 33.327 49.347,33.217 49.085,33.074 48.907 C 32.819 48.589,32.817 48.589,32.968 48.917 M51.993 51.375 C 51.683 51.765,51.562 51.977,51.723 51.848 C 52.026 51.604,52.740 50.667,52.623 50.667 C 52.586 50.667,52.302 50.985,51.993 51.375 " stroke="none" fill="#40944c" fill-rule="evenodd"></path></g></svg>