<svg viewBox="0.163 0.113 3.539 3.666" xmlns="http://www.w3.org/2000/svg" width="32" height="33.67"><radialGradient id="b" cx="190.456" cy="80.2" gradientTransform="matrix(1 .00239 -.002 .8362 .16 12.685)" gradientUnits="userSpaceOnUse" r="121.582"><stop offset="0" stop-color="#e01d84"/><stop offset=".139" stop-color="#de1e85"/><stop offset=".285" stop-color="#d62085"/><stop offset=".434" stop-color="#c92386"/><stop offset=".586" stop-color="#b72786"/><stop offset=".739" stop-color="#9d2b87"/><stop offset=".891" stop-color="#7c2e88"/><stop offset="1" stop-color="#5d2f88"/></radialGradient><path d="M.399 2.361a1.44 1.44 0 0 1-.05-.686q.028-.146.074-.288s.186-.61.815-.889c0 0 .217-.114.543-.123 0 0-.044-.043-.073-.062-.154-.102-.382-.136-.521.008-.042.043-.077.09-.116.133a.4.4 0 0 1-.16.112C.857.586.803.582.748.592a.35.35 0 0 0-.16.066.2.2 0 0 0-.075.156C.508.862.509.912.506.961c-.008.143-.053.184-.156.263a.4.4 0 0 0-.106.121c-.081.143.048.291.055.435a.2.2 0 0 1-.012.088c-.011.031-.032.051-.05.077-.024.034-.04.074-.034.116s.028.081.048.117c.039.065.088.123.139.178q.004.001.008.005" fill="#e32286"/><path d="M2.968 2.878c.31-.135.442-.368.442-.368.29-.395.191-.811.191-.811-.185.401-.353.512-.353.512.454-.691.003-1.108.003-1.108.185.393-.061.873-.061.873-.206.434-.498.589-.498.589.326.061.566-.159.566-.159-.467.505-.974.481-.974.481.213.238.532.218.532.218-.418.098-.809-.04-1.131-.308a2 2 0 0 1-.172-.162s-.048-.051-.058-.065l-.001-.001c-.007.249.253.481.253.481a1 1 0 0 1-.475-.427s-.22-.374-.061-.801.64-.519.64-.519c.397.193.734.253.734.253.71.119.669-.229.669-.229C3.221 1.028 2.77.71 2.77.71 1.965.113 1.238.498 1.238.498c-.629.279-.815.889-.815.889q-.047.143-.074.288c-.069.4.035.778.26 1.115.35.523.919.703.919.703.842.286 1.417-.135 1.417-.135.529-.364.636-.784.636-.784-.427.334-.611.303-.611.303M2.311.913c.04 0 .073.032.073.073s-.032.073-.073.073-.073-.032-.073-.073.032-.073.073-.073" fill="url(#a)"/><path d="M3.212 1.325c.007-.299-.444-.617-.444-.617-.804-.595-1.532-.21-1.532-.21-.629.279-.815.889-.815.889a3 3 0 0 0-.069.263c-.039.199-.022.384-.022.384a1.5 1.5 0 0 0 .114.461l-.008-.034s-.057-.272-.004-.533c0 0 .046-.272.232-.482 0 0 .302-.43.863-.261 0 0 .121.043.163.065.042.02.114.051.114.051.397.193.734.253.734.253.712.12.672-.228.672-.228m-.901-.265c-.04 0-.073-.032-.073-.073s.032-.073.073-.073.073.032.073.073-.032.073-.073.073" fill="url(#b)"/><path d="M1.851.784 1.392.641c-.003 0-.016-.007-.04 0 0 0-.271.069-.224.217 0 0 .028.093.105.183l.505-.024z" fill="url(#c)"/></svg>