<svg xmlns="http://www.w3.org/2000/svg" viewBox="0 0 5.12 5.12" width="32" height="32"><path d="M0 2.56V0h5.12v5.12H0" style="fill:#007acc"/><path d="M1.123 2.569v.209h.666v1.894h.472V2.778h.666v-.205c0-.115 0-.209-.005-.211 0-.004-.406-.005-.899-.005l-.896.004v.21zm2.991-.214c.131.031.23.09.32.183a.8.8 0 0 1 .123.164c0 .008-.221.157-.356.241-.005.004-.026-.018-.046-.051-.067-.095-.134-.136-.241-.143-.154-.01-.256.07-.256.205 0 .041.008.064.023.097.035.07.099.113.297.2.366.157.525.261.621.41a.74.74 0 0 1 .06.623c-.082.214-.282.358-.567.406-.09.015-.294.013-.39-.004a.96.96 0 0 1-.521-.273 1 1 0 0 1-.133-.197l.049-.031.192-.111.145-.084.033.045a.7.7 0 0 0 .192.187c.166.086.389.074.499-.026a.2.2 0 0 0 .068-.154.2.2 0 0 0-.038-.131c-.041-.056-.123-.102-.353-.205-.265-.113-.378-.184-.483-.294a.7.7 0 0 1-.141-.256 1 1 0 0 1-.008-.329c.055-.256.248-.435.525-.486.09-.018.301-.01.389.013z" style="fill:#fff"/></svg>