<svg height="19.187" viewBox="0.002 0.002 10.236 6.14" width="32" xmlns="http://www.w3.org/2000/svg"><path d="M5.12.002q-2.048 0-2.559 2.047.768-1.023 1.791-.767c.389.097.668.38.976.692.502.509 1.082 1.098 2.351 1.098q2.048 0 2.559-2.047-.768 1.023-1.791.768c-.389-.097-.668-.38-.976-.692C6.969.591 6.388.002 5.12.002m-2.559 3.07q-2.047 0-2.559 2.047.768-1.023 1.791-.767c.389.097.668.38.976.692.502.509 1.083 1.099 2.351 1.099q2.047 0 2.559-2.047-.768 1.023-1.791.767c-.389-.097-.668-.38-.976-.692-.502-.509-1.082-1.099-2.351-1.099" fill="#06b6d4"/></svg>