<svg xmlns="http://www.w3.org/2000/svg" width="32" height="22.477" viewBox="0.069 0.172 0.69 0.485"><path fill="#FFF" d="M.528.407.342.31v.194C.407.469.476.436.528.407"/><path fill="#E8E0E0" d="M.528.407.342.31l.163.11.022-.012"/><path fill="#CD201F" d="M.354.656A2 2 0 0 1 .15.646.1.1 0 0 1 .103.622.1.1 0 0 1 .081.579.2.2 0 0 1 .072.516a2 2 0 0 1 0-.203C.076.275.078.231.106.205A.1.1 0 0 1 .152.182C.179.177.294.173.413.173s.234.004.261.009a.1.1 0 0 1 .054.032c.026.04.026.09.029.13v.143a.3.3 0 0 1-.016.107.1.1 0 0 1-.019.03.1.1 0 0 1-.048.025C.56.658.464.659.354.658M.529.407.343.309v.194C.408.468.477.435.529.406z"/></svg>